<svg xmlns="http://www.w3.org/2000/svg" width="521" height="81" viewBox="-0.2 -0.5 521 81"><path fill="#00539F" d="M51.6.2C35.3 18.6 19 38.5 3.2 57.3c-.9 1.1-1.4 2.5-2.1 3.7-2.5 6.3-.6 13.8 4.3 18 9.1.2 17.9.4 27.4 0-.1-.8-.8-1.3-1.2-2-3.3-4.9-3.3-12.1-.2-17 16-19.8 32.5-39.1 49.3-58.9.2-.2.5-.7 0-.9-4.2.1-8.4 0-12.6-.1-3.2 0-6.3-.1-9.3-.1-2.4 0-4.8 0-7.2.2"/><path fill="#00A0E0" d="M69.3 17.7l-.1 1 21.5 26.2c4.2 5.4 9 10.3 12.7 16 2.7 5.7 1.7 13.3-2.3 18.2l.1.4h26.7c1.7-.3 2.6-2.1 3.8-3.4 2.9-5.2 3.1-12.4-.1-17.4C116 39.5 100.1 20 84.3 1l-.7-.1-14.3 16.8"/><path fill="#00539F" d="M59.3 37.5c-4.1 9.6 4 16.7 7.7 24.5 2.3-5 7.1-9.3 8.5-14.9 2.9-8.5-4-15.3-8.2-21.9-2.8 4-6 8-8 12.3"/><path fill="#00A0E0" d="M343.3 27.2c-3.5 2-6.8 5.5-10.2 7.9-4.9 5.3-13.8 0-18.5 5.7-.9.5-1.7 2.9-3 2 0-2.1.5-4.8-1.9-5.7-3.4-.5-7.2-.1-10.5.3-1.5.2-3 .5-4 1.6-1.6 2.8 2.4 3.5 2.7 6 .8 9.2.8 18.1-.3 26.8-.5 1.9-3.1 3.1-2.3 5.4.2 1.1 1.4 1.3 2.3 1.7 3.8.1 7.6.5 11.6.3 2-.1 4.4 0 5.5-1.9 1.3-2.3-1.3-3.7-2-5.7-1-6 0-13.3-.1-19.8l.6-1.4c2.3-4.3 7.6-3.7 11.8-3.8 1.5.4 3.7-.2 4.7 1.5.8 4.1.3 8.9.1 12.7.2 5.5-1.9 11.5 1.5 16.1 4.8 3.5 11.3 2.3 16.9 1.7 5.1-3.8-3-5.5-3.6-8.8-.6-7.8-.4-14.5.1-22.5 1.8-2.4 5.1-.6 7.1-2.6 1-1.6.7-3.6.7-5.6-.5-1.7-2-1.7-3.6-1.7-1.2 0-2.4 0-3.2-.7-.8-2.8.6-5.6-.3-8.3-.2-.9-1.1-1.4-2.1-1.4.1.2 0 .2 0 .2M160.3 51.1c.2-4.9 2.2-9.3 3.8-13.7.3-.9 1.3-1.8 2.4-2 3.3.3 3 4.1 3.7 6.5.3 3 1.8 5.9 1.6 8.9-1 1.3-3.1 1-4.5 1.2-2.6-.1-4.8-.1-7-.9m35.8-24.8c-5.8 2.6 1.7 5.7.9 9.4.9 10.1.8 21.9.4 31.6-.3 2.1-.1 4.5-1.5 6.2-.6.4-1.3.8-2.1.5-1.4-.6-1.9-2.3-2.5-3.6-4.2-14.9-7.6-30.1-11.9-44.9-.5-1.1-1.4-2.3-2.5-2.8l-5-.7c-1.2 0-2.5-.1-3.9-.2-3.3-.2-6.7-.4-9.5.9-.9.7-.9 1.8-.8 3 2.3 2.5.2 5.9-.4 8.6-3.8 9.5-6.9 19.1-10.8 28.5-1.4 4.7-3.8 8.9-4.6 13.7.8 3.7 5.3 2.8 8.4 3.2 1.8-.2 4 .1 5-1.7 1.2-2.9-3.4-4.2-1.6-7.5 1.4-4.9 2.7-9.7 4.5-14.5l.8-.1 3.8 3.5c1.9 1 4.2.9 6.5.9 1.7 0 3.4 0 4.9.3 1.4 2.2 1.4 5.3 2.2 7.9 2.4 3.7-2.4 6-1.1 9.5 1 1.5 3.1 1.5 4.9 1.8l23.1-.2c3.7-.1 7.8.2 10.9-1.2 2.7-3.4-2.8-5-2.3-8.3-.7-14.4.1-30.4.6-45.8l-.3-1.6c-.5-1.4-2-1.4-3.1-1.5-4.8 1.3-8.9 3.5-13 5.1"/><path fill="#00A0E0" d="M357.2 38.4c-5.4 2.8-4.8 9.1-4.6 14.3.5 5.5 5.7 8.4 10.4 9.9 3.6 1.8 8.9 2.3 10.3 6.6 0 1.2-.2 2.4-1.2 3.2-3.8 1.5-8.4.6-11.6-1.5-3.3-1.3-2.8-6.6-7.1-6.1-3 1.7-1.6 6.6-1.3 9.7.2 5.3 6.2 4.2 9.7 5.4 6.8.4 14.9 1.1 20-3.6 3-3.1 3.7-8.2 3.4-12.4-1.1-10.7-12.9-8.9-19-14.4-1-1.3-1.9-2.9-1.1-4.5 1.3-2.3 4.1-2.1 6.5-2.2.7.9 2 .5 2.7 1.5 1.8 2.3-1.1 4.1-1.2 6.5.3 1.1 1.5 1.5 2.6 1.7 2.9.6 4.6-2 6.1-3.9 1.5-2.6 3.2-6.4 1.2-9.2l-1-.7c-3.9-1.8-8.4-2.7-12.8-2.7-4-.1-8.2.7-12 2.4M479.5 39.5c-4.1 4.3-2.6 11.5-1.6 16.6 3.1 5 8.8 6.1 13.8 7.8 2.5 1.1 6.2 1.5 6.8 4.7-.2 1.2-.4 2.5-1.7 3.1-2.9 1.4-6.7.7-9.8-.1-3.2-1-4.8-4.3-7-6.4-.8-.1-1.3-.1-2.1 0-2.8 1.7-1 5.4-1.5 8.2l-.3.3c-1.1-.5-1.9-1.1-2.7-2-3.3-8.8-5-18.4-7.8-27.6-.6-2.4-1.5-4.7-3.1-6.8-2.2-2.4-6.3-1.6-9-.6-2.8 1.1-5.3 3.1-8.2 4-1.1-.6-.5-2-1-3-2-2.3-5.6-1-8.5-.9-2.5.5-5.2.5-7.1 2.5-1.6 2.6 2.1 4.2 2.3 6.7.7 7.7 1 16.9.4 25.1-.5 1.9-2.5 3.2-2.3 5.3.4 2.4 3 2.4 4.9 2.8 1.1-.1 2.3 0 3.6 0 3.7.1 7.7.2 10.2-2.2.9-2.3-1.4-3.5-2.2-5.3-1.1-6.3-.9-13.4-.8-19.6-.2-1.5.1-2.7.9-3.7.7-.8 1.8-.8 2.8-.8h.3c1.4.6 2.4 1.7 2.9 3 2.6 8.2 4.3 17.2 6.6 25.7.5 1.5 2.1 2.4 3.6 2.9 4.7.3 9.3.5 13.7-.9.8-.3 1-1.4 1.8-1.4 3.9 3.1 9.2 3 14.2 2.9 1.5 0 3.1-.1 4.5 0 3.4-.4 7.1-.4 9.8-2.5 4.8-3 5.6-8.5 5.2-13.9-1-8.6-10.7-9-16.6-11.7-2-1.1-4.5-2.8-4.2-5.4.3-1 .3-2 1.2-2.7 1.6-1.3 4.1-1.2 6.1-.7 1 .6 1.4 1.6 1.6 2.7.4 2-1.8 3.2-1.4 5.5 0 .6.7 1 1.1 1.3 2.6.9 4.8-.4 6.7-1.9 2.3-2.6 3.2-6.5 2.5-10.1-2.4-4-7.3-3.9-11.4-4.4-1 0-2.1-.1-3.2-.1-4.9-.3-10.2.3-14 3.6M404.6 71.9c-2.4-2.7-2.9-6.2-3.2-9.9 0-5.6-1.6-12.9 1.2-18.2 1.8-1.4 5.2-1.6 7.4-.5 3.2 3.8 2.8 9.4 3.5 14.1-.1 4.4 1.4 9.6-.7 13.7-.4.5-1.1.7-1.3 1.4v-.2c-1.1.2-2.4.5-3.7.5-1.2.1-2.3-.1-3.2-.9m-10.5-34c-5.9 3.6-6.4 10.6-6.9 17.1 0 8.8-.3 20.2 9 24 7.1 2.2 15.8 1.8 23-.1 4.2-1.1 7.1-5.5 7.7-9.7.5-8.7-.4-17.4-2.8-25.5-1-3-3.6-5.6-6.7-6.5-3.7-.7-8-1.3-12.2-1.3-3.9 0-7.8.5-11.1 2M233.1 72.3c-2.1-3.1-1.3-7.5-1.5-11.3.3-3.9-.4-8.1.9-12.2.7-1.1 1.9-1.4 3.1-1.6 3.7 1.2 3.8 5.5 4.9 8.6.7 4.7 2.4 9.8.9 14.5-.8 1.4-2.1 2.3-3.7 2.8-.4.1-.9.2-1.3.2-1.1 0-2.3-.4-3.3-1m-3.2-49.6c-4.5 1.9-8.8 4-13 6.9-3.4 3 2.4 4 1.8 7 .7 12.1.7 23.7-.3 35.9-.7 1.4-1.6 2.8-1.6 4.6.4 1.3 1.6 1.9 2.8 2.2 6.9.5 14.3.6 21.4.1 3.2-.7 6.6-.5 9.3-2.6 6.3-5.6 5-14.6 3.9-22-1.8-5.8-2.7-12.3-7.5-16.9-4.9-3.3-9.5 1-13.8 2.5l-.6-.6c.1-5.3.9-11.2.1-16.5-.6-.5-1.2-.7-2-.7-.2.1-.3.1-.5.1"/><path fill="#00539F" d="M42.7 52h-3.3l-.3.2c-.4 3.3-.1 6.8 1.4 9.8 3.4 6.7 10.4 9.7 17.8 8.9 4 .6 7.5 3.5 8.4 7.4 1.2-2.1 2.6-5.2 5.3-6.3 5.1-2.2 11.9-.1 16.2-3.8 5.4-3.4 8.1-9.9 6.7-16-1.4 0-2.9 0-4.3-.1-5.2-.1-10.6-.3-14.6 2.6-4.5 2.6-7.4 7-9 11.7-1.5-4.1-4-8.4-7.7-10.9-3.8-3-8.7-3.4-13.7-3.4-.9-.1-1.9-.1-2.9-.1"/><path fill="#00A0E0" d="M274.8 72.9c-2.1-1.8-3.3-4.5-3-7.4 3-1.9 6.7-2.2 10.1-3.2 1.3-.2 3.1.1 3.4 1.7.4 3.6-.9 7.3-4 9.2-1.1.3-2.3.6-3.4.6-1.1-.1-2.1-.3-3.1-.9m-3.4-21.3c.4-3.1.1-7.1 3.3-8.6 1.5-.4 3.4-.4 4.6.7 1.9 3.1 2.5 7.4 1.5 11.3-1.6 2.5-5.1 2.6-7.9 2.8-2.3-1.3-1.3-4.1-1.5-6.2M261 42.5c-3.7 9.4-3.8 21.9-.8 31.4 1.1 2.7 4 3.9 6.4 4.9 6.5 1.4 13.5 2 19.5-.8 4.3-2.3 7.1-6.9 6.8-11.7-.1-3.1-3.2-3.8-5.2-5.3v-.4c1.8-1 4.2-1.2 5.1-3.4 1.3-5.4-.1-10.8-2.6-15.4-1.5-2.1-3.2-3.8-5.6-4.5-3.1-.5-6.7-1.1-10.3-1.1-5.3.1-10.5 1.4-13.3 6.3M513.7 33.1h1.7c.7 0 1.6.1 1.6 1 0 1.1-1.1 1.1-1.9 1.1h-1.3l-.1-2.1m1.9-.6H513v6h.7v-2.8h1.3l1.7 2.8h.9l-1.8-2.8c1.1 0 1.9-.5 1.9-1.7 0-.5-.2-1-.7-1.3-.4-.2-.9-.3-1.3-.3 0 .1 0 .1-.1.1m-5.3 3.1c0-2.6 2.1-4.7 4.7-4.8 2.6 0 4.8 2.1 4.8 4.7s-2.1 4.8-4.7 4.8c-2.7 0-4.8-2.1-4.8-4.7m4.7-5.5c-3 0-5.4 2.5-5.4 5.4 0 3 2.5 5.4 5.4 5.4 3 0 5.4-2.5 5.3-5.4.1-3-2.3-5.4-5.3-5.4"/></svg>