<svg xmlns="http://www.w3.org/2000/svg" width="313.5" height="33.75"><path fill="#E41E26" d="M19.372 31.764c-8.383 0-16.155-4.904-16.155-15.27 0-8.451 5.745-14.95 15.216-14.95 2.371 0 4.28.6 5.62 1.38l.634-1.095h6.491v11.904h-5.447c0-2.661-1.6-5.401-4.636-5.401-2.582 0-5.398 1.469-5.398 7.779v1.396c0 6.422 2.356 7.922 5.558 7.922 2.444 0 4.293-1.9 4.293-4.082v-.787h5.861v7.578c-2.518 1.626-7.241 3.626-12.037 3.626"/><path fill="#E41E26" d="M43.497 8.727l1.972 7.211h-4.193l2.176-7.211h.045zm-1.296 22.664v-6.549c-1.673 0-2.723-.394-2.723-1.847 0-.517.445-1.462.445-1.462h6.598l.907 3.309h-2.779v6.549h16.91v-6.549h-2.356L52.528 1.834H33.714V8.25h4.036s-2.51 7.004-4.475 12.753c-1.046 3.052-1.693 3.839-3.422 3.839h-.948v6.549h13.296z"/><path fill="#E41E26" d="M73.476 8.246c2.021 0 3.813.826 3.813 3.17 0 1.942-1.568 3.122-3.755 3.122h-2.169V8.246h2.111zm9.577 7.718c3.774-.905 5.504-3.286 5.504-6.347 0-5.156-4.498-7.783-9.455-7.783H57.706v6.411h2.664v16.59h-2.664v6.549h16.475v-6.549h-2.864v-5.264h2.375c3.164 0 3.31 1.578 3.31 4v2.536c0 3.644 1.647 5.276 5.666 5.276h5.904v-6.549c-2.26 0-2.097-.055-2.097-1.746v-2.514c0-3.541-2.182-4.326-3.422-4.49v-.12zM105.331 8.25c2.034 0 3.82.826 3.82 3.165 0 1.947-1.558 3.131-3.77 3.131h-2.18V8.25h2.13zm9.554 7.719c3.76-.91 5.482-3.29 5.482-6.353 0-5.15-4.476-7.783-9.413-7.783H89.518V8.25h2.712v16.59h-2.712v6.551h16.518V24.84h-2.891v-5.258h2.386c3.15 0 3.333 1.574 3.333 4v2.527c0 3.645 1.636 5.215 5.626 5.215h6.469V24.84c-2.26 0-2.676-.055-2.676-1.748v-2.516c0-3.531-2.143-4.321-3.397-4.485v-.122zM121.524 11.495c0-5.112 3.509-9.95 11.004-9.95 2.734 0 4.498.65 6.554 1.988l.62-1.704h5.855v10.06h-6.1c-.785-1.737-2.647-3.682-5.478-3.682-1.186 0-2.017.429-2.017 1.151 0 1.954 4.234 2.345 7.231 3.056 5.995 1.46 9.449 5.339 9.449 10.172 0 6.146-4.915 9.195-11.216 9.195-2.922 0-5.416-.584-7.635-2.062l-.943 1.606h-6.92v-9.207h6.722c.951 1.463 3.724 3.123 6.095 3.123 1.718 0 2.59-.64 2.59-1.584 0-.694-.824-1.472-2.54-1.853a263.85 263.85 0 0 0-5.896-1.521c-4.114-1.014-7.375-3.558-7.375-8.788"/><path fill="#221F1F" d="M157.749 1.839h.47v30.788h-.47zM174.174 15.692l-1.355-.78c-1.629-.963-2.506-1.661-2.506-2.796 0-1.242 1.031-2.018 2.682-2.018 1.109 0 2.486.467 4.297 1.464l.252.134.005-3.249c0-.01-.036-.023-.036-.023-1.613-.797-3.111-1.156-4.76-1.156-3.459 0-5.792 2.007-5.792 5.011 0 2.472 1.577 3.899 3.981 5.304l1.418.868c1.979 1.131 2.699 2.016 2.699 3.293 0 1.404-1.334 2.45-3.203 2.45-1.506 0-3.119-.579-5.129-1.854l-.071-.047v3.701c0 .014.262.158.262.158 1.547.732 3.281 1.102 5.084 1.102 3.915 0 6.563-2.237 6.563-5.602-.001-2.445-1.241-4.12-4.391-5.96M198.158 7.716V26.84h3.395v-8.379h7.515v-3.009h-7.515V10.74h7.894V7.716zM214.965 18.332h7.192v-2.991h-7.192v-4.602h7.815V7.716h-11.137V26.84h11.266v-3.061h-7.944zM275.919 7.716h-4.05s-1.889 2.922-4.333 6.753c-.161.325-.333.574-.39.764 0 0-.049-.004-.054 0a6.504 6.504 0 0 0-.411-.748l-4.33-6.769h-4.059s7.079 10.395 7.094 10.431v8.693h3.451v-8.729c.374-.541 7.082-10.395 7.082-10.395M253.848 7.105h-.324l-8.996 19.737h3.649l1.442-3.316h8.13l1.399 3.316h3.676l-8.976-19.737m-3.071 13.625s1.601-3.825 2.611-6.207a4.61 4.61 0 0 0 .272-.916h.024s.131.523.271.916l2.61 6.207h-5.788zM235.941 16.092c.094-.27.235-.81.245-.925h.044c.014.105.161.653.297.925.612 1.578 4.518 11.395 4.518 11.395h.318l6.858-19.771h-3.57s-2.577 8.063-3.382 10.666c-.096.276-.27.781-.279.913l-.02-.004a8.926 8.926 0 0 0-.252-.909 4454.131 4454.131 0 0 0-4.379-11.359h-.285s-3.541 9.252-4.305 11.34c-.144.302-.272.814-.297.928l-.027.004c-.014-.132-.146-.637-.24-.913-.863-2.69-3.4-10.666-3.4-10.666h-3.584l6.838 19.771h.334c0-.001 3.812-9.537 4.568-11.395M187.962 7.105h-.329l-8.979 19.737h3.651l1.416-3.316h8.146l1.433 3.316h3.65l-8.988-19.737m-3.061 13.625s1.601-3.825 2.612-6.213a6.85 6.85 0 0 0 .262-.91h.033s.121.523.268.91a3032.02 3032.02 0 0 1 2.611 6.213h-5.786z"/><path fill="#E41E26" d="M295.085 25.483c0-5.299-7.846-5.815-7.846-13.306 0-5.401 4.223-8.115 8.382-8.543-.395-.015-.785-.039-1.337-.039-1.024 0-1.536.043-2.38.081-7.824.376-11.989 4.593-12.258 11.014a36.405 36.405 0 0 0-.062 2.299c0 1.097.035 1.834.062 2.236.264 6.272 4.221 10.405 11.621 10.999 1.217-.263 3.818-1.142 3.818-4.741"/><path fill="#E41E26" d="M308.886 14.691c-.24-6.092-4.015-10.177-11.048-10.908-1.244.245-3.716 1.193-3.716 4.712 0 5.286 7.868 5.772 7.868 13.305 0 4.66-3.552 8.086-8.886 8.521.344.004.694.011 1.18.011 1.003 0 1.491-.025 2.369-.068 7.812-.414 11.978-4.584 12.232-11.038.015-.401.059-1.138.059-2.236 0-1.17-.044-1.861-.058-2.299"/><path fill="#FFF" d="M301.99 21.801c0-7.534-7.868-8.02-7.868-13.305 0-3.518 2.472-4.466 3.717-4.711a18.39 18.39 0 0 0-1.188-.107c-.406-.019-.71-.038-1.029-.043-4.159.428-8.383 3.143-8.383 8.544 0 7.49 7.846 8.005 7.846 13.305 0 3.599-2.601 4.478-3.818 4.741.247.015.431.033.636.039.443.027.798.043 1.201.058 5.334-.435 8.886-3.861 8.886-8.521"/></svg>