<svg xmlns="http://www.w3.org/2000/svg" width="565.893" height="150.689" viewBox="0 0 149.726 39.87"><path d="M100.793 30.244l.78.72h19.313c1.235-.351 1.644-.66 2.185-.839 0 0-.759.895.127.84h10.752c.432-.026-.071-.55-.15-.811-.53-1.738-.631-3.806.21-5.543l4.026-8.321 5.84-.026c1.353-3.087 2.95-6.294 4.441-9.549h-6.203s-.162.353 2.631-5.127l-10.224.009c-.842 1.708-1.681 3.386-2.463 5.124l-5.307-.006c-2.92 6.673-1.852 4.508-2.811 6.456-1.656-.081-3.42.488-4.775 1.52a15.241 15.241 0 0 1-.678-1.194l-2.578 1.302s4.404-9.272 5.996-13.048l-9.812-.004c-2.164 4.194-3.809 8.48-5.97 12.675-.391-.628-1.037-1.25-1.306-1.948l-1.44.061c.597-1.995.998-6.054-2.903-5.82-5.425.325-6.379 3.483-7.55 6.898-1.982.21-4.175-.12-6.067.3-1.442-.63-3.333-.359-4.685.36l5.797-12.522-11.924-.004C74.19 4.165 73.729 4.789 72.53 6.57c.355-1.565.692-3.227.87-4.875l-10.24-.009c-2.163 3.806-3.784 7.851-5.767 11.716H46.732l2.555-6.444-4.612-.012 2.035-5.208-9.822.008c-.524 1.604-2.99 6.703-2.99 6.703h-6.475c1.844-4.068-3.988-11.066-14.92-4.99C8.922 5.45-1.327 12.867 1.598 25.5c1.655 7.148 8.545 9.697 17.66 4.544 1.112 1.899 4.79 1.969 6.863.65l.38.354 12.068-.024-3.394 7.7 10.475.06 3.665-7.7 24.223-.036c.623-1.384.76-1.52 1.357-2.524.487.976 1.63 2.05 2.53 2.44 1.622.39 3.396.569 4.988-.45 2.49 1.738 6.478 1.244 8.73-.254 1.05-.81 2.014-1.784 3.038-2.711.156.951.004 1.678.965 2.456 1.307 1.056 3.672 1.155 5.647.24z" stroke-miterlimit="5" fill="#fff" stroke="#000" stroke-width="1.166" stroke-linecap="square"/><path d="M138.011 27.045c1.032 0 1.81-.813 1.81-1.845 0-1.037-.778-1.854-1.81-1.854-1.029 0-1.812.817-1.812 1.854 0 1.032.783 1.845 1.812 1.845zm0-.272c-.816 0-1.441-.717-1.441-1.573 0-.858.625-1.583 1.441-1.583.82 0 1.44.725 1.44 1.583 0 .856-.626 1.573-1.44 1.573zm-.868-2.505c.245.01.238.031.238.23v1.328c0 .192.007.214-.238.23v.092h.896v-.093c-.245-.016-.24-.038-.24-.23v-.547h.193c.276.422.421.87.583.87h.422v-.056a3.345 3.345 0 0 1-.365-.444l-.302-.427c.25-.084.418-.296.418-.542 0-.354-.278-.504-.6-.504h-1.005v.093zm.656.022h.188c.188 0 .318.104.318.41 0 .24-.078.464-.325.464h-.181v-.874z"/><path d="M83.049 28.673s-3.841 2.456-6.227-.692c-3.422-4.509 3.455-11.06 7.268-12.152 3.039-.867 3.202-.407 4.178 1.166l.652-1.192 4.49.011s-2.374 5.658-4.544 10.405c2.386-1.492 5.19-8.16 5.532-11.041.355-2.981.864-5.265 3.474-6.293 1.402-.554 2.615-.938 3.866-.096 2.057 1.383-1.74 6.114-1.74 6.114 1.262-.15 2.574-1.074 3.665-.15.783.661 1.343 1.519.93 2.457-1.297 2.96-4.43 6.01-3.25 6.73 2.713 1.654 12.412-20.485 12.412-20.485 5.49.005-.03-.062 5.356-.023l-6.809 14.92c2.088-.763 3.991-1.614 5.642-2.333 1.014 1.876.857 1.694 1.006 1.55 2.073-1.618 4.744-2.824 7.27-2.307 1.591.327 2 1.9 2.252 3.507.547 3.507-7.225 5.575-7.284 5.455-.21.6 2.644 3.325 5.046 1.194.533-.472.81-.92 5.408-11.323-5.412-.013.245 0-5.18 0l2.22-5.312 5.485.211c2.613-5.47-.245.515 2.504-5.388l5.09-.01s.109-.271-2.523 5.45l5.74.041c-.869 1.79-1.302 3.422-2.144 5.1h-5.804c-4.708 10.35-3.976 9.644-5.86 13.78-.134.293.337.803.337.803h-5.994c-.18-.33-.568-.503-.271-1.06-2.793 1.669-3.55 2.13-5.56 1.71-1.593-.51-2.79-1.646-3.474-3.419-.62-1.607-.322-3.217.07-4.416l-2.584 1.14c.66 2.126 1.91 4.365 3.382 6.045l-4.824.008c-1.47-1.05-1.981-2.847-2.762-4.376-.63 1.019-1.591 2.307-.992 3.656.09.209.332.359.272.66h-5.467c-.451-.69-.241-1.709-.301-2.458-1.93 2.78-3.723 3.325-6.134 2.427-3.577-1.33.869-7.782 2.25-9.52-.78-.121-1.341.081-2.092.05-1.802 3.207-2.898 6.622-6.045 8.9-2.17 1.52-5.88 2.488-8.01.601zM23.707 12.628h-4.095c.09-.93 3.602-5.067 1.751-4.76-3.336.548-9.115 9.472-9.115 14.537 0 3.147 3.361 3.222 3.906 2.93 1.842-.358 4.394-2.135 4.666-2.712 3.918-8.314 3.363-6.945 3.363-6.945h5.209s-3.716 7.38-4.467 9.808c-.12.45.481.6.661.72.811.18 1.352-.27 2.012-.72 1.892-3.475 3.551-7.275 5.293-10.811h-1.98l1.953-4.855c2.957 0-.166-.025 2.561.015L38.41 3.77h5.208c-2.22 5.55-.353.397-2.617 6.05 4.748 0 .42-.012 5.058-.012-2.224 5.073.272-.406-1.953 4.72-5.208-.027-3.544.037-5.166.068l-5.929 12.75c-.15.84.143 1.468.504 2.008l-5.767.09c-.39-.36-.33-.899-.45-1.378-1.622 1.498-5.173 2.965-6.587.798-.383-.587-.509-1.3-.543-2.224-.868 1.193-3.85 3.624-6.944 3.905C9.21 30.911 5.31 30.071 4 25.88c-2.17-6.945.778-14.349 7.173-19.057 3.57-2.627 6.41-4 10.77-3.634 6.917.58 1.763 9.44 1.763 9.44z" fill="#ee3124"/><path d="M68.236 16.834c2.102-2.714 9.43-13.065 9.43-13.065h6.998L81.06 11.74l-8.174 17.083-5.732-.033c1.908-4.334-.045.114 1.862-4.254 0 0-2.261 2.893-3.492 4.272l-4.918-.018c.03-1.648.45-3.536.48-5.243-1.05 1.618-1.832 3.506-2.883 5.243l-5.592.018L64.571 3.68l6.472-.002s-2.027 9.112-2.807 13.157zM31.248 9.86c-2.12 5.23.435-.759-1.844 4.667h-4.938l1.944-4.739zm14.758 5.481l-3.66 8.183c0 .359-.03.75.36.87.992.27 1.322-.63 1.742-1.23l3.688-7.76c6.522-.009-.232-.009 6.36-.009L44.507 36.56l-.21.15h-5.976c-.42-.449.12-.84.21-1.228 1.111-2.218 2.163-4.466 3.093-6.773-.569.479-2.347 1.688-5.06.359-1.356-.868-1.156-3.835-.826-4.944l4.15-8.744z" fill="#ee3124"/><path d="M81.591 24.504c.112-2.123 2.764-4.701 4.62-5.628.708-.354 1.081-.235.954.4-.05.25-.172.572-.333.942-.16.37-.365.796-.58 1.25l-1.209 2.2a1.786 1.786 0 0 1-.113.293c-.057.12-.181.368-.414.816-1.398 2.696-3.013 1.403-2.925-.273zm39.902-3.604c-.297-.44.063-2.194 1.384-2.855.106-.053.436-.211.794-.226.347-.015.719.103.953.607.618 1.33-2.41 2.86-3.13 2.473z" fill="#fff"/></svg>