<?xml version="1.0" encoding="UTF-8" standalone="no"?>
<!-- Created with Inkscape (http://www.inkscape.org/) -->

<svg
   xmlns:dc="http://purl.org/dc/elements/1.1/"
   xmlns:cc="http://creativecommons.org/ns#"
   xmlns:rdf="http://www.w3.org/1999/02/22-rdf-syntax-ns#"
   xmlns:svg="http://www.w3.org/2000/svg"
   xmlns="http://www.w3.org/2000/svg"
   xmlns:sodipodi="http://sodipodi.sourceforge.net/DTD/sodipodi-0.dtd"
   xmlns:inkscape="http://www.inkscape.org/namespaces/inkscape"
   width="149.72577mm"
   height="39.86977mm"
   viewBox="0 0 149.72577 39.86977"
   version="1.1"
   id="svg49458"
   inkscape:version="0.92.0 r15299"
   sodipodi:docname="city market.svg">
  <defs
     id="defs49452" />
  <sodipodi:namedview
     id="base"
     pagecolor="#ffffff"
     bordercolor="#666666"
     borderopacity="1.0"
     inkscape:pageopacity="0.0"
     inkscape:pageshadow="2"
     inkscape:zoom="1.426759"
     inkscape:cx="281.05658"
     inkscape:cy="73.454674"
     inkscape:document-units="mm"
     inkscape:current-layer="layer1"
     showgrid="false"
     fit-margin-top="0"
     fit-margin-left="0"
     fit-margin-right="0"
     fit-margin-bottom="0"
     inkscape:window-width="1280"
     inkscape:window-height="744"
     inkscape:window-x="-4"
     inkscape:window-y="-4"
     inkscape:window-maximized="1" />
  <metadata
     id="metadata49455">
    <rdf:RDF>
      <cc:Work
         rdf:about="">
        <dc:format>image/svg+xml</dc:format>
        <dc:type
           rdf:resource="http://purl.org/dc/dcmitype/StillImage" />
        <dc:title></dc:title>
      </cc:Work>
    </rdf:RDF>
  </metadata>
  <g
     inkscape:label="Layer 1"
     inkscape:groupmode="layer"
     id="layer1"
     transform="translate(212.70217,-154.10084)">
    <g
       id="g49727"
       transform="matrix(0.26458333,0,0,0.26458333,-214.25577,152.85905)">
      <path
         id="path49693"
         d="m 386.822,119.003 2.948,2.72 h 72.995 c 4.668,-1.327 6.212,-2.494 8.259,-3.17 0,0 -2.87,3.381 0.48,3.17 h 40.637 c 1.632,-0.093 -0.27,-2.077 -0.568,-3.062 -2.004,-6.569 -2.386,-14.384 0.794,-20.948 l 15.216,-31.451 22.075,-0.098 c 5.109,-11.669 11.145,-23.79 16.783,-36.091 h -23.445 c 0,0 -0.613,1.333 9.944,-19.376 l -38.643,0.031 c -3.181,6.456 -6.354,12.8 -9.309,19.369 l -20.057,-0.024 c -11.037,25.219 -7,17.039 -10.625,24.402 -6.257,-0.309 -12.923,1.842 -18.048,5.741 -0.765,-1.195 -2.087,-3.517 -2.562,-4.511 l -9.744,4.923 c 0,0 16.646,-35.047 22.663,-49.318 L 429.53,11.296 c -8.177,15.853 -14.394,32.048 -22.564,47.906 -1.479,-2.375 -3.92,-4.727 -4.934,-7.363 l -5.447,0.231 c 2.258,-7.54 3.776,-22.883 -10.97,-21.997 -20.502,1.23 -24.107,13.163 -28.531,26.072 -7.495,0.79 -15.784,-0.456 -22.933,1.132 -5.451,-2.381 -12.599,-1.356 -17.709,1.363 l 21.913,-47.33 -45.07,-0.014 c -7.01,9.141 -8.754,11.497 -13.281,18.233 1.342,-5.917 2.616,-12.198 3.292,-18.424 L 244.589,11.07 c -8.174,14.383 -14.302,29.673 -21.795,44.281 h -40.299 l 9.658,-24.357 -17.43,-0.045 7.689,-19.683 -37.12,0.029 c -1.981,6.065 -11.302,25.337 -11.302,25.337 -10.253,0 -12.99,0 -24.473,0 6.971,-15.378 -15.071,-41.827 -56.389,-18.861 -13.536,7.521 -52.27,35.552 -41.215,83.303 6.254,27.013 32.296,36.648 66.743,17.17 4.204,7.177 18.109,7.442 25.94,2.46 l 1.436,1.337 45.614,-0.093 -12.828,29.104 39.59,0.229 13.85,-29.108 91.551,-0.133 c 2.356,-5.232 2.871,-5.746 5.129,-9.538 1.843,3.688 6.164,7.745 9.567,9.22 6.129,1.475 12.832,2.15 18.848,-1.7 9.415,6.569 24.484,4.703 32.999,-0.96 3.968,-3.058 7.608,-6.741 11.479,-10.248 0.592,3.596 0.014,6.344 3.649,9.283 4.94,3.994 13.876,4.366 21.342,0.906 z"
         stroke-miterlimit="5"
         inkscape:connector-curvature="0"
         style="fill:#ffffff;stroke:#000000;stroke-width:4.40689993;stroke-linecap:square;stroke-miterlimit:5" />
      <path
         id="path49695"
         d="m 527.49,106.909 c 3.899,0 6.839,-3.072 6.839,-6.973 0,-3.919 -2.939,-7.005 -6.839,-7.005 -3.89,0 -6.849,3.086 -6.849,7.005 0.001,3.901 2.96,6.973 6.849,6.973 z m 0,-1.025 c -3.087,0 -5.448,-2.713 -5.448,-5.947 0,-3.243 2.361,-5.981 5.448,-5.981 3.096,0 5.438,2.738 5.438,5.981 0,3.234 -2.362,5.947 -5.438,5.947 z m -3.283,-9.469 c 0.927,0.039 0.902,0.117 0.902,0.867 v 5.021 c 0,0.725 0.024,0.808 -0.902,0.867 v 0.352 h 3.386 v -0.352 c -0.926,-0.06 -0.906,-0.143 -0.906,-0.867 v -2.072 h 0.73 c 1.043,1.597 1.592,3.291 2.204,3.291 h 1.592 v -0.215 c -0.392,-0.377 -0.901,-1.004 -1.376,-1.676 l -1.143,-1.616 c 0.946,-0.314 1.578,-1.117 1.578,-2.048 0,-1.337 -1.048,-1.905 -2.264,-1.905 h -3.802 v 0.353 z m 2.48,0.083 h 0.711 c 0.71,0 1.2,0.392 1.2,1.548 0,0.911 -0.294,1.754 -1.226,1.754 h -0.686 v -3.302 z"
         inkscape:connector-curvature="0" />
      <path
         id="path49697"
         d="m 319.756,113.062 c 0,0 -14.516,9.283 -23.535,-2.612 -12.933,-17.043 13.061,-41.806 27.473,-45.931 11.484,-3.277 12.102,-1.539 15.79,4.409 l 2.464,-4.507 16.971,0.043 c 0,0 -8.975,21.384 -17.177,39.324 9.02,-5.638 19.616,-30.843 20.909,-41.729 1.342,-11.267 3.268,-19.899 13.129,-23.785 5.301,-2.092 9.886,-3.546 14.614,-0.362 7.774,5.228 -6.575,23.108 -6.575,23.108 4.768,-0.568 9.725,-4.061 13.85,-0.568 2.959,2.499 5.075,5.742 3.518,9.288 -4.904,11.184 -16.749,22.712 -12.287,25.435 10.254,6.251 46.912,-77.423 46.912,-77.423 20.753,0.02 -0.116,-0.234 20.243,-0.088 l -25.734,56.392 c 7.892,-2.886 15.084,-6.1 21.325,-8.818 3.831,7.089 3.238,6.404 3.802,5.86 7.833,-6.119 17.93,-10.675 27.474,-8.72 6.016,1.235 7.563,7.182 8.515,13.252 2.066,13.256 -27.308,21.074 -27.533,20.619 -0.793,2.264 9.994,12.566 19.072,4.512 2.014,-1.783 3.062,-3.478 20.442,-42.797 -20.457,-0.049 0.926,0 -19.576,0 l 8.388,-20.076 20.728,0.799 c 9.877,-20.673 -0.926,1.945 9.465,-20.365 l 19.242,-0.04 c 0,0 0.407,-1.023 -9.538,20.604 l 21.693,0.152 c -3.283,6.766 -4.919,12.934 -8.103,19.278 h -21.938 c -17.793,39.113 -15.025,36.448 -22.145,52.081 -0.509,1.107 1.274,3.032 1.274,3.032 H 480.25 c -0.682,-1.249 -2.146,-1.901 -1.024,-4.003 -10.553,6.306 -13.413,8.045 -21.016,6.462 -6.017,-1.93 -10.544,-6.221 -13.125,-12.923 -2.342,-6.075 -1.22,-12.159 0.26,-16.691 -9.764,4.307 0,0 -9.764,4.307 2.498,8.039 7.221,16.5 12.781,22.849 l -18.229,0.03 c -5.56,-3.969 -7.489,-10.759 -10.439,-16.54 -2.386,3.851 -6.016,8.721 -3.752,13.82 0.343,0.788 1.254,1.356 1.028,2.493 h -20.663 c -1.705,-2.606 -0.911,-6.457 -1.137,-9.288 -7.295,10.503 -14.07,12.565 -23.182,9.171 -13.522,-5.025 3.282,-29.413 8.504,-35.983 -2.949,-0.456 -5.07,0.309 -7.907,0.191 -6.813,12.121 -10.953,25.028 -22.848,33.641 -8.202,5.742 -22.222,9.402 -30.275,2.269 z"
         inkscape:connector-curvature="0"
         style="fill:#ee3124" />
      <path
         id="path49699"
         d="m 95.475,52.422 h -15.48 c 0.34,-3.513 13.616,-19.15 6.619,-17.994 -12.61,2.072 -34.45,35.802 -34.45,54.946 0,11.895 12.704,12.179 14.763,11.076 C 73.888,99.093 83.534,92.377 84.561,90.197 99.369,58.776 97.274,63.95 97.274,63.95 h 19.685 c 0,0 -14.043,27.895 -16.882,37.07 -0.453,1.701 1.818,2.269 2.499,2.719 3.064,0.682 5.109,-1.018 7.605,-2.719 7.149,-13.134 13.42,-27.498 20.002,-40.862 -8.304,0 4.718,0 -7.483,0 l 7.382,-18.351 c 11.175,0 -0.626,-0.093 9.681,0.059 l 11.28,-22.927 h 19.684 c -8.39,20.978 -1.332,1.499 -9.889,22.868 17.942,0 1.583,-0.049 19.116,-0.049 -8.407,19.174 1.026,-1.533 -7.381,17.842 -19.686,-0.103 -13.396,0.137 -19.527,0.255 l -22.408,48.186 c -0.568,3.175 0.542,5.551 1.903,7.594 l -21.795,0.338 c -1.475,-1.357 -1.247,-3.396 -1.703,-5.208 -6.128,5.663 -19.549,11.209 -24.894,3.018 -1.448,-2.219 -1.923,-4.918 -2.051,-8.406 -3.282,4.507 -14.549,13.697 -26.246,14.76 -15.171,1.387 -29.908,-1.788 -34.858,-17.631 -8.203,-26.248 2.942,-54.231 27.111,-72.024 13.492,-9.931 24.223,-15.119 40.703,-13.736 26.145,2.192 6.667,35.676 6.667,35.676 z"
         inkscape:connector-curvature="0"
         style="fill:#ee3124" />
      <path
         id="path49701"
         d="m 263.771,68.319 c 7.946,-10.259 35.645,-49.381 35.645,-49.381 h 26.444 l -13.62,30.128 -30.893,64.563 -21.664,-0.122 c 7.212,-16.383 -0.171,0.431 7.035,-16.079 0,0 -8.544,10.935 -13.198,16.147 l -18.587,-0.068 c 0.116,-6.228 1.703,-13.365 1.818,-19.816 -3.974,6.113 -6.927,13.251 -10.898,19.816 l -21.136,0.068 45.2,-94.976 24.462,-0.01 c 0.002,0.001 -7.66,34.44 -10.608,49.73 z"
         inkscape:connector-curvature="0"
         style="fill:#ee3124" />
      <path
         id="path49703"
         d="m 123.975,41.963 c -8.015,19.762 1.643,-2.871 -6.969,17.636 H 98.343 l 7.346,-17.911 z"
         inkscape:connector-curvature="0"
         style="fill:#ee3124" />
      <path
         id="path49705"
         d="m 179.751,62.675 -13.832,30.927 c 0,1.357 -0.113,2.837 1.362,3.287 3.747,1.02 4.996,-2.381 6.583,-4.644 L 187.802,62.91 c 24.652,-0.03 -0.876,-0.03 24.037,-0.03 l -37.747,79.991 -0.796,0.567 H 150.71 c -1.589,-1.699 0.453,-3.174 0.794,-4.644 4.2,-8.383 8.174,-16.878 11.691,-25.597 -2.151,1.808 -8.872,6.378 -19.123,1.356 -5.126,-3.282 -4.372,-14.495 -3.125,-18.686 L 156.636,62.82 Z"
         inkscape:connector-curvature="0"
         style="fill:#ee3124" />
      <path
         id="path49707"
         d="m 314.249,97.307 c 0.421,-8.025 10.444,-17.768 17.46,-21.272 2.675,-1.336 4.086,-0.886 3.606,1.514 -0.192,0.941 -0.652,2.161 -1.26,3.558 -0.603,1.396 -1.377,3.008 -2.19,4.727 l -4.57,8.313 c -0.063,0.255 -0.201,0.617 -0.427,1.107 -0.215,0.451 -0.686,1.391 -1.567,3.086 -5.281,10.19 -11.385,5.301 -11.052,-1.033 z"
         inkscape:connector-curvature="0"
         style="fill:#ffffff" />
      <path
         id="path49709"
         d="m 465.059,83.683 c -1.122,-1.661 0.239,-8.289 5.231,-10.788 0.401,-0.201 1.646,-0.798 2.998,-0.853 1.312,-0.059 2.719,0.387 3.605,2.292 2.333,5.028 -9.112,10.808 -11.834,9.349 z"
         inkscape:connector-curvature="0"
         style="fill:#ffffff" />
    </g>
  </g>
</svg>
