<svg id="Layer_1" data-name="Layer 1" xmlns="http://www.w3.org/2000/svg" viewBox="0 0 383.26 124.97"><defs><style>.cls-1{fill:#ed1c24;}</style></defs><title>Copps_RGB</title><path class="cls-1" d="M286.83,71.47" transform="translate(-0.36 -0.01)"/><path class="cls-1" d="M236.87,51.53c-7.28-10.71-21,3.86-21,3.86s-14.57,11.14-18,17.57c-11.14,2.14-90,16.28-149.09,6.42s-44.9-29.86-3-45.84c41.56-15.85,68.13-19.28,108.82-21,0,0,36.14,1.78,41.56,6.42a6.63,6.63,0,0,1,2.14,6.21C214.72,10.82,205.59-3.94,136.62,1,66.71,6,5.95,23.26.81,54.1s34.27,47.55,110.53,45,77.11-8.14,83.12-7.71A52.14,52.14,0,0,0,200,84.52c4.28,4.71,11.14,12,24,2.57S246.25,65.33,236.87,51.53Zm-17.57,27s-8.62,5.46-9.42,1.71c-2.58-12,9-16.28,12-17.57,0,0,.43-5.57,6.86-5.57C240.42,57.1,227,72.53,219.3,78.53Z" transform="translate(-0.36 -0.01)"/><path class="cls-1" d="M346.17,61.17c14.79-1.5,21.63.65,23.78,1.07-.43-4.29,4.35-9.78-15.2-9.42-24,.43-25.28,4.71-25.28,4.71C319,67.8,330.92,74.2,339.75,73.81c9.64-.43,11.57,3,11.57,3-7.72.86-24.42,0-27.85,1.29s-19.28,9.42,4.71,10.28c25.69.92,51.32-3,31.27-19.28L340.6,64.39S332,62.61,346.17,61.17Z" transform="translate(-0.36 -0.01)"/><path class="cls-1" d="M277.74,77.78c-7.13,4.94-17.63,9.06-27,12.31,0,0-.43,4.29-.85,13.71s4.7,24.42-4.72,20.56l-6-6c-2.13-23.47,1.29-46.26,4.28-61.26,2.86-14.29-.85-10.71,9-11.14,6-.26,4.71,4.29,3.86,7.71,3.42-1.28,18.13-4.89,26.56,4.71a13.67,13.67,0,0,1,2.91,4.89,9.23,9.23,0,0,1-1.42,8.2,21.58,21.58,0,0,1-4.56,4.76c-.66.53-1.36,1-2.09,1.55a.38.38,0,0,1,0,.08ZM265.33,59.24s-10.72,1.29-12,3c0,4.71-2.22,16.48,0,15.85C267,74.24,294,57.13,265.33,59.24Z" transform="translate(-0.36 -0.01)"/><path class="cls-1" d="M286.19,75.09s.26-1.42.64-3.62l1.42-8.2c.89-5.26,1.83-10.93,2.22-13.88,11.57-5.57,10.29,0,10.29,4.71C316.18,50.25,320,56.68,320,56.68,335,69.1,307.19,83,296.48,86.45c0,0-.22,3.21-.65,17.77-.44,15.23,6.43,20.35-8.35,15.43-5.59-1.87-2.57-29.13-2.57-35.13-4.17-3.42-5.23-5.4-4.75-6.66l0-.08a3.49,3.49,0,0,1,2.09-1.55C283.45,75.79,284.92,75.48,286.19,75.09Zm12,0c12.43-3,28.75-18.14,15-15.85-14.14,2.36-15,5.15-15,5.15S297.77,75.2,298.19,75.09Z" transform="translate(-0.36 -0.01)"/><path class="cls-1" d="M375.48,43.88v1.05h-2v5.31h-1.26V44.93h-2V43.88Zm6.88,6.37-.23-3.75c0-.49,0-1.08,0-1.78H382c-.16.56-.35,1.31-.54,1.9l-1.15,3.54H379l-1.12-3.63c-.12-.47-.33-1.24-.47-1.8h-.07c0,.58,0,1.22,0,1.78l-.23,3.75h-1.22l.47-6.37h1.92L379.32,47a14.45,14.45,0,0,1,.42,1.62h0c.14-.56.3-1.12.42-1.57l1.1-3.16h1.85l.47,6.37Z" transform="translate(-0.36 -0.01)"/></svg>