<svg xmlns="http://www.w3.org/2000/svg" width="302" height="282"><g fill-rule="evenodd"><path d="M260.956 85.352c-.279-4.787.566-12.391-.835-16.896H150.282c-6.182-19.152-5.057-39.426-1.408-59.419h137.652v30.414l-20.228-16.897c-34.274-1.124-66.574.428-101.121 0-5.07 9.296-4.785 18.024-2.819 27.594l3.38 2.255 102.527.52c4.495 4.85 10.367 3.983 15.378 8.73 3.647 28.16-2.808 58.025 9.503 82.508 3.367 10.739 9.849 23.903 7.257 35.197l-10.119 29.619h-48.587l6.175-15.481 15.45-3.946 8.143-12.953-20.785-18.865c-10.393 11.265-18.82 21.678-27.808 33.792l-1.961 17.453h-51.968c.273-4.5 1.678-10.128 4.206-14.638l14.614-4.79c11.796-21.68 25.557-38.299 35.109-60.828-16.859 6.198-33.996 14.926-51.12 22.25l-43.826-.564-13.483 24.784c2.808 11.605 21.598 19.4 10.713 33.23l-54.497.52 4.772-13.518c4.78-1.685 9.274-4.22 13.49-7.882-4.216-9.575-8.147-19.424-12.921-28.44-8.989 10.977-22.195 23.654-30.898 36.374l3.93 13.517H1.39c3.38-8.447 3.653-19.991 15.455-21.398 7.585-10.14 14.887-20.835 20.79-31.253-3.092-8.735-5.905-17.46-9.274-26.194-5.892 0-9.83 4.51-15.729 6.76 9.546-21.119 16.859-42.803 23.597-65.051-4.499-5.352-8.153-8.721-11.238-15.485 1.125-2.534 2.25-5.349 4.5-7.32 6.455 1.906 12.613 6.755 17.624 10.74 3.943-3.943 5.908-8.727 10.118-12.958l-1.971-1.123H20.22c-1.688 1.412-2.533 3.66-1.972 5.89-3.37 1.4-7.307.56-10.954.84l1.971-14.924c7.022.866 13.477-1.408 19.66-.849.568-8.165-6.456-13.51-6.744-22.24h30.336c1.688-1.688 1.688-5.071 3.938-5.918C77.524 9.895 100.862 9.72 119.378.905l3.938.845-6.183 19.4c1.967 2.598 4.494-1.407 6.739-1.972 5.057 23.037 1.728 45.38 5.53 65.616l131.554.558zM52.518 32.056c-4.767 1.412-12.352 1.98-16.854 4.505 6.46 0 13.478.52 19.665-.56-1.125-1.347-.916-3.598-2.816-3.877l.005-.068z"/><path d="M1 279.903v-49.42h27.22v9.882H12.571v8.76H26.97v9.891H12.572v20.889H1v-.002zm65.616-15.744c0 11.132-3.88 16.936-15.579 16.936-11.704 0-15.78-5.806-15.78-16.936v-20.104c0-9.49 5.652-14.758 15.78-14.758 10.119 0 15.551 5.197 15.551 14.758v20.104h.028zm-11.57-19.311c0-3.035-.263-6.66-4.076-6.66-3.68 0-4.14 3.625-4.14 6.66v20.298c0 2.771.518 7.102 4.147 7.044 3.744 0 4.007-4.215 4.007-7.044v-20.298h.062zm50.087 19.311c0 11.132-3.879 16.936-15.583 16.936-11.7 0-15.776-5.806-15.776-16.936v-20.104c0-9.49 5.657-14.758 15.776-14.758 10.13 0 15.55 5.197 15.55 14.758v20.104h.033zm-11.571-19.311c0-3.035-.263-6.66-4.076-6.66-3.675 0-4.14 3.625-4.14 6.66v20.298c0 2.771.518 7.102 4.147 7.044 3.75 0 4.012-4.215 4.012-7.044v-20.298h.057zm19.131 35.055v-49.42h12.556c4.206 0 9.33.174 12.96 2.305 4.473 2.598 5.183 7.447 5.183 12.124v22.013c-.064 4.941-1.576 8.565-4.923 10.675-3.027 1.978-6.713 2.303-10.26 2.303h-15.516zm11.57-8.821c7.756.52 7.825-2.636 7.628-9.23v-16.143c-.07-5.794-1.977-6.127-7.629-6.255v31.627zm44.762 8.821v-49.42h11.566v39.54h14.148v9.88h-25.714zm32.072 0v-49.42h11.577v49.42h-11.577zm50.875-15.744c0 11.132-3.873 16.936-15.573 16.936s-15.782-5.806-15.782-16.936v-20.104c0-9.49 5.652-14.758 15.782-14.758 10.119 0 15.551 5.197 15.551 14.758v20.104h.022zm-11.571-19.311c0-3.035-.26-6.66-4.076-6.66-3.68 0-4.137 3.625-4.137 6.66v20.298c0 2.771.519 7.102 4.147 7.044 3.74 0 4-4.215 4-7.044v-20.298h.066zm28.992 7.379l-.128.128 1.049 27.547h-10.98v-49.42h11.902l8.942 27.613h.197l-1.125-27.613h10.983v49.42h-11.83l-9.01-27.675z" fill="#005695"/></g></svg>