<?xml version="1.0" encoding="UTF-8" standalone="no"?>
<!-- Created with Inkscape (http://www.inkscape.org/) -->

<svg
   xmlns:dc="http://purl.org/dc/elements/1.1/"
   xmlns:cc="http://creativecommons.org/ns#"
   xmlns:rdf="http://www.w3.org/1999/02/22-rdf-syntax-ns#"
   xmlns:svg="http://www.w3.org/2000/svg"
   xmlns="http://www.w3.org/2000/svg"
   version="1.1"
   width="383"
   height="75"
   id="svg3025">
  <defs
     id="defs3027" />
  <metadata
     id="metadata3030">
    <rdf:RDF>
      <cc:Work
         rdf:about="">
        <dc:format>image/svg+xml</dc:format>
        <dc:type
           rdf:resource="http://purl.org/dc/dcmitype/StillImage" />
        <dc:title></dc:title>
      </cc:Work>
    </rdf:RDF>
  </metadata>
  <g
     transform="translate(0,-977.36218)"
     id="layer1">
    <path
       d="m 113.8798,1019.4017 c 2.62046,-15.1564 -4.08476,-25.84369 -18.011681,-25.84369 -12.060606,0 -22.712674,8.77109 -24.890038,22.48969 -2.227251,14.0443 5.889449,21.7002 17.952989,21.7002 8.75641,0 18.77757,-3.4303 23.00905,-13.7978 l -14.287853,0 c -1.470162,2.4738 -3.811856,3.6652 -6.182895,3.6652 -3.94684,0 -6.875425,-3.269 -6.088992,-8.2136 l 28.49942,0 z m -27.158374,-8.4541 c 0.707203,-4.4692 3.665133,-7.2599 8.116699,-7.2599 3.515476,0 6.059645,3.4275 5.449285,7.2599 l -13.565984,0 z"
       id="path560"
       style="fill:#ed1c24;fill-opacity:1;fill-rule:evenodd;stroke:none" />
    <path
       d="m 134.69212,1025.7833 c -4.88293,0 -5.07661,-5.1059 -4.37821,-9.493 0.73362,-4.6276 2.93152,-9.892 7.88488,-9.892 4.95336,0 5.59307,5.0238 4.85946,9.6514 -0.77177,4.8683 -3.19562,9.7336 -8.36613,9.7336 m 19.54346,10.7694 9.11148,-57.43602 -14.9305,0 -3.15161,19.86332 c -2.50308,-4.14932 -5.60187,-5.42287 -10.33808,-5.42287 -8.97649,0 -17.36903,9.01167 -19.56987,22.89167 -1.87805,11.8082 2.36224,21.3012 13.7039,21.3012 4.80957,0 8.30744,-1.6785 12.63576,-6.7845 l -0.88914,5.5872 13.42806,0 z"
       id="path564"
       style="fill:#ed1c24;fill-opacity:1;fill-rule:evenodd;stroke:none" />
    <path
       d="m 270.43233,1019.4017 c 2.62046,-15.1564 -4.08183,-25.84369 -18.01168,-25.84369 -12.06061,0 -22.71268,8.77109 -24.89004,22.48969 -2.23019,14.0443 5.88945,21.7002 17.95005,21.7002 8.75935,0 18.78051,-3.4303 23.01199,-13.7978 l -14.29079,0 c -1.46723,2.4738 -3.81185,3.6652 -6.17702,3.6652 -3.94978,0 -6.87836,-3.269 -6.09487,-8.2136 l 28.50236,0 z m -27.16131,-8.4541 c 0.71014,-4.4692 3.66807,-7.2599 8.11963,-7.2599 3.51548,0 6.05672,3.4275 5.44928,7.2599 l -13.56891,0 z"
       id="path568"
       style="fill:#ed1c24;fill-opacity:1;fill-rule:evenodd;stroke:none" />
    <path
       d="m 348.53194,1019.4017 c 2.62046,-15.1564 -4.08183,-25.84369 -18.01168,-25.84369 -12.05767,0 -22.71268,8.77109 -24.89004,22.48969 -2.22725,14.0443 5.88945,21.7002 17.95005,21.7002 8.75935,0 18.77757,-3.4303 23.00906,-13.7978 l -14.28492,0 c -1.46723,2.4738 -3.81186,3.6652 -6.18583,3.6652 -3.94391,0 -6.86956,-3.269 -6.08606,-8.2136 l 28.49942,0 z m -27.16131,-8.4541 c 0.71014,-4.4692 3.66807,-7.2599 8.11963,-7.2599 3.51548,0 6.05965,3.4275 5.44929,7.2599 l -13.56892,0 z"
       id="path572"
       style="fill:#ed1c24;fill-opacity:1;fill-rule:evenodd;stroke:none" />
    <path
       d="m 18.628303,1036.5522 3.20149,-20.1832 18.525207,0 2.124545,-13.4017 -18.522273,0 1.657966,-10.44662 23.261416,0 2.124545,-13.40166 -40.199084,0 -9.1173485,57.43318 16.9435365,0 z"
       id="path576"
       style="fill:#ed1c24;fill-opacity:1;fill-rule:nonzero;stroke:none" />
    <path
       d="m 40.095301,1036.5522 14.933436,0 2.291808,-14.4405 c 1.429079,-9.0117 5.023785,-12.2015 11.124515,-12.2015 1.006518,0 2.030642,0.317 3.01075,0.4784 l 2.632205,-16.59437 c -0.633842,-0.0763 -1.253012,-0.23769 -1.901526,-0.23769 -5.813153,0 -9.96834,3.11052 -13.087665,9.65146 l -0.143788,0 1.34398,-8.45714 -13.571849,0 -6.631866,41.80134 z"
       id="path580"
       style="fill:#ed1c24;fill-opacity:1;fill-rule:nonzero;stroke:none" />
    <path
       d="m 178.84332,1036.5522 3.08705,-19.4643 1.0564,-8.9325 0.62798,-8.45705 0.14378,0 3.55363,36.85385 11.77596,0 15.25329,-36.85385 0.14379,0 -2.50602,10.37035 -1.63743,8.9325 -2.78186,17.551 15.22101,0 9.11442,-57.43318 -20.46195,0 -14.80139,35.81498 -3.43331,-35.81498 -20.46194,0 -9.11442,57.43318 15.22101,0 z"
       id="path584"
       style="fill:#ed1c24;fill-opacity:1;fill-rule:nonzero;stroke:none" />
    <path
       d="m 284.82612,994.75233 -15.00093,0 6.30907,38.04817 c 0.77176,4.6305 -0.54581,6.1447 -5.21452,6.1447 -1.00065,0 -1.99543,-0.082 -3.07238,-0.082 l -1.83403,11.5677 c 1.15031,0 3.82653,0.3198 6.55264,0.3198 13.28427,0 15.50859,-4.0671 21.50661,-16.9905 l 18.24937,-39.00767 -14.36122,0 -10.61979,25.76447 -2.51482,-25.76447 z"
       id="path588"
       style="fill:#ed1c24;fill-opacity:1;fill-rule:nonzero;stroke:none" />
    <path
       d="m 347.46262,1036.5522 14.93344,0 2.2918,-14.4405 c 1.42908,-9.0117 5.02086,-12.2015 11.12452,-12.2015 1.00652,0 2.03358,0.317 3.01075,0.4784 l 2.63514,-16.59437 c -0.63384,-0.0763 -1.25595,-0.23769 -1.90153,-0.23769 -5.81315,0 -9.96834,3.11052 -13.08766,9.65146 l -0.14672,0 1.34398,-8.45714 -13.57185,0 -6.63187,41.80134 z"
       id="path592"
       style="fill:#ed1c24;fill-opacity:1;fill-rule:nonzero;stroke:none" />
    <path
       d="m 373.12471,1031.6701 0.70134,0 c 0.7923,0 1.46722,-0.2905 1.46722,-1.0359 0,-0.534 -0.38147,-1.0622 -1.46722,-1.0622 -0.31399,0 -0.53407,0.023 -0.70134,0.047 l 0,2.0512 z m 0,3.3541 -0.96543,0 0,-6.0597 c 0.50179,-0.07 0.98891,-0.1437 1.71372,-0.1437 0.91555,0 1.51711,0.1936 1.87805,0.4607 0.36387,0.2641 0.55755,0.6749 0.55755,1.253 0,0.7981 -0.53114,1.2823 -1.18259,1.4731 l 0,0.047 c 0.53114,0.1 0.89207,0.5781 1.01239,1.4731 0.14672,0.942 0.29051,1.3058 0.38735,1.4966 l -1.01239,0 c -0.14379,-0.1908 -0.29345,-0.7483 -0.41082,-1.5435 -0.14673,-0.7747 -0.53114,-1.0623 -1.3029,-1.0623 l -0.67493,0 0,2.6058 z m 1.01239,-7.744 c -2.39158,0 -4.34299,2.0482 -4.34299,4.5836 0,2.5823 1.95141,4.6071 4.36647,4.6071 2.41212,0.026 4.34299,-2.0248 4.34299,-4.5836 0,-2.5589 -1.93087,-4.6071 -4.34299,-4.6071 l -0.0293,0 z m 0.0293,-0.8452 c 2.96967,0 5.33191,2.4151 5.33191,5.4288 0,3.0665 -2.36224,5.4551 -5.35538,5.4551 -2.96967,0 -5.38179,-2.3886 -5.38179,-5.4551 0,-3.0137 2.41212,-5.4288 5.38179,-5.4288 l 0.0293,0 z"
       id="path596"
       style="fill:#ed1c24;fill-opacity:1;fill-rule:nonzero;stroke:none" />
  </g>
</svg>
