<svg xmlns="http://www.w3.org/2000/svg" width="383" height="75"><g fill="#ed1c24"><path d="M113.88 42.04c2.62-15.157-4.085-25.844-18.012-25.844-12.06 0-22.713 8.77-24.89 22.49-2.227 14.044 5.89 21.7 17.953 21.7 8.756 0 18.778-3.43 23.01-13.798h-14.29c-1.47 2.474-3.812 3.665-6.183 3.665-3.946 0-6.875-3.269-6.089-8.213h28.5zm-27.16-8.455c.708-4.469 3.666-7.26 8.117-7.26 3.516 0 6.06 3.428 5.45 7.26H86.72zm47.972 14.836c-4.883 0-5.076-5.106-4.378-9.493.734-4.627 2.931-9.892 7.885-9.892 4.953 0 5.593 5.024 4.86 9.652-.773 4.868-3.196 9.733-8.367 9.733m19.544 10.77l9.111-57.436h-14.93l-3.152 19.863c-2.503-4.15-5.602-5.423-10.338-5.423-8.977 0-17.37 9.012-19.57 22.892-1.878 11.808 2.362 21.3 13.704 21.3 4.81 0 8.307-1.678 12.636-6.784l-.89 5.588h13.429zM270.432 42.04c2.62-15.157-4.082-25.844-18.011-25.844-12.061 0-22.713 8.77-24.89 22.49-2.23 14.044 5.89 21.7 17.95 21.7 8.759 0 18.78-3.43 23.012-13.798h-14.291c-1.467 2.474-3.812 3.665-6.177 3.665-3.95 0-6.879-3.269-6.095-8.213h28.502zm-27.161-8.455c.71-4.469 3.668-7.26 8.12-7.26 3.515 0 6.056 3.428 5.449 7.26h-13.57zm105.261 8.455c2.62-15.157-4.082-25.844-18.012-25.844-12.057 0-22.712 8.77-24.89 22.49-2.227 14.044 5.89 21.7 17.95 21.7 8.76 0 18.778-3.43 23.01-13.798h-14.286c-1.467 2.474-3.811 3.665-6.185 3.665-3.944 0-6.87-3.269-6.086-8.213h28.499zm-27.161-8.455c.71-4.469 3.668-7.26 8.12-7.26 3.515 0 6.059 3.428 5.449 7.26h-13.57z" fill-rule="evenodd"/><path d="M18.628 59.19l3.202-20.183h18.525l2.125-13.402H23.957l1.658-10.446h23.262L51 1.757H10.802L1.685 59.19h16.943z"/><path d="M40.095 59.19H55.03l2.292-14.44c1.429-9.012 5.023-12.202 11.124-12.202 1.007 0 2.03.317 3.01.478l2.633-16.594c-.634-.076-1.253-.238-1.902-.238-5.813 0-9.968 3.11-13.087 9.652h-.144l1.344-8.457H46.727L40.095 59.19zm138.748 0l3.087-19.464 1.057-8.933.628-8.457h.144l3.553 36.854h11.776l15.253-36.854h.144l-2.506 10.37-1.637 8.933-2.782 17.551h15.22l9.115-57.433h-20.462l-14.801 35.815-3.433-35.815h-20.462l-9.115 57.433h15.221zm105.983-41.8h-15l6.308 38.048c.772 4.63-.546 6.145-5.214 6.145-1 0-1.996-.082-3.073-.082l-1.834 11.568c1.15 0 3.827.32 6.553.32 13.284 0 15.509-4.068 21.507-16.991l18.249-39.008h-14.361l-10.62 25.765-2.515-25.765zm62.637 41.8h14.933l2.292-14.44c1.429-9.012 5.02-12.202 11.124-12.202 1.007 0 2.034.317 3.011.478l2.635-16.594c-.634-.076-1.256-.238-1.901-.238-5.813 0-9.969 3.11-13.088 9.652h-.147l1.344-8.457h-13.572l-6.631 41.801zm25.662-4.882h.701c.792 0 1.467-.29 1.467-1.036 0-.534-.381-1.062-1.467-1.062a4.77 4.77 0 0 0-.701.047v2.051zm0 3.354h-.966v-6.06c.502-.07.99-.143 1.714-.143.916 0 1.517.193 1.878.46.364.264.558.675.558 1.253 0 .798-.532 1.283-1.183 1.473v.047c.531.1.892.579 1.012 1.474.147.942.29 1.305.388 1.496h-1.013c-.143-.19-.293-.748-.41-1.543-.147-.775-.532-1.063-1.303-1.063h-.675v2.606zm1.012-7.744c-2.391 0-4.343 2.048-4.343 4.584 0 2.582 1.952 4.607 4.367 4.607 2.412.026 4.343-2.025 4.343-4.584 0-2.559-1.931-4.607-4.343-4.607h-.03zm.03-.845c2.97 0 5.331 2.415 5.331 5.429 0 3.066-2.362 5.455-5.355 5.455-2.97 0-5.382-2.389-5.382-5.455 0-3.014 2.412-5.43 5.382-5.43h.03z"/></g></svg>