<svg xmlns="http://www.w3.org/2000/svg" height="107.732" width="187.733" viewBox="0 0 176 101"><g fill-rule="evenodd"><path d="M3.44 49.02l7.5-11.85h12.436c1.322-22.333 16.292-25.669 22.029-26.171 7.158-.627 18.418 5.206 16.696 13.304-.647 5.126-3.438 6.33-6.696 6.607-9.045.77-8.825-5.02-9.375-7.545-.356-1.629-.886-1.693-2.054-.044-2.432 3.696-2.431 12.066-2.5 13.85h126.88l-6.954 12H41.782l-.1 35.8-18-.05v-35.9z"/><path d="M1.96 47.95l7.5-11.85h12.436c1.322-22.333 16.292-25.669 22.029-26.171 7.158-.626 18.418 5.206 16.696 13.304-.647 5.126-3.438 6.33-6.696 6.607-9.045.77-8.825-5.02-9.375-7.544-.356-1.63-.886-1.694-2.054-.045-2.432 3.696-2.431 12.066-2.5 13.85h126.88l-6.954 12H40.302l-.1 35.8-18-.05v-35.9z" fill="#ed1b24"/><path d="M75.34 67.37c3.954.024 7.408-3.938 7.45-7.45.044-3.78-2.59-8.066-7.829-8.207-1.714-.047-6.202.344-8.712 2.525h-2.02v-.932H49.706V84.92h15.606s.247-20.06.09-21.923c-.091-1.07 1.505-3.637 1.878-2.616 2.013 5.496 5.367 6.972 8.06 6.989z"/><path d="M73.74 66.14c3.954.024 7.408-3.938 7.45-7.45.045-3.78-2.59-8.066-7.829-8.207-1.714-.047-6.202.344-8.712 2.525h-2.02v-.932H48.106V83.69h15.606s.247-20.06.09-21.923c-.091-1.07 1.505-3.637 1.878-2.616 2.013 5.496 5.367 6.972 8.06 6.989z" fill="#ed1b24"/><path d="M84.24 53.99h15.004V73.7c.757.708 1.994 1.428 3.137 1.387 1.098-.039 2.041-.236 2.913-1.544V53.9h14.75v35.804l-14.5 3.393V81.4c-2.418 2.374-5.123 4.832-9.518 4.732-7.18-.163-11.43-5.484-11.533-13.242z"/><path d="M82.95 52.25h15.004v19.71c.757.708 1.994 1.428 3.137 1.387 1.098-.039 2.041-.236 2.913-1.544V52.16h14.75v35.804l-14.5 3.393V79.66c-2.418 2.374-5.123 4.832-9.518 4.732-7.18-.163-11.43-5.484-11.533-13.242z" fill="#ed1b24"/><path d="M125.5 53.31l7.513 11.932 7.197-12.059z"/><path d="M124 52.26l7.513 11.932 7.197-12.059z" fill="#ed1b24"/><path d="M147.23 76.93c-2.437-.455-5.48-1.92-6.83-2.946l-2.634 6.83c5.37 2.43 11.478 5.24 17.589 5.179 6.97-.07 16.012-4.688 16.16-11.25.255-11.232-10.512-12.127-16.461-13.511-.684-.16-1.4-.54-1.537-1.169-.15-.686.309-1.687.99-1.86 4.587-1.164 10.133-.283 15.758 2.165l1.25-5.09c-4.598-1.856-9.71-3.859-14.82-3.928-6.75-.091-15.314 2.829-17.412 9.554-1.205 3.866-1.257 8.595 4.688 10.938 3.835 1.51 7.651 2.048 12.009 2.544.809.093 2.016 1.342 1.875 2.143-.25 1.421-7.141 1.053-10.625.402z"/><path d="M145.62 75.68c-2.437-.455-5.48-1.92-6.83-2.946l-2.634 6.83c5.37 2.43 11.478 5.24 17.589 5.179 6.97-.07 16.012-4.688 16.16-11.25.255-11.232-10.512-12.127-16.461-13.511-.684-.16-1.4-.54-1.537-1.169-.15-.686.309-1.687.99-1.86 4.587-1.164 10.133-.283 15.758 2.165l1.25-5.09c-4.598-1.856-9.71-3.859-14.82-3.928-6.75-.091-15.314 2.829-17.412 9.554-1.205 3.866-1.258 8.595 4.688 10.938 3.835 1.51 7.651 2.048 12.009 2.544.809.093 2.016 1.342 1.875 2.143-.25 1.421-7.141 1.053-10.625.402z" fill="#ed1b24"/></g></svg>