<svg id="Layer_1" data-name="Layer 1" xmlns="http://www.w3.org/2000/svg" xmlns:xlink="http://www.w3.org/1999/xlink" viewBox="0 0 958.75 465.05"><defs><style>.cls-1{fill:url(#linear-gradient);}.cls-2,.cls-3,.cls-4{stroke:#ca1626;stroke-width:2.83px;}.cls-2{fill:url(#linear-gradient-2);}.cls-3{fill:url(#linear-gradient-3);}.cls-4{fill:url(#linear-gradient-4);}</style><linearGradient id="linear-gradient" x1="1801.66" y1="708.29" x2="1856.71" y2="656.76" gradientUnits="userSpaceOnUse"><stop offset="0" stop-color="#fff"/><stop offset="0.08" stop-color="#ca1626"/><stop offset="0.2" stop-color="#fff"/><stop offset="0.24" stop-color="#ca1626"/><stop offset="0.92" stop-color="#ca1626"/><stop offset="0.96" stop-color="#fff"/><stop offset="0.99" stop-color="#ca1626"/></linearGradient><linearGradient id="linear-gradient-2" x1="1227.7" y1="811.42" x2="1474.92" y2="580" gradientTransform="translate(-1307.67 -646.26) scale(2)" xlink:href="#linear-gradient"/><linearGradient id="linear-gradient-3" x1="1094.56" y1="698.21" x2="1268.29" y2="535.58" gradientTransform="translate(-1307.67 -646.26) scale(2)" xlink:href="#linear-gradient"/><linearGradient id="linear-gradient-4" x1="1233.93" y1="847.65" x2="1774.07" y2="342.03" xlink:href="#linear-gradient"/></defs><title>Gerbes_Logo_RGB</title><path d="M1492.69,770.1c.06,2.18,1.14,6.34,8.29,6.34,3.88,0,8.19-.93,8.19-5.08,0-3.06-2.93-3.88-7.09-4.87l-4.19-1c-6.34-1.48-12.45-2.9-12.45-11.53,0-4.37,2.35-12.07,15.07-12.07,12,0,15.23,7.86,15.28,12.67h-7.86c-.22-1.75-.87-5.9-8-5.9-3.11,0-6.83,1.15-6.83,4.7,0,3.06,2.52,3.71,4.15,4.09l9.56,2.35c5.36,1.32,10.27,3.49,10.27,10.54,0,11.8-12,12.84-15.46,12.84-14.31,0-16.77-8.25-16.77-13.11Z" transform="translate(-907.04 -365.02)"/><path d="M1548.91,782.17h-7.32v-4.1h-.11a9.57,9.57,0,0,1-8.85,4.86c-5.73,0-9.88-3.28-9.88-10.7V753.11h7.64v18c0,4.48,2.62,5.35,5,5.35,2.51,0,5.9-1.42,5.9-6.61V753.11h7.65Z" transform="translate(-907.04 -365.02)"/><path d="M1563.23,757.32h.1c1.42-2.29,3.54-5,8.68-5,6.39,0,12.07,4.92,12.07,15,0,8-3.61,15.62-12.23,15.62-5.36,0-7.26-2.89-8.19-4.48h-.11v15h-7.65V753.11h7.33Zm6.71,19.33c4.92,0,6.28-5.35,6.28-8.79,0-4.59-1.63-8.91-6.51-8.91-5.23,0-6.48,4.7-6.48,9.34C1563.23,772.61,1565.08,776.65,1569.94,776.65Z" transform="translate(-907.04 -365.02)"/><path d="M1614.4,773.65c-2,7-7.81,9.28-12.78,9.28-8.2,0-14.47-3.93-14.47-15.89,0-3.49,1.2-14.69,13.92-14.69,5.75,0,13.65,2.73,13.65,16v1.36H1594.8c.22,2.19.65,7.1,6.83,7.1,2.13,0,4.31-1.09,4.91-3.17Zm-7.54-8.9c-.44-4.69-3.44-6.12-5.89-6.12-3.61,0-5.52,2.29-6,6.12Z" transform="translate(-907.04 -365.02)"/><path d="M1619.77,753.11h7.32v5h.11c1.58-2.95,3.32-5.79,8-5.79a13.88,13.88,0,0,1,1.48.11v7.76a13.74,13.74,0,0,0-2.18-.11c-6,0-7,3.71-7,6.94v15.13h-7.65Z" transform="translate(-907.04 -365.02)"/><path d="M1694.49,782.17h-7.65V749.4h-.11l-7.32,32.77h-8l-7.15-32.77h-.11v32.77h-7.65V743h12l7.1,30.91h.11l7-30.91h11.86Z" transform="translate(-907.04 -365.02)"/><path d="M1725.3,776.48c0,3.44.78,4.21,1.7,4.54v1.15h-8.25a12.69,12.69,0,0,1-.72-3.44,11.85,11.85,0,0,1-9.39,4.2c-4.37,0-8.85-2.46-8.85-8.46,0-5.69,3.6-8.58,8.46-9.29l6.89-1c1.2-.16,2.67-.65,2.67-2.3,0-3.22-3.06-3.38-5-3.38-3.83,0-4.47,2.35-4.7,4h-7.37c.88-8.9,7-10.16,13-10.16,4.1,0,11.57,1.26,11.57,8.41Zm-7.48-8.46c-.77.6-2,1.09-5.18,1.58-2.85.49-5.2,1.2-5.2,4.37a3.34,3.34,0,0,0,3.55,3.5c3.39,0,6.83-2.19,6.83-5.74Z" transform="translate(-907.04 -365.02)"/><path d="M1732.09,753.11h7.32v5h.12c1.58-2.95,3.33-5.79,8-5.79a13.89,13.89,0,0,1,1.47.11v7.76a13.62,13.62,0,0,0-2.18-.11c-6,0-7,3.71-7,6.94v15.13h-7.65Z" transform="translate(-907.04 -365.02)"/><path d="M1761.26,782.17h-7.66V743h7.66v21.19l9.61-11h9.4L1770,764.36l10.54,17.8h-9.18l-6.93-12.45-3.17,3.28Z" transform="translate(-907.04 -365.02)"/><path d="M1808.73,773.65c-2,7-7.81,9.28-12.78,9.28-8.18,0-14.46-3.93-14.46-15.89,0-3.49,1.2-14.69,13.93-14.69,5.73,0,13.65,2.73,13.65,16v1.36h-19.94c.22,2.19.67,7.1,6.83,7.1,2.13,0,4.32-1.09,4.92-3.17Zm-7.53-8.9c-.44-4.69-3.43-6.12-5.9-6.12-3.6,0-5.51,2.29-6,6.12Z" transform="translate(-907.04 -365.02)"/><path d="M1822.73,753.11h4.76v5.46h-4.76v15.78c0,1.7.06,2.35,3.17,2.35.49,0,1-.05,1.59-.11v5.79c-1.21.05-2.41.1-3.62.1h-1c-6.6,0-7.81-2.52-7.81-6.28V758.57h-3.94v-5.46h3.94v-7.87h7.64Z" transform="translate(-907.04 -365.02)"/><path d="M1848.77,762c-.32-1.85-1-3.82-5.14-3.82s-4.69,1.58-4.69,2.83c0,4.59,18.19,1.26,18.19,12,0,8.47-8.19,10-12.73,10-6.62,0-13.76-2.29-14-10h7.86c0,2.45,1.53,4.26,6.34,4.26,3.92,0,4.85-1.91,4.85-3,0-4.85-18-1.2-18-12.07,0-4.26,2.68-9.72,11.74-9.72,5.68,0,12.45,1.42,13.06,9.61Z" transform="translate(-907.04 -365.02)"/><path class="cls-1" d="M1825.78,693.6H1821V671.37h8.29c5.73,0,9.12,1.65,9.12,6.72,0,4.1-2.41,5.57-5.36,5.79l5.68,9.72h-5.62l-5.14-9.34h-2.23Zm4.2-13.11c2.14,0,3.39-.43,3.39-2.89,0-2.29-2.45-2.46-4.26-2.46h-3.33v5.35Zm-.77,22.67c-11,0-20.74-7.59-20.74-20.64s9.77-20.65,20.74-20.65,20.7,7.6,20.7,20.65S1840.14,703.16,1829.22,703.16Zm0-36.48c-8.18,0-14.8,6.34-14.8,15.84s6.62,15.89,14.8,15.84v.05c8,0,14.75-6.39,14.75-15.89S1837.2,666.68,1829.22,666.68Z" transform="translate(-907.04 -365.02)"/><path class="cls-2" d="M1062,772.7l-34.92,54.88s262-80.68,461.55-108.21,265.8-26.67,265.8-26.67l14.62-23.22s-144.52,8.6-328.59,31S1062,772.7,1062,772.7Z" transform="translate(-907.04 -365.02)"/><path class="cls-3" d="M1098.68,510.35l37.15-5.5s54.36-101.16-28.21-100.3-150.53,74-183.21,166-14.11,190.26,46.28,192.33,93.07-47,93.07-47l-1.55,24.25,36.82-5.33s5.16-44.72,12.9-75.7S1130,598.94,1130,598.94l-100.81,17.37-12.39,41.29,41.8-4.47S1022.29,714,985.82,712s-22.71-95,1.38-144.84,80-120.62,113.54-122.14C1138.58,443.26,1098.68,510.35,1098.68,510.35Z" transform="translate(-907.04 -365.02)"/><path class="cls-4" d="M1189.51,638.34s29.93-5,42.84-32.51,9.46-37,0-41.29-42.15,11.19-48.18,55.05,6,59.35,23.23,59.35c25.81,0,53.33-31,68-63.65s18.92-58.49,18.92-58.49l-6.88-17.2,28.73-16.18s22.88,25.64,41.81,30.8,25.8-7.75,33.54-4.3,1.72,16.34-7.75,36.13-30.11,55.91-16.34,56.77,44.74-24.08,44.74-24.08-12-86.88,54.18-168.6,112.69-93.75,132.46-77.41,24.08,68-45.59,139.34-93.92,91.87-93.92,91.87.18,34.49,18.23,36.3c25.81,2.58,46.45-39.57,46.45-39.57s-12.89-24.94-6.87-35.26,15.48-23.22,31-23.22c22.36,0,14.45,32.85,14.45,32.85s3.62,3.27,7.92,3.27,12-1.9,12-1.9,7.74-58.31,56.77-76.38,88.6-13.76,91.19,42.15S1684.79,605,1667.59,605a83.57,83.57,0,0,1-31.83-6.88s-18.06,37,12.9,40.43,80-17.2,119.56-64.51,43.35-49.21,43.35-49.21-9.8-39.39,4-50.57,34.41-23.22,35.27,1.72-8.26,29.58-8.26,29.58,26.32,36.65,21.16,71.05-15.48,68-55.05,68-47.3-23.22-47.3-23.22l3.44-22.37s-64.52,65.38-116.12,65.38-62.79-40.43-62.79-40.43-2.59-17.2-8.6-18.92-22.36-2.58-22.36-2.58-47.31,80-89.47,80-49-38.71-49-38.71-45.59,37.85-68,37.85c-30.1,0-42.15-34.41-28.38-63.66s15.31-38,15.31-38l-15.31-4.13s-49.89,139.34-120.43,139.34-72.94-77.93-63.13-109.06,46.79-85.32,101-71.57,31.42,75.38,24.08,85.16C1248.69,636.79,1214.63,667.42,1189.51,638.34ZM1535.13,500c19.79-19.79,46.55-69.86,37.84-74.83-12-6.89-37,10.31-67.09,46.44-34.26,41.12-42.15,96.34-42.15,96.34S1515.34,519.81,1535.13,500Zm149.66,62.79c7.73-5.16,26.67-28.39,13.94-36s-34.58,11.87-43.19,22.19-16.36,36.13-16.36,36.13C1668.45,586,1677,568,1684.79,562.82Zm109,34.19c6.88,2.58,14.79-.86,22.36-15.49s-10.31-41.81-10.31-41.81l-27.52,36.64S1786.95,594.43,1793.82,597Z" transform="translate(-907.04 -365.02)"/></svg>