<svg xmlns="http://www.w3.org/2000/svg" width="176.443" height="89.255" viewBox="0 0 46.684 23.615"><path d="M46.324 7.18c0-1.425.263-2.857-1.873-3.63C41.953 2.647 31.237.932 23.57.932S5.187 2.647 2.689 3.55C.553 4.323.816 5.755.816 7.18v9.896c0 1.426-.263 2.857 1.873 3.63 2.498.903 13.214 2.618 20.88 2.618 7.668 0 18.384-1.715 20.882-2.618 2.136-.773 1.873-2.204 1.873-3.63V7.18"/><path d="M45.873 6.602c0-1.426.263-2.858-1.873-3.63C41.502 2.068 30.786.354 23.119.354S4.736 2.068 2.238 2.972C.102 3.744.365 5.176.365 6.602v9.895c0 1.426-.263 2.857 1.873 3.63 2.498.903 13.214 2.618 20.88 2.618 7.668 0 18.384-1.715 20.882-2.618 2.136-.773 1.873-2.204 1.873-3.63V6.602" fill="#d00a2c"/><path d="M45.873 6.602c0-1.426.263-2.858-1.873-3.63C41.502 2.068 30.786.354 23.119.354S4.736 2.068 2.238 2.972C.102 3.744.365 5.176.365 6.602v9.895c0 1.426-.263 2.857 1.873 3.63 2.498.903 13.214 2.618 20.88 2.618 7.668 0 18.384-1.715 20.882-2.618 2.136-.773 1.873-2.204 1.873-3.63z" fill="none" stroke="#d00a2c" stroke-width=".179"/><path d="M45.404 22.277c.148 0 .28-.011.28-.189 0-.143-.13-.17-.251-.17h-.24v.359zm-.21.65h-.175V21.77h.44c.273 0 .409.1.409.329 0 .207-.13.297-.3.318l.329.51H45.7l-.305-.502h-.202zm.212.257c.454 0 .812-.356.812-.838 0-.475-.358-.834-.812-.834a.812.812 0 0 0-.817.834c0 .482.359.838.817.838m-1.018-.838c0-.576.466-1 1.018-1a1 1 0 0 1 1.013 1c0 .58-.466 1.005-1.013 1.005a1.002 1.002 0 0 1-1.018-1.005M34.745 12.657v6.3h5.646v-1.421h-2.928v-1.115h2.576v-1.412h-2.576v-.94h2.928v-1.412zM34.219 18.956v-1.42H31.42v-4.879h-2.718v6.3zM14.3 16.669l.956-2.407.963 2.407zm.08-4.035l-2.468 6.33h1.475l.352-.884h3.044l.354.885h2.934l-2.517-6.331zM27.612 15.13H23.77v1.425h1.12v1.216c-.101.009-.201.015-.298.015-1.162 0-2.13-.749-2.13-2.012s.968-2.012 2.13-2.012c.761 0 1.682.277 2.257.815l.752-1.158c-.827-.655-2.024-1.014-3.357-1.014-2.499 0-4.524 1.262-4.524 3.376 0 2.195 2.025 3.377 4.524 3.377 1.333 0 2.53-.336 3.357-.982l.01-3.046M34.416 4.85v1.412h2.057v4.888h2.718V6.262h2.327V4.85zM16.71 11.15h-2.718V4.842h2.719zM19.838 8.854l.957-2.406.962 2.406zm.081-4.035l-2.468 6.331h1.474l.352-.884h3.044l.354.884h2.934l-2.516-6.33zM32.453 4.837v3.728l-3.83-3.728h-2.46v6.313h1.412V7.612l3.634 3.538h2.655V4.837zM12.675 7.346H8.832v1.426h1.12v1.215a3.385 3.385 0 0 1-.297.015c-1.163 0-2.13-.749-2.13-2.012s.967-2.012 2.13-2.012c.76 0 1.681.278 2.256.815l.754-1.158c-.828-.655-2.026-1.014-3.358-1.014-2.499 0-4.524 1.262-4.524 3.377 0 2.194 2.025 3.376 4.524 3.376 1.332 0 2.53-.336 3.358-.982l.01-3.046M11.556 14.068v-1.41H5.91v6.289H11.556v-1.41H8.628V16.42h2.576v-1.412H8.628v-.94z"/><path d="M34.403 12.335v6.299h5.646v-1.42h-2.927v-1.115h2.575v-1.412h-2.575v-.94h2.927v-1.412zM33.878 18.634v-1.42h-2.799v-4.879H28.36v6.299zM13.958 16.347l.957-2.407.962 2.407zm.081-4.035l-2.468 6.33h1.475l.351-.884h3.044l.354.885h2.934l-2.516-6.331zM27.27 14.808h-3.842v1.425h1.12v1.216c-.1.009-.2.015-.297.015-1.163 0-2.13-.749-2.13-2.012s.967-2.012 2.13-2.012c.76 0 1.682.278 2.256.815l.753-1.158c-.828-.655-2.025-1.014-3.357-1.014-2.499 0-4.525 1.262-4.525 3.377 0 2.194 2.026 3.376 4.525 3.376 1.332 0 2.53-.336 3.357-.982l.01-3.046M34.075 4.528V5.94h2.057v4.888h2.718V5.94h2.327V4.528zM16.37 10.828h-2.72V4.521h2.72zM19.497 8.533l.956-2.407.962 2.407zm.08-4.036l-2.468 6.331h1.475l.352-.884h3.044l.353.884h2.935l-2.517-6.33zM32.112 4.516v3.727l-3.83-3.727h-2.46v6.313h1.412v-3.54l3.634 3.54h2.655V4.516zM12.333 7.024H8.491V8.45h1.12v1.215a3.385 3.385 0 0 1-.298.015c-1.162 0-2.13-.749-2.13-2.012s.968-2.012 2.13-2.012c.761 0 1.682.278 2.257.815l.753-1.158C11.495 4.658 10.298 4.3 8.966 4.3c-2.5 0-4.525 1.262-4.525 3.377 0 2.195 2.026 3.376 4.525 3.376 1.332 0 2.53-.336 3.357-.982l.01-3.046M11.214 13.746v-1.411H5.568v6.29H11.214v-1.411H8.287v-1.115h2.576v-1.411H8.287v-.942z" fill="#fff"/></svg>