<svg xmlns="http://www.w3.org/2000/svg" id="Layer_1" width="219.2024" height="44.8027">
  <style type="text/css">
    .st0{fill:#007549;} .st1{fill:#E48F00;} .st2{fill:#EB0029;} .st3{fill:#5B87DA;} .st4{fill:#FFFFFE;}
  </style>
  <path d="M219.2024 37.4806c0 4.0442-3.2786 7.322-7.323 7.322H15.9744c-4.044 0-7.3227-3.2778-7.3227-7.322v-.6493c0-4.0438 3.2786-7.322 7.3227-7.322h195.9052c4.0443 0 7.323 3.2782 7.323 7.322v.6493z" class="st0"/>
  <path d="M9.1706 11.6c-.1875-.081-1.2163-.487-2.2745-.3278-1.058.1598-1.797.5072-2.347.8985-.551.3918-.797.9133-.841 1.2757-.043.3617.044.8258.508 1 .464.174.638.2025.855.159.218-.0432.711-.3043 1.465-.5362.754-.232 1.609-.4784 2.783-.536 1.086-.0538 1.986.0576 2.798.4636s1.261.696 1.391.9275c.131.2322.213.4547-.058.5796-.188.087-.279.074-.463.014-.797-.261-1.759-.495-2.826-.348-1.159.16-1.681.522-1.913.754-.232.232-.448.725-.217 1.131.232.405.464.564.899.608.435.043 1.174.029 1.985-.174.812-.204 1.841-.493 2.551-.58.71-.087 1.015-.044 1.363.014.348.058.696.159.913.289.217.131.304.145.304.145l-.159.71s-.231-.043-.71-.043c-.609 0-1.203.275-1.507.681s-.449.768-.304 1.145c.145.376.435.477.769.521.333.043.711 0 .711 0s1.399-.476 1.648-.542c.25-.067.685-.038.859.006.174.044 1.073.521 1.87 1.304.797.782 1.072 1.217 1.449 1.927.377.709.967 2.335.783 3.158-.16.71-.464 1.116-.986 1.364-.332.155-.956.042-1.652-.262-.695-.305-2.319-1.276-3.318-1.913-1-.639-4.276-2.972-5.942-4.319-1.667-1.348-3.029-2.508-4.624-4.189-1.594-1.682-2.434-2.826-3.072-3.884-.638-1.059-.986-2.218-.551-2.986.435-.769 1.058-.899 1.566-.899s1.595.159 3.087.782c1.493.623 2.204.951 2.363.932.16-.02.231-.147.174-.235-.058-.088-.333-.407-1.058-.856-.724-.449-3.101-1.768-4.42-1.855C1.7 7.819.962 8.08.729 8.268c-.2314.189-.811.856-.71 2.131.1015 1.275.29 2.203 1.014 3.449.725 1.247 1.073 1.666 2.493 3.203 1.421 1.536 2.856 3.072 5.6386 5.492 2.783 2.421 4.783 3.521 6.609 4.551 1.826 1.03 3.5656 1.565 4.5077 1.536.942-.029 1.6955-.202 1.9856-.942.29-.738.26-1.188-.073-2.565-.333-1.376-1.145-2.768-1.84-3.666-.696-.898-1.233-1.319-1.798-1.71s-1.334-.623-1.551-.667c-.218-.043-1.478.624-1.478.624l-.029-.435s-.605.391-1.058.449c-.45.058-.697-.3474-.421-.811.299-.505.841-.478 1.087-.464.246.014.667.232.667.232l.507-1.957s-.696-.464-1.652-.522c-1.492-.0905-3.142.662-3.913.869-1.406.3775-1.537-.174-1.522-.4344.041-.7444.942-1.13 1.579-1.058.779.089 2.246.435 2.652.449.406.015.899.015 1.058-.405.159-.42-.059-.913-.595-1.391-.536-.4786-1.497-1.166-2.319-1.319-2.102-.3915-3.841.087-5.652.7244-.879.3096-1.131.087-1.073-.319.062-.432.518-.849 1.406-1.145 1.087-.362 1.464-.333 1.898-.319.434.015.984.147 1.028.132.044-.0157.088-.0877.073-.1894-.015-.101-.074-.194-.074-.194" class="st1"/>
  <path d="M14.7293 6.698s-.137.0528-.2237-.005c-.0875-.0585-.2323-.2176-.4206-.3335-.1884-.1155-.6095-.2766-1.1884-.3043-1.2176-.0577-1.6815.3478-2.0435.9275-.588.9413-.346 2.396.058 3.435.406 1.043.739 1.1877.724 1.695-.004.1602.059.3046-.231.2896-.173-.0086-.623-.188-1.232-.956s-.898-1.0145-1.087-2.3915c-.188-1.3765.13-2.2462.768-3.0866.638-.8404 1.29-1.0146 2.117-1.0577.826-.0435 1.637.4784 2.058.8693.421.3914.703.918.703.918m1.102-5.409c-.287.1822-.572.5345-.775 1.3176-.202.7826-.216.6517-.304 1.536-.087.884-.13 1.13-.072 1.5214.059.3913.189.7538.421 1.0438.232.29.392.4637.797.406.406-.0582.551-.1457.884-.5223.334-.3767.87-.9564 1.406-1.3473.536-.3917 1.232-.5943 1.783-.4637.551.13 1.044.5072 1.348.8835.305.377.637 1.145.724 1.8985.087.7537.174 1.8402.044 2.7246-.13.883-.145 1.159-.362 1.825-.217.667-.681 1.55-.681 1.55s1.464-1.434 1.797-1.971c.334-.536.712-1.451.798-2.753.092-1.401-.069-1.863-.333-2.797-.28-.99-.931-1.833-1.662-2.363-.772-.56-1.809-.6-2.493-.512-.753.097-1.898.657-2.55 1.324-.652.666-.742.769-.742.769-.077-.068-.282-.257-.244-.828.062-.907.126-1.15.329-1.769.179-.544.418-1.041.448-1.179.03-.14-.086-.212-.216-.27-.13-.058-.34-.028-.34-.028" class="st2"/>
  <path d="M14.7293 2.5635s-.8592-.2713-1.3478-.3994c-.4886-.127-.7095-.279-.977-.418-.2678-.14-.361-.256-.5237-.431-.1628-.174-.2092-.261-.2092-.261s-.0936.146-.1163.319c-.0237.175.0227.536.3022.791.2792.256.4423.222.6632.28.221.058.5908.023.8376.023.151 0 .382.24.4304.407.0696.244.1278.547.0347.71-.1624.285-.2792.442-.884.477-.605.035-.919-.023-1.5004-.326-.5818-.302-.7795-.883-.8608-1.29-.0815-.407-.0355-1.024.3607-1.663.395-.64.604-.709.756-.756.151-.047.406-.023.546.058.139.082.209.21.477.512.299.34.733.757 1.198 1.21.465.454.812.674.812.674v.087z" class="st0"/>
  <path d="M30.192 13.808c-.3866-.077-.6063-.1764-.6318-.3387-.0253-.1635.1293-.4918.3416-.5496.2128-.058.3483-.0386.4442.0965.0973.1354.1552.2322.2515.406.0968.1736.1916.2664.0968.3668-.0948.101-.193.0777-.309.0582-.116-.0195-.1934-.039-.1934-.039m-9.88.7375c.019-.0708-.242-.4475-.459-.694-.218-.246-.942-1.1012-1.131-1.5072-.189-.4055-.449-1.855-.565-2.4195-.116-.5655-.32-1.1162-.566-1.174-.246-.0586-.536.0285-.652.3474-.116.3193-.392 1.8696-.493 3.2754-.102 1.406-.203 2.8984-.32 3.6517-.116.7538-.246 1.5507-.464 2.3334-.217.782-.551 1.448-.928 1.985-.377.536-.752.831-.797 1.227-.044.395.037.627.202.612.166-.014.348-.13.798-.595.449-.464 1.478-1.652 1.855-2.144.376-.493 1.232-1.406 1.754-1.884.521-.479.723-.615.723-.615s.16.557.581 1.339c.42.783 1.68 2.738 3.261 3.579 1.58.84 2.696.826 3.305.797.608-.03 2.101-.29 3.304-1.247 1.202-.956 1.926-1.807 2.594-2.681.667-.874 1.666-2.377 2.116-3.058.449-.681.672-.959.672-.959v-.235s-.093-.212-.441-.922c-.348-.71-.537-1.116-1.131-1.87s-1.406-1.666-2.174-2.145c-.768-.479-1.986-1.015-3.291-.884-1.305.13-2.16.434-3.189 1.014-1.029.58-2.319 1.71-2.551 1.942-.232.231-.362.492-.754 1.057-.339.49-.638 1.072-.681 1.188-.043.116-.052.234-.052.234l.153-.002s.565-.609 1.246-1.246c.681-.638 1.043-.884 1.942-1.42.366-.219.942-.586 1.87-.899 1.347-.456 2.213-.435 3.318-.203 1.247.261 2.783 1.26 3.957 2.912.881 1.241.981 1.562.981 1.562s-.539.532-1.285 1.307c-.857.888-1.989 2.083-2.957 2.942-.64.568-1.942 1.594-3.769 1.782-.91.093-1.834-.004-2.97-.377-.884-.29-1.75-.98-2.102-1.305-.565-.522-1.054-1.319-1.16-1.681-.316-1.084-.652-1.102-.652-1.102s-.739.073-1.841 1.131c-.917.881-1.746 1.609-1.746 1.609s.427-.928.862-2.421c.435-1.493.464-1.898.624-2.724.159-.826.334-1.652.334-1.652l.464.739s.536.71.913 1c.377.29.768.493.942.536.174.044.325.026.343-.045" class="st3"/>
  <path d="M37.1947 34.254c-.2542.0224-.3095.0773-.3315.2986l-.0114.2543-.1327 4.058c0 .022.012.132.012.309.011.033.011.066.011.099 0 .287-.066.508-.165.608-.055.055-.166.122-.332.188-.188.088-.398.143-.541.143-.166 0-.387-.067-.52-.155-.221-.155-.531-.487-.741-.774l-2.377-3.406-.121-.188-.177-.265c-.033-.056-.066-.089-.099-.089-.055 0-.099.066-.099.188 0 .033-.011.066-.011.121-.011.099-.022.155-.022.177l-.121 2.466-.011.21v.022c0 .188.077.265.353.365.377.121.631.398.631.696 0 .099-.044.176-.155.276-.243.232-.674.32-1.514.32-.52 0-.796-.033-.984-.121-.287-.122-.508-.398-.508-.642s.144-.443.354-.498l.254-.078c.144-.033.199-.21.211-.608l.077-3.03.011-.398v-.044c0-.178-.044-.255-.21-.343l-.265-.133c-.243-.122-.464-.487-.464-.763 0-.111.044-.221.11-.298.1-.1.233-.155.377-.177.022 0 .276-.011.763-.044l.818-.045h.1c.166 0 .332.022.487.066.31.11.354.166.73.874l.21.409.111.199 1.582 2.741c.044.077.11.188.199.332.088.121.155.221.21.276.132.177.221.254.298.254.067 0 .111-.077.122-.188l.011-.176.011-.232.144-2.554c.011-.111.011-.199.022-.255.011-.045.011-.1.011-.133 0-.1-.044-.166-.155-.199l-.221-.078c-.132-.045-.309-.21-.409-.376-.055-.078-.077-.188-.077-.276 0-.233.122-.366.453-.454.443-.122 1.139-.21 1.648-.21.63 0 1.117.343 1.117.785 0 .243-.277.442-.663.486m5.263 3.074c.044-.277.077-.575.077-.774 0-.542-.11-.785-.542-1.183-.531-.475-.884-.63-1.437-.63-.906 0-1.879.453-2.598 1.183-.664.686-.907 1.239-.907 2.057 0 1.173.597 1.947 1.737 2.278.277.078.52.111.774.111.553 0 1.438-.199 2.101-.487.299-.133.531-.299.664-.498.055-.077.1-.254.1-.365 0-.287-.188-.508-.442-.508-.066 0-.188.033-.288.066l-.718.288c-.487.199-1.194.32-1.758.32-.62 0-.907-.165-.907-.542 0-.165.066-.231.276-.265l2.3-.309.31-.034c.188-.022.288-.033.31-.044h.254c.443-.022.619-.188.697-.663m-1.667-1.52c.254 0 .343.155.343.553 0 .232-.022.354-.088.42-.088.088-.309.177-.508.199l-1.283.155c-.132.022-.221.022-.276.022-.066 0-.111-.022-.111-.078 0-.122.233-.399.509-.586.608-.432 1.128-.686 1.416-.686m3.627 4.168c1.006-.012 1.238-.111 1.238-.487 0-.243-.188-.497-.476-.63-.099-.044-.155-.077-.188-.088-.055-.033-.088-.077-.111-.121-.011-.044-.022-.088-.022-.144 0-.232.011-.53.033-.906.022-.343.033-.663.044-.951.011-.376.022-.508.044-.652 0-.066.011-.11.011-.132 0-.353-.376-.574-.984-.574-.797 0-1.438.277-1.438.62 0 .221.243.497.542.608l.231.089c.133.045.188.155.188.388v.144l-.022 1.128c-.011.431-.089.553-.376.619-.277.066-.431.21-.431.42 0 .221.198.498.419.597.144.056.321.089.641.089h.066l.586-.011m.564-5.993c.044-.099.066-.21.066-.321 0-.221-.078-.431-.233-.586-.111-.11-.254-.199-.421-.243-.111-.033-.199-.055-.232-.055-.431 0-.752.398-.752.94 0 .232.077.376.32.553.21.166.442.254.641.254.222 0 .465-.221.608-.541m7.21 1.791c.055-.066.077-.155.077-.265 0-.277-.187-.575-.431-.675-.11-.045-.276-.089-.508-.111-.232-.021-.42-.033-.531-.033-.287 0-.442.044-.597.177-.11.1-.144.122-.21.122s-.122-.022-.332-.1c-.232-.088-.332-.11-.575-.11-.774 0-1.47.309-2.134.939-.796.751-1.326 1.813-1.326 2.676 0 .552.232.928.796 1.26.597.343 1.272.52 2.034.52.453 0 .863-.056 1.172-.166.067-.022.133-.045.177-.045.1 0 .166.089.166.21v.575c0 .641-.332.939-1.039.939-.454 0-.918-.034-1.35-.111l-.73-.111c-.067-.011-.144-.022-.222-.022-.254 0-.343.077-.343.276 0 .21.111.365.365.486.642.299 1.615.487 2.522.487 1.073 0 1.725-.276 1.968-.818.177-.409.244-.951.244-1.902 0-.232-.011-.563-.022-.972-.033-.641-.044-1.106-.044-1.371 0-.597 0-.963-.011-1.084-.011-.066-.011-.133-.011-.188 0-.31.122-.432.442-.454.144-.011.232-.022.243-.022.089-.011.155-.044.21-.111m-2.19 1.836c0 .044.011.089.011.133 0 .465-.034.609-.155.73-.111.111-.266.199-.454.277-.564.221-1.194.365-1.636.365-.575 0-.862-.155-.862-.453 0-.465.431-1.261.996-1.836.542-.553 1.194-.973 1.504-.973h.033c.376.044.576.486.576 1.326v.089c-.011.199-.011.309-.011.343m8.105 2.41c.664-.011.929-.144.929-.487 0-.232-.166-.487-.409-.608-.244-.121-.265-.144-.298-.287-.012-.088-.023-.188-.023-.321-.022-1.304-.221-1.746-1.017-2.233-.586-.354-1.161-.509-1.902-.509-.21 0-.431.011-.652.033-.089.011-.155.011-.188.011-.211 0-.266-.133-.266-.62 0-.11 0-.353.022-.718.012-.166.012-.309.012-.421 0-.641-.298-.917-.995-.917-.929 0-1.504.232-1.504.608 0 .265.232.531.575.652l.243.089c.199.066.243.155.243.431v.045l-.109 3.504c-.011.078-.011.188-.011.321 0 .409-.056.498-.398.597-.266.077-.409.21-.409.376 0 .332.331.664.729.719.188.033.353.044.63.044 1.039 0 1.57-.211 1.57-.608 0-.266-.144-.476-.421-.609-.276-.144-.309-.2-.309-.543v-.232c.022-.254.034-.497.034-.752 0-.619.133-.751.895-.906.464-.089.708-.122.962-.122.475 0 .719.221.796.73.044.321.088.808.088 1.095 0 .232-.022.331-.066.398-.066.066-.11.088-.442.177-.276.077-.409.199-.409.375 0 .155.144.365.321.476.265.177.519.232 1.083.232h.188c.276-.012.443-.022.509-.022m6.436-1.095c.763-.542 1.161-1.161 1.161-1.803 0-1.216-1.393-2.035-3.704-2.167-.531-.023-.62-.078-.62-.332v-.044l.044-.807c.011-.089.011-.167.011-.244 0-.387-.034-.686-.1-.829-.089-.199-.42-.387-.664-.387-.089 0-.299.033-.641.099l-.619.111c-.244.045-.41.266-.41.564 0 .332.199.498.641.553.254.022.287.078.287.465v.265l-.044 3.517v.508c-.011.232-.055.287-.254.365-.265.088-.398.276-.398.519 0 .188.088.464.188.585.144.166.387.232.829.232 1.813 0 3.152-.364 4.29-1.171m-1.849-2.75c.984 0 1.758.309 1.758.718 0 .298-.365.741-.863 1.05-.641.398-1.581.752-2.012.752-.309 0-.332-.044-.332-.785v-.376l.012-.729c.011-.332.155-.453.608-.542.321-.066.575-.088.829-.088m6.238 3.892c1.537 0 2.831-1.261 2.831-2.754 0-.63-.188-1.16-.553-1.536-.508-.542-1.481-.907-2.366-.907-.874 0-1.891.376-2.433.907-.519.486-.851 1.249-.851 1.935 0 1.316 1.492 2.355 3.372 2.355m.177-4.313c.708 0 1.227.552 1.227 1.304 0 1.162-.818 2.035-1.902 2.035-.841 0-1.449-.531-1.449-1.272 0-1.073.941-2.012 2.068-2.057l.056-.011m7.167.686c.033-.122.055-.266.055-.377 0-.376-.298-.707-.851-.939-.155-.067-.288-.1-.421-.1-.265 0-.685.165-.951.375-.055.044-.099.066-.132.066-.078 0-.122-.055-.177-.21-.089-.254-.376-.365-.94-.365-.686 0-1.194.222-1.194.52 0 .255.299.597.619.697.144.055.188.088.221.166.011.033.022.066.022.099v.155l.033 1.669v.056c0 .531-.066.631-.398.675-.287.044-.508.243-.508.475 0 .376.464.663 1.061.663.619 0 1.305-.088 1.703-.221.2-.066.354-.243.354-.42 0-.211-.188-.388-.63-.576-.122-.044-.166-.088-.188-.144-.011-.033-.022-.077-.022-.143-.011-.078-.011-.144-.011-.177 0-.343.133-.995.332-1.603.121-.387.387-.73.552-.73.077 0 .121.044.121.132 0 .033-.011.089-.011.155-.033.177-.044.31-.044.42 0 .486.243.807.597.807.31 0 .663-.486.808-1.127m5.696 3.582c.664-.011.929-.144.929-.486 0-.233-.165-.487-.409-.608-.243-.122-.265-.144-.298-.288-.011-.088-.022-.188-.022-.321-.022-1.304-.221-1.746-1.017-2.233-.586-.354-1.161-.509-1.902-.509-.21 0-.431.011-.652.033-.089.012-.155.012-.188.012-.21 0-.266-.133-.266-.619 0-.111 0-.354.023-.719.011-.166.011-.309.011-.42 0-.641-.298-.917-.995-.917-.929 0-1.504.232-1.504.608 0 .266.232.531.575.652l.243.089c.199.066.243.155.243.431v.045l-.11 3.505c-.011.078-.011.188-.011.321 0 .41-.056.498-.398.598-.266.077-.41.21-.41.376 0 .332.331.664.73.719.188.033.354.044.63.044 1.039 0 1.57-.21 1.57-.608 0-.266-.144-.475-.421-.608-.276-.144-.309-.199-.309-.542v-.232c.022-.254.033-.498.033-.752 0-.619.133-.752.896-.907.465-.089.708-.122.962-.122.475 0 .719.221.796.73.044.321.088.808.088 1.095 0 .232-.022.331-.066.398-.067.066-.111.089-.442.177-.276.077-.409.199-.409.376 0 .155.144.365.321.475.265.177.519.232 1.083.232h.189c.276-.011.442-.022.508-.022m3.65.044c1.537 0 2.831-1.26 2.831-2.753 0-.63-.188-1.16-.553-1.536-.508-.542-1.481-.907-2.366-.907-.874 0-1.891.376-2.433.907-.519.486-.851 1.249-.851 1.935 0 1.316 1.493 2.355 3.373 2.355m.178-4.313c.708 0 1.228.553 1.228 1.305 0 1.161-.818 2.035-1.902 2.035-.84 0-1.448-.531-1.448-1.272 0-1.072.94-2.012 2.068-2.056l.056-.011m6.07 4.3123c1.537 0 2.831-1.261 2.831-2.753 0-.63-.188-1.16-.553-1.536-.509-.542-1.482-.907-2.367-.907-.873 0-1.891.376-2.433.907-.519.486-.851 1.249-.851 1.935 0 1.316 1.493 2.356 3.373 2.356m.177-4.313c.708 0 1.227.553 1.227 1.3045 0 1.162-.818 2.035-1.902 2.035-.84 0-1.448-.531-1.448-1.272 0-1.072.94-2.012 2.068-2.056l.055-.011m9.156 4.456c.21-.066.288-.155.288-.332 0-.397-.31-.729-.697-.763l-.21-.022c-.155-.011-.199-.088-.221-.354l-.033-.619.056-4.135.033-.498c-.023-.508-.409-.895-.918-.895-.188 0-.796.099-1.239.199-.265.055-.42.21-.42.398 0 .232.243.52.508.586l.343.099c.21.056.254.122.254.377 0 .155 0 .276.011.3534v.111c0 .266-.055.376-.199.376-.011 0-.033-.011-.044-.011l-.166-.033c-.055-.011-.121-.022-.188-.022-.796 0-1.758.486-2.587 1.304-.73.718-1.029 1.305-1.029 1.99 0 .686.288 1.205.863 1.537.542.31 1.25.487 1.914.487.331 0 .674-.044 1.061-.155.144-.033.254-.055.343-.055.099 0 .166.0336.265.144.111.1105.155.133.31.166.099.022.199.033.277.033.31 0 .962-.122 1.4266-.265m-2.3-3.616c.055.199.077.608.077 1.26 0 .4754-.078.807-.233.951-.088.088-.254.177-.486.254-.387.133-.763.199-1.117.199-.707 0-1.138-.188-1.138-.497 0-.365.42-1.017 1.029-1.615.575-.564 1.117-.906 1.448-.906.199 0 .365.133.42.354m11.655-2.676v-.21c0-.432-.033-.542-.199-.697-.133-.111-.332-.177-.542-.177-.044 0-.387.012-1.017.033l-2.288.1c-1.172.055-1.8136.121-2.057.232-.165.077-.2875.265-.2875.431 0 .288.288.652.653.829.2435.122.2544.144.287.332.011.056.022.122.022.199l-.034 3.461c0 .199-.033.354-.089.42-.055.078-.077.078-.31.155-.299.089-.454.232-.454.442 0 .453.277.697.775.697.597 0 1.371-.089 1.879-.21.343-.088.531-.255.531-.476 0-.155-.088-.354-.21-.476-.099-.11-.188-.155-.442-.254-.221-.088-.265-.166-.265-.387 0-.42.089-.608.299-.641l.232-.033 1.968-.32.31-.044c.321-.044.52-.21.52-.42 0-.3877-.365-.675-.873-.675-.078 0-.188.011-.288.011l-1.559.144-.244.023h-.033c-.188 0-.277-.111-.277-.354V36l.066-1.0726c.033-.5305.144-.652.675-.7294l.984-.133c.243-.033.442-.055.575-.055.221 0 .254.044.309.2987 0 .0107.033.1218.099.3317.034.1105.056.177.067.21.022.0884.067.177.133.2544.143.199.387.3206.608.3206.265 0 .431-.2104.442-.542l.034-.973zm2.796 6.148c1.538 0 2.831-1.261 2.831-2.754 0-.63-.188-1.16-.553-1.536-.508-.542-1.482-.907-2.366-.907-.874 0-1.891.376-2.433.907-.52.486-.852 1.249-.852 1.935 0 1.316 1.493 2.355 3.373 2.355m.178-4.312c.707 0 1.228.553 1.228 1.304 0 1.161-.818 2.034-1.902 2.034-.841 0-1.449-.531-1.449-1.271 0-1.073.94-2.013 2.068-2.057l.056-.011m6.07 4.312c1.537 0 2.831-1.261 2.831-2.754 0-.63-.189-1.161-.554-1.537-.5085-.541-1.4816-.907-2.366-.907-.874 0-1.891.377-2.433.907-.52.486-.852 1.25-.852 1.935 0 1.316 1.493 2.356 3.373 2.356m.177-4.312c.708 0 1.228.553 1.228 1.305 0 1.161-.818 2.0343-1.902 2.0343-.841 0-1.448-.531-1.448-1.271 0-1.073.94-2.013 2.067-2.057l.056-.011m9.156 4.456c.21-.066.288-.155.288-.332 0-.398-.31-.73-.697-.763l-.21-.022c-.155-.011-.2-.088-.222-.354l-.033-.619.055-4.135.0337-.498c-.022-.508-.409-.895-.917-.895-.188 0-.796.099-1.239.199-.266.055-.421.21-.421.398 0 .232.244.519.509.586l.344.099c.21.055.254.122.254.376 0 .155 0 .276.011.3533v.111c0 .266-.055.376-.199.376-.011 0-.033-.011-.044-.011l-.166-.033c-.056-.011-.122-.022-.188-.022-.796 0-1.757.487-2.587 1.305-.73.719-1.029 1.305-1.029 1.99 0 .686.288 1.206.863 1.537.542.31 1.25.487 1.913.487.332 0 .675-.044 1.062-.155.144-.033.254-.055.343-.055.099 0 .166.0334.265.144.11.11.155.133.31.166.099.023.198.034.276.034.309 0 .962-.121 1.426-.265m-2.3-3.616c.055.199.077.609.077 1.261 0 .476-.078.807-.233.951-.088.089-.254.177-.486.255-.387.133-.763.199-1.117.199-.707 0-1.139-.188-1.139-.497 0-.365.421-1.018 1.028-1.615.576-.564 1.117-.906 1.449-.906.2 0 .366.132.421.353m14.806.763c.432-.034.763-.321.763-.642 0-.221-.187-.497-.398-.585-.165-.078-.553-.122-.973-.122-.265 0-.696.033-1.238.088-.674.078-1.149.144-1.437.199-.287.067-.487.1-.597.1-.243.011-.298.088-.298.365 0 .154.044.32.133.464.099.155.176.221.276.221.055 0 .122 0 .199-.011.122-.022.232-.033.331-.033.122 0 .211.044.211.121 0 .0448-.044.133-.155.2877-.066.089-.121.133-.188.133-.176 0-.452-.177-1.038-.686-.554-.475-.675-.585-.675-.663 0-.055.111-.132.409-.309.254-.143.442-.254.553-.309 1.073-.597 1.394-.852 1.637-1.316.11-.199.166-.409.166-.597 0-.4864-.244-.84-.863-1.216-.83-.5197-1.603-.774-2.344-.774-1.46 0-2.743 1.117-2.743 2.3773 0 .331.067.674.189.917.045.099.122.22.221.353.133.189.178.276.178.343 0 .088-.056.155-.199.243l-.243.1434c-.729.431-1.116.807-1.338 1.305-.099.221-.155.4306-.155.6186 0 1.106 1.549 2.112 3.24 2.112.906 0 2.178-.243 2.742-.52l.431-.21c.11-.056.188-.078.265-.078.121 0 .188.022.453.155.387.188.763.299 1.051.299.32 0 .608-.233.608-.498 0-.166-.099-.321-.309-.475l-.387-.266c-.089-.078-.155-.155-.155-.21 0-.034.022-.089.066-.155.121-.199.1435-.244.21-.476.044-.155.0775-.255.0886-.321.045-.232.066-.254.288-.277l.332-.033.697-.066m-4.777 1.249c.033.045.045.067.045.078 0 .11-.421.321-.918.464-.177.044-.354.078-.531.111-.21.034-.409.056-.608.056-.774 0-1.272-.232-1.272-.586 0-.254.243-.575.685-.885.354-.265.763-.486.896-.486.099 0 .232.088.884.586l.5972.453c.078.067.155.133.221.21m-.044-5.451c.52 0 .951.222.951.498 0 .332-.442.752-1.294 1.216l-.8404.453c-.078.045-.145.067-.199.067-.133 0-.365-.221-.477-.453-.054-.1324-.099-.32-.099-.464 0-.408.486-.939 1.073-1.16.265-.1.575-.155.8847-.155m15.084 3.583c.552-.387.995-1.151.995-1.714 0-.841-.664-1.471-1.935-1.847-.9062-.277-1.869-.421-2.809-.421-.63 0-1.25.0554-2.233.2104-.265.033-.465.1105-.564.199-.067.0665-.111.2105-.111.365 0 .3875.209.675.608.796.287.1.354.189.354.4645l-.011.155-.056 3.472c0 .442-.077.531-.42.575-.365.055-.498.177-.498.453 0 .475.542.873 1.183.873.088 0 .199-.011.353-.033.587-.0667 1.051-.122 1.394-.177.321-.0557.453-.166.453-.365 0-.1-.043-.221-.121-.354-.144-.232-.354-.409-.564-.453-.199-.055-.221-.078-.244-.233-.01-.077-.01-.154-.01-.243v-.024c0-.188.055-.232.298-.254 1.029-.066 2.953-.785 3.937-1.448m-2.345-2.72c.929 0 1.803.453 1.803.918 0 .321-.398.8182-.962 1.183-.508.3312-1.039.542-1.559.6412-.254.0445-.542.078-.841.0885h-.033c-.199 0-.221-.044-.221-.464v-.409l.111-1.294c.034-.354.067-.399.277-.465.354-.1105 1.017-.199 1.427-.199m9.422 6.004c.663-.011.929-.144.929-.487 0-.233-.166-.487-.409-.608-.243-.121-.265-.144-.299-.287-.01-.088-.021-.188-.021-.321-.022-1.304-.222-1.746-1.018-2.233-.586-.354-1.161-.508-1.902-.508-.21 0-.431.011-.652.033-.089.011-.155.011-.188.011-.21 0-.266-.133-.266-.619 0-.11 0-.353.023-.718.011-.166.011-.31.011-.421 0-.641-.299-.918-.996-.918-.929 0-1.504.232-1.504.608 0 .265.232.53.575.652l.243.089c.199.066.244.155.244.431v.044l-.111 3.505c-.012.078-.012.188-.012.32 0 .41-.054.498-.398.598-.265.077-.409.21-.409.375 0 .331.332.663.73.719.188.033.354.044.63.044 1.039 0 1.57-.211 1.57-.608 0-.266-.143-.476-.419-.609-.277-.144-.31-.2-.31-.5424v-.232c.022-.254.033-.497.033-.752 0-.619.132-.751.895-.906.464-.0886.708-.1215.962-.1215.475 0 .718.221.796.73.043.321.088.808.088 1.095 0 .232-.022.332-.066.398-.067.067-.111.089-.443.178-.277.077-.409.199-.409.375 0 .155.144.365.321.476.265.177.519.232 1.083.232h.188c.276-.011.442-.022.5087-.022m6.646 0c.2103-.111.299-.232.299-.387 0-.265-.178-.52-.387-.586l-.31-.077c-.122-.044-.188-.099-.188-.188 0-.066.011-.154.011-.254l.022-.332.045-.63c.012-.133.012-.254.012-.387 0-1.547-.786-2.432-2.146-2.432-.663 0-1.327.243-2.112.807-.519.365-.719.63-.719.951 0 .321.155.498.432.498.044 0 .11-.012.177-.023.265-.055.398-.122.751-.364.719-.487 1.338-.774 1.682-.774.364 0 .574.209.574.552 0 .055-.011.144-.034.244-.022.122-.044.144-.188.155l-.587.078c-.972.132-2.166.63-2.775 1.161-.221.199-.387.575-.387.907 0 .685.852 1.216 1.936 1.216.387 0 .696-.034 1.139-.144l.5193-.122c.045-.011.077-.011.122-.011.0773 0 .1213.022.155.066l.088.144c.1.143.42.254.73.254.3086 0 .796-.133 1.138-.321m-2.2-1.802c.199 0 .2766.066.2766.221 0 .132-.166.254-.476.354-.3977.133-.785.199-1.094.199h-.255c-.221 0-.32-.022-.32-.088 0-.143.398-.331 1.161-.563.243-.066.542-.121.708-.121m7.165-1.78c.033-.122.055-.265.055-.376 0-.376-.298-.708-.851-.94-.155-.066-.288-.099-.42-.099-.265 0-.685.165-.951.375-.055.044-.099.066-.133.066-.077 0-.121-.055-.177-.21-.088-.255-.376-.365-.94-.365-.684 0-1.194.221-1.194.52 0 .254.299.596.62.697.144.054.188.087.221.165.011.033.023.066.023.1v.154l.034 1.669v.055c0 .531-.067.631-.398.675-.2874.044-.509.243-.509.475 0 .376.465.664 1.063.664.619 0 1.3047-.089 1.702-.221.199-.066.354-.243.354-.42 0-.21-.188-.387-.63-.575-.1215-.044-.166-.088-.188-.144-.0115-.033-.023-.077-.023-.143-.011-.078-.011-.144-.011-.177 0-.343.133-.995.332-1.603.122-.387.387-.73.553-.73.077 0 .122.044.122.133 0 .033-.011.088-.011.155-.033.176-.044.309-.044.42 0 .486.243.807.598.807.309 0 .663-.487.807-1.128m8.448 3.759c1.227 0 1.746-.177 1.746-.575 0-.211-.11-.399-.265-.465l-.254-.122c-.121-.045-.209-.255-.209-.465v-.653c-.011-1.558-.808-2.409-2.267-2.409-.31 0-.641.033-.874.099-.111.033-.255.088-.431.166-.41.176-.465.188-.553.188-.088 0-.099 0-.254-.089-.464-.254-1.017-.398-1.569-.398-.321 0-.652.022-.796.034-.132.021-.232.021-.287.021-.099 0-.177-.022-.243-.077l-.166-.165c-.155-.155-.3752-.243-.597-.243-.309 0-.763.11-1.094.265-.211.099-.31.232-.31.442 0 .254.133.376.508.497.232.066.299.099.343.143.077.066.111.199.111.432l-.0115 1.89c0 .111-.033.265-.066.32-.044.055-.144.122-.309.199-.299.143-.366.232-.366.431 0 .343.265.597.62.597l.3535-.011h.343c.597 0 1.271-.121 1.5035-.265.078-.055.133-.155.133-.265 0-.232-.122-.387-.409-.553-.255-.144-.354-.243-.399-.387-.011-.044-.022-.122-.033-.21 0-.1-.011-.166-.011-.199l.011-1.051c0-.542.497-.951 1.172-.951.376 0 .686.177.819.453.11.244.176.686.176 1.206v.387c-.011.354-.054.42-.32.476-.31.055-.465.21-.465.486 0 .166.188.376.398.465.199.088.386.121.851.121 1.138 0 1.581-.154 1.581-.531 0-.165-.122-.353-.299-.464l-.199-.121c-.177-.111-.189-.155-.189-.454 0-.033-.011-.088-.011-.155l-.022-.696v-.04c0-.221.078-.409.254-.564.343-.309.852-.519 1.272-.519.508 0 .763.597.763 1.835 0 .619-.067.818-.31.862l-.243.055c-.133.022-.255.199-.255.342 0 .42.431.686 1.128.686m7.421-.177c.21-.111.298-.233.298-.387 0-.266-.1764-.52-.387-.587l-.309-.078c-.1212-.045-.188-.1-.188-.188 0-.066.011-.155.011-.254l.022-.332.044-.63c.01-.133.01-.254.01-.387 0-1.548-.785-2.433-2.145-2.433-.6633 0-1.327.243-2.112.807-.52.365-.719.63-.719.951 0 .321.155.498.4318.498.044 0 .11-.012.176-.023.266-.056.398-.122.753-.365.718-.487 1.338-.774 1.681-.774.364 0 .575.209.575.552 0 .055-.011.144-.0332.244-.023.122-.045.144-.189.155l-.586.078c-.974.132-2.168.63-2.776 1.161-.222.199-.387.575-.387.906 0 .686.851 1.217 1.935 1.217.387 0 .697-.034 1.139-.144l.52-.122c.044-.011.077-.011.122-.011.077 0 .122.022.154.066l.089.144c.1.143.421.2546.73.2546.31 0 .796-.132 1.139-.32m-2.201-1.802c.2 0 .277.066.277.221 0 .132-.166.254-.475.354-.398.132-.785.199-1.0943.199h-.254c-.221 0-.321-.022-.321-.089 0-.143.398-.332 1.162-.564.243-.066.542-.121.707-.121m7.6745-3.019v-.0445c0-.21-.188-.431-.487-.586-.099-.044-.187-.077-.254-.077-.121 0-.209.055-.353.221-.056.066-.1.099-.155.099-.022 0-.067-.012-.1-.033l-.1994-.1c-.132-.067-.398-.122-.652-.122-.519 0-1.205.243-1.736.619-.884.619-1.504 1.692-1.504 2.621 0 1.327 1.139 2.289 2.721 2.289.63 0 1.261-.188 1.957-.586.519-.298.729-.564.729-.907 0-.254-.188-.453-.442-.453-.066 0-.155.033-.354.122-.309.155-.497.243-.563.265-.155.067-.354.133-.587.188-.376.078-.73.122-1.051.122-.32 0-.6638-.033-.829-.088-.211-.077-.387-.32-.387-.553 0-.321.265-.906.597-1.327.475-.597 1.338-1.117 1.846-1.117.277 0 .443.177.443.465v.188c0 .431.099.619.431.7844.099.055.176.0772.243.0772.288 0 .453-.288.542-.951l.144-1.117zm6.359 1.4263c.541-.188.84-.4423.84-.708 0-.321-.288-.465-.951-.487l-.664-.022h-.198c-.63 0-.874.055-1.028.233-.078.077-.121.177-.121.298 0 .155.021.2.154.321.244.221.287.299.287.475 0 .012 0 .034-.011.045l-.066.188-.089.221-.552 1.293-.078.2-.077.144c-.1.188-.144.232-.222.232-.066 0-.143-.078-.232-.266l-.099-.21-.664-1.25-.21-.365c-.056-.122-.089-.233-.089-.332 0-.122.067-.189.254-.276.211-.089.288-.167.288-.288 0-.442-.531-.719-1.404-.719-.21 0-.376.011-.465.033l-.276.055c-.044.011-.155.033-.299.044-.353.044-.464.144-.464.431 0 .387.133.564.454.642.42.11.453.122.563.265.078.099.144.232.211.387.033.067.055.122.077.155l1.46 2.886c.044.1.0773.155.0773.166.022.044.044.088.055.1327.022.0552.034.1.034.133 0 .133-.122.398-.265.597-.1.144-.221.254-.333.3092-.121.066-.265.1-.408.1-.177 0-.2875-.044-.5755-.188-.321-.154-.343-.165-.486-.199-.067-.01-.133-.022-.2-.022-.265 0-.453.177-.453.442 0 .443.365.719 1.183.907.232.044.509.077.707.077.697 0 1.272-.364 1.692-1.072.133-.221.288-.508.465-.851.066-.121.11-.21.132-.276l1.205-2.686.167-.365c.198-.464.243-.552.331-.641.088-.089.121-.11.343-.188" class="st4"/>
  <path d="M55.505 9.023l-.3195.145c-.3775.1742-.639.581-.6683 1.0455l-.029.552-.697 9.614-.058.6972v.3482c0 .581.145.871.5227 1.074l.755.377c.407.203.755.842.755 1.336 0 .377-.175.784-.436.987-.61.435-3.254.842-5.664.842-.552 0-1.046-.291-1.424-.813-.291-.378-.523-.988-.523-1.366 0-.465.348-.756 1.365-1.104.697-.262.929-.552.929-1.162l-.029-1.453c-.03-.872-.204-1.046-1.075-1.046l-2.062.029c-1.917.029-3.719.232-4.561.465-.813.261-1.133.813-1.133 1.946 0 .407.029.726.145.988.116.319.29.464 1.016.783.755.32 1.162.842 1.162 1.51 0 1.162-1.278 1.685-4.212 1.685-.726 0-1.365-.058-2.121-.175-1.337-.204-1.976-.785-1.976-1.772 0-.522.203-.726.901-.871 1.016-.232 1.365-.552 1.365-1.336l.029-.552.174-9.934v-.552c0-.813-.088-.988-.669-1.307-1.133-.669-1.656-1.22-1.656-1.801 0-.32.145-.639.348-.814.697-.61 3.137-1.074 5.519-1.074 1.714 0 2.963.842 2.963 1.975 0 .61-.494 1.075-1.685 1.51-.204.087-.378.174-.465.261-.116.117-.203.291-.233.465 0 .058 0 .204-.029.378l-.29 3.747v.29c0 .843.233 1.133.842 1.133h.059c.436 0 .901-.029 1.395-.058 1.336-.116 2.179-.145 2.585-.174h1.08l1.394-.087c.523-.058.842-.087.988-.116.377-.087.465-.232.493-1.104l.232-3.689c.029-.262.029-.465.029-.552 0-.407-.117-.582-.552-.813-.901-.436-.988-.493-1.308-.9-.291-.378-.407-.697-.407-1.016s.116-.668.29-.872c.174-.175.435-.32.755-.407 1.162-.29 3.427-.551 4.851-.551.929 0 1.423.203 1.83.784.319.436.494.93.494 1.365 0 .465-.291.814-.988 1.133M71.39 25.922c.552-.291.784-.61.784-1.016 0-.6974-.465-1.366-1.017-1.54l-.814-.203c-.32-.117-.494-.262-.494-.494 0-.1743.029-.407.029-.668l.058-.871.116-1.656c.029-.348.029-.668.029-1.016 0-4.066-2.062-6.39-5.635-6.39-1.743 0-3.486.638-5.548 2.12-1.366.958-1.889 1.655-1.889 2.498 0 .842.407 1.307 1.133 1.307.116 0 .29-.029.465-.058.697-.146 1.045-.32 1.975-.959C62.473 15.7 64.1 14.945 65 14.945c.958 0 1.51.552 1.51 1.452 0 .146-.029.378-.087.64-.059.3194-.117.3776-.494.4064l-1.54.203c-2.556.3487-5.694 1.6557-7.291 3.0498-.581.5226-1.017 1.5103-1.017 2.3816 0 1.801 2.237 3.195 5.083 3.195 1.016 0 1.83-.087 2.992-.378l1.365-.319c.116-.029.203-.029.32-.029.203 0 .319.0585.406.175l.232.377c.261.378 1.104.668 1.917.668s2.091-.349 2.992-.842m-5.779-4.735c.523 0 .726.174.726.581 0 .3485-.435.668-1.249.929-1.046.349-2.062.523-2.8758.523h-.6686c-.581 0-.842-.058-.842-.232 0-.3777 1.046-.8716 3.05-1.4817.639-.174 1.423-.319 1.8594-.319m19.433-4.676c.087-.319.145-.697.145-.987 0-.987-.785-1.859-2.237-2.469-.407-.174-.755-.261-1.104-.261-.697 0-1.801.436-2.498.988-.1453.116-.261.174-.3487.174-.2036 0-.3196-.145-.4648-.552-.233-.668-.988-.958-2.469-.958-1.801 0-3.1377.581-3.1377 1.365 0 .668.7846 1.569 1.627 1.83.378.145.494.232.581.436.029.088.058.174.058.262v.407l.087 4.386v.145c0 1.395-.174 1.656-1.046 1.772-.755.117-1.336.64-1.336 1.25 0 .988 1.22 1.743 2.789 1.743 1.6266 0 3.4277-.232 4.473-.581.523-.175.93-.639.93-1.104 0-.552-.4937-1.017-1.656-1.51-.3194-.116-.436-.232-.4935-.377-.0298-.087-.0587-.203-.0587-.378-.029-.203-.029-.377-.029-.464 0-.9.3484-2.614.8713-4.211.319-1.017 1.016-1.917 1.452-1.917.203 0 .32.117.32.349 0 .087-.029.232-.029.406-.088.465-.117.814-.117 1.104 0 1.278.639 2.12 1.568 2.12.813 0 1.743-1.278 2.121-2.962m12.809 0c.087-.319.145-.697.145-.987 0-.988-.785-1.859-2.237-2.469-.407-.175-.755-.262-1.104-.262-.697 0-1.801.436-2.498.988-.145.116-.262.174-.349.174-.203 0-.32-.145-.465-.552-.233-.668-.988-.958-2.469-.958-1.801 0-3.137.581-3.137 1.365 0 .668.784 1.568 1.627 1.83.377.145.493.232.581.435.029.087.058.174.058.261v.407l.087 4.386v.145c0 1.395-.174 1.656-1.046 1.772-.756.117-1.337.639-1.337 1.249 0 .987 1.22 1.743 2.789 1.743 1.626 0 3.427-.232 4.473-.581.523-.174.929-.639.929-1.104 0-.551-.494-1.016-1.656-1.51-.319-.116-.435-.232-.494-.377-.029-.087-.058-.203-.058-.378-.029-.203-.029-.377-.029-.464 0-.9.348-2.614.871-4.212.319-1.017 1.016-1.917 1.452-1.917.203 0 .319.117.319.349 0 .087-.029.233-.029.407-.087.465-.116.814-.116 1.104 0 1.278.639 2.12 1.569 2.12.814 0 1.743-1.278 2.121-2.963m5.519 9.295c2.643-.029 3.253-.29 3.253-1.278 0-.639-.494-1.307-1.249-1.656-.262-.116-.407-.203-.494-.232-.145-.087-.233-.204-.29-.32-.03-.116-.059-.232-.059-.377 0-.61.029-1.394.087-2.382.057-.9.087-1.743.116-2.498.029-.987.058-1.336.116-1.714 0-.174.029-.29.029-.348 0-.929-.988-1.51-2.585-1.51-2.092 0-3.776.726-3.776 1.626 0 .581.639 1.307 1.423 1.598l.61.233c.348.117.494.407.494 1.017v.378l-.059 2.962c-.03 1.133-.233 1.453-.988 1.627-.727.174-1.133.552-1.133 1.104 0 .581.522 1.307 1.104 1.569.377.145.842.232 1.684.232h.174l1.54-.029m1.481-15.743c.117-.261.175-.552.175-.842 0-.581-.203-1.133-.61-1.539-.29-.291-.668-.523-1.104-.639-.29-.087-.523-.146-.61-.146-1.133 0-1.975 1.046-1.975 2.469 0 .61.203.988.842 1.452.552.436 1.162.669 1.685.669.581 0 1.22-.581 1.597-1.423m14.321 9.062c1.22 0 2.005-1.684 2.005-4.356 0-1.394-.901-2.614-1.917-2.614-.233 0-.494.116-.668.262l-.262.262c-.117.087-.204.116-.378.116-.203 0-.523-.087-.929-.203-.494-.174-.785-.261-.93-.29-.378-.117-.785-.175-1.249-.175-1.54 0-3.137.668-4.822 2.004-1.307 1.046-2.091 2.179-2.091 2.992 0 .262.087.61.29 1.046.261.581.523 1.016.784 1.249.494.494 1.133.813 3.399 1.684l2.207.9c.784.291 1.191.552 1.191.755 0 .175-.261.291-.61.291-.785 0-2.062-.116-3.021-.29-.436-.087-1.017-.204-1.685-.378-1.278-.32-1.859-.436-2.208-.436-.698 0-1.22.464-1.22 1.074 0 .755.581 1.249 2.265 1.859 2.353.843 4.125 1.191 6.013 1.191 2.643 0 4.328-.726 5.402-2.323.261-.378.378-.697.378-.987 0-.813-.727-1.511-2.441-2.353-1.801-.901-3.311-1.54-4.705-1.975-1.191-.378-1.831-.755-1.831-1.075 0-.582 1.714-1.656 3.573-2.237.349-.116.726-.174.929-.174.697 0 .93.319.93 1.278v.145c0 .116 0 .261.029.406.029.407.029.697.057.872.058.233.174.465.32.697.319.465.813.785 1.19.785m28.04-11.042c0-1.336-.843-2.062-2.412-2.062-.232 0-.697.029-1.336.058l-10.428.609-1.017.029c-1.22.058-1.772.493-2.033 1.51-.261 1.075-.465 2.846-.465 4.183 0 1.046.785 1.888 1.714 1.888.814 0 1.481-.9 1.656-2.265l.12-.815c.087-.784.348-1.045 1.133-1.19.407-.058.842-.117 1.075-.117.581 0 .959.203 1.017.552 0 .087.03.261.03.581v.522l-.378 9.527c0 .145-.029.349-.029.61 0 .668-.058.929-.146 1.075-.145.175-.523.349-1.161.494-1.016.262-1.365.523-1.365 1.104 0 1.278 1.278 2.033 3.399 2.033 1.423 0 3.137-.174 5.229-.523.493-.087.842-.233.987-.407.087-.088.174-.407.174-.697 0-.988-.638-1.714-1.858-2.033-.727-.233-1.017-.407-1.104-.755-.058-.146-.058-.349-.058-.756v-.116l.29-6.535c.087-1.917.203-3.166.378-3.747.232-.726.871-1.22 1.597-1.22.668 0 .959.232 1.075.9l.116.494.116.668c.175.929.407 1.336 1.017 1.801.407.29.814.435 1.249.435.349 0 .668-.087.843-.232.262-.233.435-.523.465-.843.029-.291.058-1.191.087-2.672l.029-2.092zm12 10.776c.116-.726.203-1.51.203-2.033 0-1.423-.291-2.062-1.424-3.108-1.394-1.249-2.324-1.655-3.776-1.655-2.382 0-4.938 1.191-6.826 3.108-1.744 1.801-2.382 3.253-2.382 5.402 0 3.079 1.568 5.113 4.56 5.984.726.204 1.365.291 2.033.291 1.452 0 3.776-.523 5.519-1.278.784-.348 1.394-.784 1.743-1.307.144-.203.261-.668.261-.958 0-.755-.494-1.335-1.162-1.335-.175 0-.494.086-.756.174l-1.887.755c-1.279.523-3.138.842-4.619.842-1.627 0-2.382-.436-2.382-1.423 0-.436.174-.61.726-.697l6.042-.814.813-.087c.493-.058.755-.087.813-.116h.668c1.162-.058 1.626-.494 1.83-1.743m-4.357-4.009c.668-.001.9.406.9 1.452 0 .61-.058.929-.232 1.104-.232.232-.814.464-1.337.522l-3.369.407c-.348.058-.58.058-.726.058-.174 0-.29-.058-.29-.204 0-.319.61-1.046 1.337-1.539 1.598-1.133 2.963-1.801 3.718-1.801m19.491 4.009c.117-.727.203-1.511.203-2.034 0-1.423-.29-2.062-1.423-3.108-1.394-1.249-2.323-1.656-3.776-1.656-2.381 0-4.938 1.191-6.826 3.108-1.743 1.8-2.382 3.253-2.382 5.402 0 3.079 1.569 5.112 4.561 5.983.727.204 1.366.291 2.034.291 1.453 0 3.777-.523 5.52-1.278.784-.348 1.394-.784 1.743-1.307.145-.203.261-.668.261-.958 0-.755-.494-1.336-1.162-1.336-.175 0-.494.086-.755.174l-1.888.755c-1.278.522-3.137.842-4.619.842-1.627 0-2.382-.436-2.382-1.424 0-.436.175-.61.726-.697l6.042-.814.814-.087c.494-.059.755-.087.813-.116h.668c1.163-.058 1.627-.494 1.83-1.743m-4.357-4.009c.669-.001.901.406.901 1.452 0 .61-.058.929-.232 1.104-.232.232-.814.464-1.336.522l-3.369.406c-.349.058-.581.058-.726.058-.174 0-.29-.058-.29-.203 0-.32.61-1.046 1.336-1.54 1.597-1.132 2.963-1.801 3.718-1.801m15.86 10.282c1.045-.697 1.655-1.51 1.655-2.207 0-.61-.581-1.133-1.249-1.133-.29 0-.523.116-1.132.494-.901.581-1.627.871-2.062.871-.784 0-1.133-.523-1.133-1.801 0-.436.029-.901.088-1.394l.261-2.44c.058-.697.145-.785.814-.9l.523-.087c.232-.029.494-.088.842-.116 1.772-.233 2.527-.639 2.527-1.366 0-.32-.261-.784-.639-1.22-.523-.523-.755-.61-1.917-.61h-.494c-.232.029-.406.029-.552.029-.552 0-.842-.233-.842-.698 0-.145.029-.435.087-.842.058-.378.087-.929.087-1.22 0-.958-1.075-1.714-2.499-1.714-1.045 0-1.365.785-1.51 3.66-.058.9-.32 1.278-.871 1.337l-.842.058c-1.162.087-1.888.523-1.888 1.162 0 .959.958 1.946 2.033 2.1208.204.03.407.059.639.059.523.029.639.145.639.668 0 .261-.029.668-.058 1.162-.029.204-.029.378-.029.552 0 1.307.116 2.759.319 3.66.175.697.494 1.278.93 1.685.755.697 2.178 1.219 3.311 1.219.959 0 2.004-.348 2.963-.987m16.41-6.272c.117-.727.204-1.51.204-2.034 0-1.423-.29-2.062-1.423-3.108-1.3947-1.249-2.324-1.655-3.777-1.655-2.382 0-4.938 1.191-6.826 3.108-1.743 1.8-2.382 3.253-2.382 5.402 0 3.079 1.568 5.112 4.5602 5.984.726.204 1.365.291 2.034.291 1.452 0 3.776-.523 5.519-1.278.784-.348 1.394-.784 1.743-1.307.145-.203.261-.668.261-.958 0-.755-.494-1.336-1.162-1.336-.174 0-.494.086-.755.174l-1.888.755c-1.278.523-3.138.842-4.619.842-1.627 0-2.382-.436-2.382-1.423 0-.436.175-.61.726-.697l6.042-.814.8136-.087c.494-.058.755-.087.813-.116h.6687c1.162-.058 1.627-.494 1.83-1.743m-4.357-4.008c.668 0 .901.406.901 1.452 0 .61-.058.929-.232 1.104-.233.232-.814.464-1.337.523l-3.37.406c-.349.058-.581.058-.726.058-.175 0-.291-.058-.291-.203 0-.32.61-1.046 1.336-1.54 1.597-1.132 2.963-1.801 3.718-1.801m17.428 1.656c.087-.319.146-.697.146-.987 0-.988-.785-1.859-2.237-2.469-.407-.175-.755-.262-1.104-.262-.697 0-1.801.436-2.498.988-.145.116-.261.174-.348.174-.204 0-.32-.146-.466-.552-.232-.668-.987-.959-2.469-.959-1.801 0-3.137.581-3.137 1.365 0 .668.784 1.568 1.627 1.83.378.145.494.232.581.435.029.088.057.174.057.262v.406l.087 4.386v.145c0 1.3943-.174 1.656-1.045 1.7714-.755.117-1.336.639-1.336 1.249 0 .987 1.22 1.743 2.788 1.743 1.626 0 3.427-.232 4.473-.581.523-.174.93-.639.93-1.104 0-.551-.494-1.016-1.655-1.51-.32-.116-.436-.232-.494-.377-.029-.088-.058-.204-.058-.378-.03-.204-.03-.378-.03-.465 0-.901.349-2.614.872-4.212.319-1.017 1.017-1.917 1.4522-1.917.203 0 .32.116.32.349 0 .087-.029.232-.029.406-.087.465-.116.814-.116 1.104 0 1.278.639 2.12 1.569 2.12.813 0 1.742-1.277 2.12-2.962m-1.5 6.088c-.901 0-1.633.732-1.633 1.647 0 .93.732 1.655 1.633 1.655.908 0 1.626-.725 1.626-1.655 0-.916-.718-1.648-1.619-1.648h-.008zm.008.256c.7313 0 1.318.622 1.318 1.398s-.5867 1.399-1.318 1.391c-.733 0-1.326-.615-1.326-1.398 0-.769.593-1.391 1.318-1.391h.008zm-.316 1.559h.2054c.234 0 .351.087.396.322.036.241.08.409.124.468h.307c-.0284-.059-.0724-.168-.117-.454-.0363-.271-.146-.4176-.3073-.447v-.015c.198-.0585.359-.205.359-.4465 0-.175-.059-.3-.168-.38-.11-.081-.293-.139-.571-.139-.22 0-.367.022-.52.043v1.838h.293v-.791zm0-.85c.052-.008.117-.015.213-.015.329 0 .446.161.446.322 0 .227-.205.315-.4465.315h-.213v-.622z" class="st2"/>
</svg>
