<svg xmlns="http://www.w3.org/2000/svg" id="Layer_1" width="219.202" height="44.803"><style>.st0{fill:#007549}.st2{fill:#eb0029}</style><path d="M219.202 37.48a7.322 7.322 0 0 1-7.323 7.323H15.974a7.322 7.322 0 0 1-7.322-7.322v-.65a7.322 7.322 0 0 1 7.322-7.322H211.88a7.323 7.323 0 0 1 7.323 7.322v.65z" class="st0"/><path d="M9.17 11.6c-.187-.081-1.216-.487-2.274-.328-1.058.16-1.797.507-2.347.899s-.797.913-.84 1.275c-.044.362.043.826.507 1 .464.174.638.203.855.16.218-.044.711-.305 1.465-.537.754-.232 1.61-.478 2.783-.536 1.086-.054 1.986.058 2.798.464s1.261.696 1.391.927c.131.233.213.455-.058.58-.188.087-.279.074-.463.014-.797-.261-1.759-.495-2.826-.348-1.159.16-1.68.522-1.913.754-.232.232-.448.725-.217 1.13.232.406.464.565.9.609.434.043 1.173.029 1.984-.174.812-.204 1.841-.493 2.551-.58.71-.087 1.015-.044 1.363.014.348.058.696.159.913.289.217.13.304.145.304.145l-.159.71s-.23-.043-.71-.043c-.609 0-1.203.275-1.507.68s-.449.769-.304 1.146c.145.376.435.477.77.52.332.044.71 0 .71 0s1.4-.475 1.648-.541c.25-.067.685-.038.86.006.173.044 1.072.52 1.87 1.304.796.782 1.071 1.217 1.448 1.927.377.709.967 2.335.783 3.158-.16.71-.464 1.116-.986 1.364-.332.155-.956.042-1.652-.262-.695-.305-2.319-1.276-3.318-1.913-1-.64-4.276-2.972-5.942-4.32-1.667-1.347-3.029-2.507-4.624-4.188C3.34 15.223 2.5 14.079 1.861 13.02c-.638-1.06-.986-2.218-.55-2.986.434-.77 1.057-.9 1.565-.9s1.595.16 3.087.783c1.493.623 2.204.95 2.363.932.16-.02.231-.147.174-.235-.058-.088-.333-.407-1.058-.856-.724-.45-3.1-1.768-4.42-1.855C1.7 7.819.962 8.08.73 8.268c-.231.189-.811.856-.71 2.131.102 1.275.29 2.203 1.014 3.449.725 1.247 1.073 1.666 2.493 3.203 1.421 1.536 2.856 3.072 5.639 5.492 2.783 2.421 4.783 3.521 6.609 4.551 1.826 1.03 3.565 1.565 4.507 1.536.942-.029 1.696-.202 1.986-.942.29-.738.26-1.188-.073-2.565-.333-1.376-1.145-2.768-1.84-3.666-.696-.898-1.233-1.319-1.798-1.71s-1.334-.623-1.551-.667c-.218-.043-1.478.624-1.478.624l-.03-.435s-.604.391-1.057.449c-.45.058-.697-.347-.421-.811.299-.505.84-.478 1.087-.464.246.014.667.232.667.232l.507-1.957s-.696-.464-1.652-.522c-1.492-.09-3.142.662-3.913.869-1.406.378-1.537-.174-1.522-.434.04-.745.942-1.13 1.579-1.058.779.089 2.246.435 2.652.449.406.015.899.015 1.058-.405.159-.42-.06-.913-.595-1.391-.536-.479-1.497-1.166-2.32-1.32-2.101-.39-3.84.088-5.651.725-.88.31-1.131.087-1.073-.319.062-.432.518-.849 1.406-1.145 1.087-.362 1.464-.333 1.898-.319.434.015.984.147 1.028.132.044-.016.088-.088.073-.19-.015-.1-.074-.193-.074-.193" fill="#e48f00"/><path d="M14.73 6.698s-.138.053-.224-.005c-.088-.058-.233-.218-.421-.333-.188-.116-.61-.277-1.188-.305-1.218-.057-1.682.348-2.044.928-.588.941-.346 2.396.058 3.435.406 1.043.74 1.187.724 1.695-.004.16.06.304-.23.29-.174-.01-.624-.189-1.233-.957s-.898-1.014-1.087-2.391c-.188-1.377.13-2.246.768-3.087.638-.84 1.29-1.014 2.117-1.057.826-.044 1.637.478 2.058.869.421.391.703.918.703.918m1.102-5.41c-.287.183-.572.535-.775 1.318-.202.783-.216.652-.304 1.536-.087.884-.13 1.13-.072 1.522.06.391.19.754.421 1.044.232.29.392.463.797.406.406-.059.551-.146.884-.523.334-.376.87-.956 1.406-1.347.536-.392 1.232-.594 1.783-.464.551.13 1.044.508 1.348.884.305.377.637 1.145.724 1.898.087.754.174 1.84.044 2.725-.13.883-.145 1.159-.362 1.825-.217.667-.68 1.55-.68 1.55s1.463-1.434 1.796-1.971c.334-.536.712-1.451.798-2.753.092-1.401-.069-1.863-.333-2.797a4.506 4.506 0 0 0-1.662-2.363c-.772-.56-1.809-.6-2.493-.512-.753.097-1.898.657-2.55 1.324-.652.666-.742.769-.742.769-.077-.068-.282-.257-.244-.828.062-.907.126-1.15.33-1.77.178-.543.417-1.04.447-1.178.03-.14-.086-.212-.216-.27-.13-.058-.34-.028-.34-.028" class="st2"/><path d="M14.73 2.563s-.86-.27-1.349-.399c-.488-.127-.709-.279-.976-.418-.268-.14-.361-.256-.524-.43-.163-.175-.21-.262-.21-.262s-.093.146-.116.32a.964.964 0 0 0 .303.79c.279.256.442.222.663.28.22.058.59.023.837.023.151 0 .382.24.43.407.07.244.129.547.035.71-.162.285-.279.442-.884.477-.605.035-.919-.023-1.5-.326-.582-.302-.78-.883-.86-1.29-.082-.407-.036-1.024.36-1.663.395-.64.604-.709.756-.756a.806.806 0 0 1 .546.058c.139.082.209.21.477.512.299.34.733.757 1.198 1.21.465.454.812.674.812.674v.087z" class="st0"/><path d="M30.192 13.808c-.387-.077-.606-.176-.632-.339-.025-.163.13-.491.342-.55.213-.057.348-.038.444.097.097.136.155.232.252.406.096.174.191.267.096.367-.095.101-.193.078-.309.058-.116-.02-.193-.039-.193-.039m-9.88.738c.019-.071-.242-.448-.46-.694-.217-.246-.941-1.101-1.13-1.507-.19-.406-.45-1.856-.565-2.42-.116-.566-.32-1.116-.566-1.174-.246-.059-.536.029-.652.347-.116.32-.392 1.87-.493 3.276-.102 1.406-.203 2.898-.32 3.652-.116.753-.246 1.55-.464 2.333a6.464 6.464 0 0 1-.928 1.985c-.377.536-.752.83-.797 1.227-.044.395.037.627.202.612.166-.014.348-.13.798-.595a36.83 36.83 0 0 0 1.855-2.144c.376-.493 1.232-1.406 1.754-1.884.52-.48.723-.615.723-.615s.16.557.58 1.339c.42.783 1.68 2.738 3.262 3.579 1.58.84 2.696.826 3.305.797.608-.03 2.1-.29 3.304-1.247 1.202-.956 1.926-1.807 2.594-2.681.667-.874 1.666-2.377 2.116-3.058.449-.681.672-.96.672-.96v-.234s-.093-.212-.441-.922c-.348-.71-.537-1.116-1.131-1.87s-1.406-1.666-2.174-2.145c-.768-.48-1.986-1.015-3.291-.884-1.305.13-2.16.434-3.19 1.014-1.028.58-2.318 1.71-2.55 1.942-.232.23-.362.492-.754 1.057-.34.49-.638 1.072-.681 1.188-.043.116-.052.234-.052.234l.153-.002s.565-.61 1.246-1.246c.68-.638 1.043-.884 1.942-1.42.366-.22.942-.586 1.87-.9 1.347-.455 2.213-.434 3.318-.202 1.247.26 2.783 1.26 3.957 2.912.88 1.24.98 1.562.98 1.562s-.538.532-1.284 1.307c-.857.888-1.99 2.083-2.957 2.942-.64.568-1.942 1.594-3.77 1.782-.91.093-1.833-.004-2.97-.377-.883-.29-1.75-.98-2.101-1.305-.565-.522-1.054-1.32-1.16-1.681-.316-1.084-.652-1.102-.652-1.102s-.74.073-1.841 1.13c-.917.882-1.746 1.61-1.746 1.61s.427-.928.862-2.421c.435-1.493.464-1.898.624-2.724.159-.826.334-1.652.334-1.652l.464.739s.536.71.913 1c.377.29.768.493.942.536.174.044.325.026.343-.045" fill="#5b87da"/><path d="M37.195 34.254c-.255.022-.31.077-.332.299l-.011.254-.133 4.058c0 .022.012.132.012.309.011.033.011.066.011.099 0 .287-.066.508-.165.608a1.041 1.041 0 0 1-.332.188 1.421 1.421 0 0 1-.54.143c-.167 0-.388-.067-.52-.155-.222-.155-.532-.487-.742-.774l-2.377-3.406-.12-.188-.178-.265c-.033-.056-.066-.09-.099-.09-.055 0-.099.067-.099.189 0 .033-.01.066-.01.12-.012.1-.023.156-.023.178l-.12 2.466-.012.21v.022c0 .188.077.265.353.365.377.12.631.398.631.696 0 .099-.044.176-.155.276-.243.232-.674.32-1.514.32-.52 0-.796-.033-.984-.121-.287-.122-.508-.398-.508-.642s.144-.443.354-.498l.254-.078c.144-.033.2-.21.211-.608l.077-3.03.011-.398v-.044c0-.178-.044-.255-.21-.343l-.265-.133c-.243-.122-.464-.487-.464-.763a.47.47 0 0 1 .11-.298c.1-.1.233-.155.377-.177.022 0 .276-.011.763-.044l.818-.045h.1c.166 0 .332.022.487.066.31.11.354.166.73.874l.21.409.111.199 1.582 2.74c.044.078.11.189.2.333.087.12.154.22.21.276.131.177.22.254.297.254.067 0 .111-.077.122-.188l.011-.176.011-.232.144-2.554c.011-.111.011-.2.022-.255a.594.594 0 0 0 .011-.133c0-.1-.044-.166-.155-.2l-.22-.077c-.133-.045-.31-.21-.41-.376a.502.502 0 0 1-.077-.276c0-.233.122-.366.453-.454a7.132 7.132 0 0 1 1.648-.21c.63 0 1.117.343 1.117.785 0 .243-.277.442-.663.486m5.263 3.074c.044-.277.077-.575.077-.774 0-.542-.11-.785-.542-1.183-.53-.475-.884-.63-1.437-.63-.906 0-1.879.453-2.598 1.183-.664.686-.907 1.239-.907 2.057 0 1.173.597 1.947 1.737 2.278.277.078.52.11.774.11.553 0 1.438-.198 2.101-.486.3-.133.531-.3.664-.498a.78.78 0 0 0 .1-.365c0-.287-.188-.508-.442-.508-.066 0-.188.033-.288.066l-.718.288c-.487.199-1.194.32-1.758.32-.62 0-.907-.165-.907-.542 0-.165.066-.231.276-.265l2.3-.31.31-.033c.188-.022.288-.033.31-.044h.254c.443-.022.62-.188.697-.663m-1.667-1.52c.254 0 .343.155.343.553 0 .232-.022.354-.088.42-.088.088-.309.177-.508.199l-1.283.155c-.132.022-.22.022-.276.022-.066 0-.11-.022-.11-.078 0-.122.232-.4.508-.586.608-.432 1.128-.686 1.416-.686m3.627 4.168c1.006-.012 1.238-.111 1.238-.487 0-.243-.188-.497-.476-.63-.099-.044-.155-.077-.188-.088a.295.295 0 0 1-.11-.121.517.517 0 0 1-.023-.144c0-.232.011-.53.033-.906.022-.343.033-.663.044-.951.011-.376.022-.508.044-.652 0-.066.011-.11.011-.132 0-.353-.376-.574-.984-.574-.797 0-1.438.277-1.438.62 0 .22.243.497.542.608l.231.089c.133.045.188.155.188.388v.144l-.022 1.128c-.01.43-.089.553-.376.619-.277.066-.43.21-.43.42 0 .22.197.498.418.597.144.056.321.089.641.089h.066l.586-.011m.564-5.993a.795.795 0 0 0 .066-.321.819.819 0 0 0-.233-.586.94.94 0 0 0-.42-.243 1.253 1.253 0 0 0-.233-.055c-.43 0-.752.398-.752.94 0 .232.077.376.32.553.21.166.442.254.641.254.222 0 .465-.221.608-.541m7.21 1.79a.4.4 0 0 0 .077-.264c0-.277-.187-.575-.43-.675a1.817 1.817 0 0 0-.509-.111 6.808 6.808 0 0 0-.53-.033c-.288 0-.443.044-.598.177-.11.1-.144.122-.21.122s-.122-.022-.332-.1a1.307 1.307 0 0 0-.575-.11c-.774 0-1.47.309-2.134.939-.796.75-1.326 1.813-1.326 2.676 0 .552.232.928.796 1.26.597.343 1.272.52 2.034.52.453 0 .863-.056 1.172-.166.067-.022.133-.045.177-.045.1 0 .166.089.166.21v.575c0 .64-.332.939-1.039.939-.454 0-.918-.034-1.35-.111l-.73-.111a1.38 1.38 0 0 0-.222-.022c-.254 0-.343.077-.343.276 0 .21.111.365.365.486.642.299 1.615.487 2.522.487 1.073 0 1.725-.276 1.968-.818.177-.41.244-.951.244-1.902 0-.232-.01-.563-.022-.972a28.709 28.709 0 0 1-.044-1.371c0-.597 0-.963-.01-1.084-.012-.066-.012-.133-.012-.188 0-.31.122-.432.442-.454.144-.011.232-.022.243-.022a.3.3 0 0 0 .21-.111m-2.19 1.836c0 .044.011.089.011.133 0 .465-.034.609-.155.73a1.387 1.387 0 0 1-.454.277c-.564.22-1.194.365-1.636.365-.575 0-.862-.155-.862-.453 0-.465.431-1.261.996-1.836.542-.553 1.194-.973 1.504-.973h.033c.376.044.576.486.576 1.326v.089c-.01.199-.01.309-.01.343m8.104 2.41c.664-.011.93-.144.93-.487 0-.232-.167-.487-.41-.608-.244-.121-.265-.144-.298-.287a2.252 2.252 0 0 1-.023-.321c-.022-1.304-.22-1.746-1.017-2.233-.586-.354-1.16-.51-1.902-.51-.21 0-.43.012-.652.034-.089.01-.155.01-.188.01-.21 0-.266-.132-.266-.62 0-.11 0-.352.022-.717.012-.166.012-.31.012-.421 0-.641-.298-.917-.995-.917-.929 0-1.504.232-1.504.608 0 .265.232.53.575.652l.243.089c.2.066.243.155.243.43v.046l-.109 3.504c-.01.078-.01.188-.01.32 0 .41-.057.499-.399.598-.266.077-.409.21-.409.376 0 .332.331.664.73.719.187.033.352.044.63.044 1.038 0 1.57-.211 1.57-.608 0-.266-.145-.476-.422-.61-.276-.143-.309-.2-.309-.542v-.232c.022-.254.034-.497.034-.752 0-.62.133-.751.895-.906.464-.09.708-.122.962-.122.475 0 .72.22.796.73.044.32.088.808.088 1.095 0 .232-.022.33-.066.398-.066.066-.11.088-.442.177-.276.077-.409.199-.409.375 0 .155.144.365.321.476.265.177.52.232 1.083.232h.188c.276-.012.443-.022.51-.022m6.435-1.095c.763-.542 1.161-1.161 1.161-1.803 0-1.216-1.393-2.035-3.704-2.167-.53-.023-.62-.078-.62-.332v-.044l.044-.807c.011-.09.011-.167.011-.244 0-.387-.034-.686-.1-.83-.089-.198-.42-.386-.664-.386-.089 0-.299.033-.64.099l-.62.11c-.244.046-.41.267-.41.565 0 .332.2.498.641.553.254.022.287.078.287.465v.265l-.044 3.517v.508c-.01.232-.055.287-.254.365-.265.088-.398.276-.398.519 0 .188.088.464.188.585.144.166.387.232.83.232 1.812 0 3.151-.364 4.29-1.171m-1.85-2.75c.984 0 1.758.309 1.758.718 0 .298-.365.74-.863 1.05-.64.398-1.58.752-2.012.752-.309 0-.332-.044-.332-.785v-.376l.012-.73c.011-.331.155-.452.608-.541a3.95 3.95 0 0 1 .83-.088m6.237 3.892c1.537 0 2.831-1.261 2.831-2.754 0-.63-.188-1.16-.553-1.536-.508-.542-1.48-.907-2.366-.907-.874 0-1.89.376-2.433.907-.519.486-.85 1.249-.85 1.935 0 1.316 1.491 2.355 3.371 2.355m.177-4.313c.708 0 1.227.552 1.227 1.304 0 1.162-.818 2.035-1.902 2.035-.84 0-1.449-.531-1.449-1.272 0-1.073.941-2.012 2.068-2.057l.056-.011m7.167.686c.033-.122.055-.266.055-.377 0-.376-.298-.707-.85-.94a1.046 1.046 0 0 0-.422-.1c-.265 0-.685.166-.95.376-.056.044-.1.066-.133.066-.078 0-.122-.055-.177-.21-.089-.254-.376-.365-.94-.365-.686 0-1.194.222-1.194.52 0 .255.3.597.62.697.143.055.187.088.22.166.011.033.022.066.022.099v.155l.033 1.669v.056c0 .53-.066.63-.398.675-.287.044-.508.243-.508.475 0 .376.464.663 1.061.663.62 0 1.305-.088 1.703-.221.2-.066.354-.243.354-.42 0-.211-.188-.388-.63-.576-.122-.044-.166-.088-.188-.144a.431.431 0 0 1-.022-.143c-.01-.078-.01-.144-.01-.177 0-.343.132-.995.331-1.603.121-.387.387-.73.552-.73.077 0 .121.044.121.132 0 .033-.01.089-.01.155a2.27 2.27 0 0 0-.045.42c0 .486.243.807.597.807.31 0 .663-.486.808-1.127m5.696 3.582c.664-.011.93-.144.93-.486 0-.233-.166-.487-.41-.608-.243-.122-.265-.144-.298-.288a2.433 2.433 0 0 1-.022-.321c-.022-1.304-.22-1.746-1.017-2.233-.586-.354-1.16-.51-1.902-.51-.21 0-.43.012-.652.034-.089.012-.155.012-.188.012-.21 0-.266-.133-.266-.62 0-.11 0-.353.023-.718.011-.166.011-.31.011-.42 0-.641-.298-.917-.995-.917-.929 0-1.504.232-1.504.608 0 .266.232.53.575.652l.243.089c.2.066.243.155.243.43v.046l-.11 3.505c-.01.078-.01.188-.01.32 0 .41-.057.499-.399.599-.266.077-.41.21-.41.376 0 .332.331.664.73.719.188.033.354.044.63.044 1.04 0 1.57-.21 1.57-.608 0-.266-.144-.475-.42-.608-.277-.144-.31-.2-.31-.542v-.232c.022-.254.033-.498.033-.752 0-.62.133-.752.896-.907.465-.09.708-.122.962-.122.475 0 .72.22.796.73.044.32.088.808.088 1.095 0 .232-.022.33-.066.398-.067.066-.11.089-.442.177-.276.077-.409.199-.409.376 0 .155.144.365.321.475.265.177.52.232 1.083.232h.19c.275-.011.441-.022.507-.022m3.65.044c1.537 0 2.831-1.26 2.831-2.753 0-.63-.188-1.16-.553-1.536-.508-.542-1.48-.907-2.366-.907-.874 0-1.89.376-2.433.907-.519.486-.85 1.249-.85 1.935 0 1.316 1.492 2.355 3.372 2.355m.178-4.313c.708 0 1.228.553 1.228 1.305 0 1.16-.818 2.035-1.902 2.035-.84 0-1.448-.531-1.448-1.272 0-1.072.94-2.012 2.068-2.056l.056-.011m6.07 4.312c1.537 0 2.831-1.26 2.831-2.753 0-.63-.188-1.16-.553-1.536-.509-.542-1.482-.907-2.367-.907-.873 0-1.89.376-2.433.907-.519.486-.85 1.25-.85 1.935 0 1.316 1.492 2.356 3.372 2.356m.177-4.313c.708 0 1.227.553 1.227 1.305 0 1.162-.818 2.035-1.902 2.035-.84 0-1.448-.531-1.448-1.272 0-1.072.94-2.012 2.068-2.056l.055-.011m9.156 4.456c.21-.066.288-.155.288-.332a.77.77 0 0 0-.697-.763l-.21-.022c-.155-.011-.199-.088-.22-.354l-.034-.62.056-4.134.033-.498c-.023-.508-.409-.895-.918-.895-.188 0-.796.099-1.239.199-.265.055-.42.21-.42.398 0 .232.243.52.508.586l.343.099c.21.056.254.122.254.377 0 .155 0 .276.011.353v.111c0 .266-.055.376-.199.376-.01 0-.033-.01-.044-.01l-.166-.034a.97.97 0 0 0-.188-.022c-.796 0-1.758.486-2.587 1.304-.73.718-1.029 1.305-1.029 1.99 0 .686.288 1.205.863 1.537.542.31 1.25.487 1.914.487.331 0 .674-.044 1.061-.155.144-.033.254-.055.343-.055.1 0 .166.034.265.144a.48.48 0 0 0 .31.166c.1.022.2.033.277.033.31 0 .962-.122 1.427-.265m-2.3-3.616c.055.2.077.608.077 1.26 0 .475-.078.807-.233.951-.088.088-.254.177-.486.254a3.448 3.448 0 0 1-1.117.2c-.707 0-1.138-.189-1.138-.498 0-.365.42-1.017 1.029-1.615.575-.564 1.117-.906 1.448-.906.199 0 .365.133.42.354m11.655-2.676v-.21c0-.432-.033-.542-.2-.697a.86.86 0 0 0-.541-.177c-.044 0-.387.012-1.017.033l-2.288.1c-1.172.055-1.814.121-2.057.232a.514.514 0 0 0-.288.431c0 .288.288.652.653.83.244.121.255.143.287.331.011.056.022.122.022.2l-.034 3.46c0 .2-.033.354-.089.42-.055.078-.077.078-.31.155-.299.09-.454.232-.454.442 0 .453.277.697.775.697a9.19 9.19 0 0 0 1.88-.21c.342-.088.53-.255.53-.476a.745.745 0 0 0-.21-.476c-.099-.11-.188-.155-.442-.254-.22-.088-.265-.166-.265-.387 0-.42.09-.608.3-.64l.231-.034 1.968-.32.31-.044c.321-.044.52-.21.52-.42 0-.388-.365-.675-.873-.675-.078 0-.188.011-.288.011l-1.559.144-.244.023h-.033c-.188 0-.277-.11-.277-.354V36l.066-1.073c.033-.53.144-.652.675-.729l.984-.133c.243-.033.442-.055.575-.055.221 0 .254.044.31.299 0 .01.032.121.098.331.034.11.056.177.067.21a.63.63 0 0 0 .133.255.78.78 0 0 0 .608.32c.265 0 .431-.21.442-.542l.034-.973zm2.796 6.148c1.538 0 2.83-1.26 2.83-2.754 0-.63-.187-1.16-.552-1.536-.508-.542-1.482-.907-2.366-.907-.874 0-1.891.376-2.433.907-.52.486-.852 1.25-.852 1.935 0 1.316 1.493 2.355 3.373 2.355m.178-4.312c.707 0 1.228.553 1.228 1.304 0 1.161-.818 2.034-1.902 2.034-.841 0-1.45-.53-1.45-1.27 0-1.074.94-2.014 2.069-2.058l.056-.01m6.07 4.311c1.537 0 2.83-1.26 2.83-2.754 0-.63-.188-1.16-.553-1.537-.509-.54-1.482-.907-2.366-.907-.874 0-1.891.377-2.433.907-.52.486-.852 1.25-.852 1.935 0 1.316 1.493 2.356 3.373 2.356m.177-4.312c.708 0 1.228.553 1.228 1.305 0 1.161-.818 2.034-1.902 2.034-.841 0-1.448-.53-1.448-1.27 0-1.074.94-2.014 2.067-2.058l.056-.01m9.156 4.455c.21-.066.288-.155.288-.332 0-.398-.31-.73-.697-.763l-.21-.022c-.155-.01-.2-.088-.222-.354l-.033-.619.055-4.135.033-.498c-.022-.508-.409-.895-.917-.895-.188 0-.796.1-1.239.2-.266.054-.42.21-.42.397 0 .232.243.52.508.586l.344.1c.21.054.254.121.254.375 0 .155 0 .276.011.354v.11c0 .267-.055.377-.199.377-.01 0-.033-.011-.044-.011l-.166-.033a.99.99 0 0 0-.188-.022c-.796 0-1.757.487-2.587 1.305-.73.719-1.029 1.305-1.029 1.99 0 .686.288 1.206.863 1.537.542.31 1.25.487 1.913.487.332 0 .675-.044 1.062-.155.144-.033.254-.055.343-.055.1 0 .166.033.265.144a.48.48 0 0 0 .31.166c.1.023.198.034.276.034.31 0 .962-.121 1.426-.265m-2.3-3.616c.055.199.077.609.077 1.26 0 .477-.078.808-.233.952-.088.089-.254.177-.486.255a3.448 3.448 0 0 1-1.117.199c-.707 0-1.139-.188-1.139-.497 0-.365.421-1.018 1.028-1.615.576-.564 1.117-.906 1.45-.906.2 0 .365.132.42.353m14.806.763c.432-.034.763-.321.763-.642 0-.221-.187-.497-.398-.585-.165-.078-.553-.122-.973-.122-.265 0-.696.033-1.238.088-.674.078-1.149.144-1.437.199-.287.067-.487.1-.597.1-.243.01-.298.088-.298.365 0 .154.044.32.133.464.1.155.176.22.276.22.055 0 .122 0 .2-.01a1.86 1.86 0 0 1 .33-.033c.122 0 .211.044.211.12 0 .045-.044.134-.155.288-.066.09-.12.133-.188.133-.176 0-.452-.177-1.038-.686-.554-.475-.675-.585-.675-.663 0-.055.111-.132.41-.309.253-.143.441-.254.552-.309 1.073-.597 1.394-.852 1.637-1.316.11-.199.166-.409.166-.597 0-.486-.244-.84-.863-1.216-.83-.52-1.603-.774-2.344-.774-1.46 0-2.743 1.117-2.743 2.378 0 .33.067.674.19.917.044.099.121.22.22.353.133.189.178.276.178.343 0 .088-.056.155-.199.243l-.243.143c-.729.431-1.116.807-1.338 1.305a1.55 1.55 0 0 0-.155.619c0 1.106 1.55 2.112 3.24 2.112.906 0 2.178-.243 2.742-.52l.431-.21a.572.572 0 0 1 .265-.078c.121 0 .188.022.453.155.387.188.763.299 1.051.299.32 0 .608-.233.608-.498 0-.166-.099-.321-.309-.475l-.387-.266c-.089-.078-.155-.155-.155-.21a.33.33 0 0 1 .066-.155 1.44 1.44 0 0 0 .21-.476c.044-.155.078-.255.089-.321.045-.232.066-.254.288-.277l.332-.033.697-.066m-4.777 1.249c.033.045.045.067.045.078 0 .11-.421.32-.918.464a9.112 9.112 0 0 1-.531.11 3.68 3.68 0 0 1-.608.057c-.774 0-1.272-.232-1.272-.586 0-.254.243-.575.685-.885.354-.265.763-.486.896-.486.099 0 .232.088.884.586l.597.453c.078.067.155.133.221.21m-.044-5.451c.52 0 .951.222.951.498 0 .332-.442.752-1.294 1.216l-.84.453a.42.42 0 0 1-.2.067c-.132 0-.364-.221-.476-.453a1.369 1.369 0 0 1-.1-.464c0-.408.487-.94 1.074-1.16.265-.1.575-.155.885-.155m15.084 3.583c.552-.387.995-1.151.995-1.714 0-.841-.664-1.471-1.935-1.847a9.693 9.693 0 0 0-2.81-.421c-.63 0-1.25.055-2.232.21-.265.033-.465.11-.564.2-.067.066-.111.21-.111.364 0 .388.209.675.608.796.287.1.354.19.354.465l-.011.155-.056 3.472c0 .442-.077.53-.42.575-.365.055-.498.177-.498.453 0 .475.542.873 1.183.873.088 0 .199-.011.353-.033a33.832 33.832 0 0 0 1.394-.177c.32-.056.453-.166.453-.365 0-.1-.043-.221-.121-.354-.144-.232-.354-.41-.564-.453-.2-.055-.221-.078-.244-.233-.01-.077-.01-.154-.01-.243v-.024c0-.188.055-.232.298-.254 1.029-.066 2.953-.785 3.937-1.448m-2.345-2.72c.929 0 1.803.453 1.803.918 0 .32-.398.818-.962 1.183a4.359 4.359 0 0 1-1.56.64 6.187 6.187 0 0 1-.84.09h-.033c-.2 0-.221-.045-.221-.465v-.409l.11-1.294c.035-.354.068-.399.278-.465.354-.11 1.017-.199 1.427-.199m9.422 6.004c.663-.01.929-.144.929-.487 0-.233-.166-.487-.41-.608-.242-.12-.264-.144-.298-.287a2.645 2.645 0 0 1-.021-.32c-.022-1.305-.222-1.747-1.018-2.234-.586-.354-1.161-.508-1.902-.508-.21 0-.431.011-.652.033-.09.011-.155.011-.188.011-.21 0-.266-.133-.266-.619 0-.11 0-.353.023-.718.01-.166.01-.31.01-.42 0-.642-.298-.919-.995-.919-.93 0-1.504.232-1.504.608 0 .265.232.53.575.652l.243.09c.199.065.244.154.244.43v.044l-.111 3.505c-.012.078-.012.188-.012.32 0 .41-.054.498-.398.598-.265.077-.41.21-.41.375 0 .331.333.663.73.72.189.032.355.043.63.043 1.04 0 1.57-.21 1.57-.608 0-.266-.142-.476-.418-.609-.277-.144-.31-.2-.31-.542v-.232a8.58 8.58 0 0 0 .033-.752c0-.62.132-.751.895-.906.464-.089.708-.122.962-.122.475 0 .718.221.796.73.043.321.088.808.088 1.095 0 .232-.022.332-.066.398-.067.067-.111.09-.443.178-.277.077-.41.2-.41.375 0 .155.145.365.322.476.265.177.519.232 1.083.232h.188c.276-.01.442-.022.508-.022m6.646 0c.21-.11.3-.232.3-.387 0-.265-.179-.52-.388-.586l-.31-.077c-.122-.044-.188-.099-.188-.188 0-.066.011-.154.011-.254l.022-.332.045-.63c.012-.133.012-.254.012-.387 0-1.547-.786-2.432-2.146-2.432-.663 0-1.327.243-2.112.807-.519.365-.719.63-.719.951 0 .321.155.498.432.498.044 0 .11-.012.177-.023.265-.055.398-.122.751-.364.72-.487 1.338-.774 1.682-.774.364 0 .574.21.574.552 0 .055-.01.144-.034.244-.022.122-.044.144-.188.155l-.587.078c-.972.132-2.166.63-2.775 1.161-.22.2-.387.575-.387.907 0 .685.852 1.216 1.936 1.216.387 0 .696-.034 1.14-.144l.519-.122c.045-.01.077-.01.122-.01.077 0 .12.021.155.065l.088.144c.1.143.42.254.73.254.308 0 .796-.133 1.138-.32m-2.2-1.803c.199 0 .276.066.276.221 0 .132-.166.254-.476.354a3.586 3.586 0 0 1-1.094.2h-.255c-.22 0-.32-.023-.32-.089 0-.143.398-.33 1.161-.563.243-.066.542-.12.708-.12m7.165-1.78c.033-.123.055-.266.055-.377 0-.376-.298-.708-.85-.94a1.06 1.06 0 0 0-.42-.099c-.266 0-.686.165-.952.375-.055.044-.099.066-.133.066-.077 0-.12-.055-.177-.21-.088-.255-.376-.365-.94-.365-.684 0-1.194.221-1.194.52 0 .254.3.596.62.697.144.054.188.087.221.165.011.033.023.066.023.1v.154l.034 1.67v.054c0 .531-.067.631-.398.675-.287.044-.509.243-.509.475 0 .376.465.664 1.063.664.62 0 1.305-.089 1.702-.22.2-.067.354-.244.354-.42 0-.21-.188-.388-.63-.576-.121-.044-.166-.088-.188-.144a.414.414 0 0 1-.023-.143c-.01-.078-.01-.144-.01-.177 0-.343.132-.995.331-1.603.122-.387.387-.73.553-.73.077 0 .122.044.122.133 0 .033-.01.088-.01.155a2.254 2.254 0 0 0-.045.42c0 .486.243.807.598.807.31 0 .663-.487.807-1.128m8.448 3.76c1.227 0 1.746-.178 1.746-.576 0-.21-.11-.399-.265-.465l-.254-.122c-.12-.045-.209-.255-.209-.465v-.653c-.01-1.558-.808-2.409-2.267-2.409-.31 0-.64.033-.874.1a3.76 3.76 0 0 0-.43.165c-.41.176-.466.188-.554.188-.088 0-.099 0-.254-.089a3.31 3.31 0 0 0-1.569-.398c-.32 0-.652.022-.796.034-.132.021-.232.021-.287.021a.358.358 0 0 1-.243-.077l-.166-.165a.852.852 0 0 0-.597-.243c-.309 0-.763.11-1.094.265-.21.1-.31.232-.31.442 0 .254.133.376.508.497.232.066.3.1.343.143.077.066.111.2.111.432l-.011 1.89a.814.814 0 0 1-.066.32c-.044.055-.144.122-.31.2-.298.142-.365.231-.365.43 0 .343.265.597.62.597l.353-.01h.343c.597 0 1.271-.122 1.504-.266a.328.328 0 0 0 .133-.265c0-.232-.122-.387-.41-.553-.254-.144-.353-.243-.398-.387a2.155 2.155 0 0 1-.033-.21c0-.1-.011-.166-.011-.199l.01-1.05c0-.543.498-.952 1.173-.952.376 0 .686.177.819.453.11.244.176.686.176 1.206v.387c-.011.354-.054.42-.32.476-.31.055-.465.21-.465.486 0 .166.188.376.398.465.199.088.386.121.85.121 1.139 0 1.582-.154 1.582-.53 0-.166-.122-.354-.3-.465l-.198-.12c-.177-.112-.19-.156-.19-.455 0-.033-.01-.088-.01-.155l-.022-.696v-.04c0-.22.078-.409.254-.564.343-.309.852-.519 1.272-.519.508 0 .763.597.763 1.835 0 .62-.067.818-.31.862l-.243.055c-.133.022-.255.2-.255.342 0 .42.43.686 1.128.686m7.42-.177c.21-.11.299-.233.299-.387 0-.266-.177-.52-.387-.587l-.31-.078c-.12-.045-.187-.1-.187-.188 0-.066.01-.155.01-.254l.023-.332.044-.63c.01-.133.01-.254.01-.387 0-1.548-.785-2.433-2.145-2.433-.664 0-1.327.243-2.112.807-.52.365-.72.63-.72.951 0 .321.156.498.432.498.044 0 .11-.012.176-.023.266-.056.398-.122.753-.365.718-.487 1.338-.774 1.681-.774.364 0 .575.21.575.552 0 .055-.01.144-.033.244-.023.122-.045.144-.189.155l-.586.078c-.974.132-2.168.63-2.776 1.161-.222.2-.387.575-.387.906 0 .686.851 1.217 1.935 1.217a4.32 4.32 0 0 0 1.14-.144l.52-.122c.043-.01.076-.01.121-.01.077 0 .122.021.154.065l.09.144c.1.143.42.255.73.255s.795-.132 1.138-.32m-2.2-1.802c.2 0 .276.066.276.221 0 .132-.166.254-.475.354a3.619 3.619 0 0 1-1.094.199h-.254c-.221 0-.321-.022-.321-.089 0-.143.398-.332 1.162-.564.243-.066.542-.121.707-.121m7.674-3.019v-.045c0-.21-.188-.43-.487-.586a.711.711 0 0 0-.254-.077c-.12 0-.209.055-.353.221-.056.066-.1.1-.155.1a.224.224 0 0 1-.1-.034l-.199-.1c-.132-.067-.398-.122-.652-.122-.519 0-1.205.243-1.736.62-.884.618-1.504 1.691-1.504 2.62 0 1.327 1.139 2.29 2.721 2.29.63 0 1.261-.189 1.957-.587.519-.298.729-.564.729-.907a.44.44 0 0 0-.442-.453c-.066 0-.155.033-.354.122a6.813 6.813 0 0 1-.563.265 3.576 3.576 0 0 1-.587.188c-.376.078-.73.122-1.051.122-.32 0-.664-.033-.829-.088a.628.628 0 0 1-.387-.553c0-.32.265-.906.597-1.327.475-.597 1.338-1.117 1.846-1.117.277 0 .443.177.443.465v.188c0 .431.099.62.431.785a.506.506 0 0 0 .243.077c.288 0 .453-.288.542-.95l.144-1.118zm6.36 1.426c.54-.188.84-.442.84-.708 0-.32-.289-.465-.952-.487l-.664-.022h-.198c-.63 0-.874.055-1.028.233a.405.405 0 0 0-.12.298c0 .155.02.2.153.321.244.221.287.3.287.475 0 .012 0 .034-.01.045l-.067.188-.089.221-.552 1.293-.078.2-.077.144c-.1.188-.144.232-.222.232-.066 0-.143-.078-.232-.266l-.099-.21-.664-1.25-.21-.365a.822.822 0 0 1-.089-.332c0-.122.067-.189.254-.276.211-.089.288-.167.288-.288 0-.442-.53-.719-1.404-.719-.21 0-.376.011-.465.033l-.276.055a1.968 1.968 0 0 1-.299.044c-.353.044-.464.144-.464.431 0 .387.133.564.454.642.42.11.453.122.563.265.078.1.144.232.211.387.033.067.055.122.077.155l1.46 2.886c.044.1.078.155.078.166.022.044.044.088.055.133a.39.39 0 0 1 .034.133c0 .133-.122.398-.265.597a.861.861 0 0 1-.741.41c-.177 0-.288-.045-.576-.189-.32-.154-.343-.165-.486-.199-.067-.01-.133-.022-.2-.022-.265 0-.453.177-.453.442 0 .443.365.72 1.183.907.232.044.51.077.707.077.697 0 1.272-.364 1.692-1.072.133-.22.288-.508.465-.85.066-.122.11-.21.132-.277l1.205-2.686.167-.365c.198-.464.243-.552.331-.64.088-.09.121-.11.343-.189" fill="#fffffe"/><path d="M55.505 9.023l-.32.145c-.377.174-.638.581-.668 1.046l-.029.551-.697 9.614-.058.698v.348c0 .58.145.87.523 1.074l.755.377c.407.203.755.842.755 1.336 0 .377-.175.784-.436.987-.61.435-3.254.842-5.664.842-.552 0-1.046-.291-1.424-.813-.291-.378-.523-.988-.523-1.366 0-.465.348-.756 1.365-1.104.697-.262.929-.552.929-1.162l-.03-1.453c-.03-.872-.203-1.046-1.074-1.046l-2.062.029c-1.917.029-3.72.232-4.561.465-.813.26-1.133.813-1.133 1.946 0 .407.029.726.145.988.116.319.29.464 1.016.783.755.32 1.162.842 1.162 1.51 0 1.162-1.278 1.685-4.212 1.685-.726 0-1.365-.058-2.121-.175-1.337-.204-1.976-.785-1.976-1.772 0-.522.203-.726.9-.871 1.017-.232 1.366-.552 1.366-1.336l.029-.552.174-9.934v-.552c0-.813-.088-.988-.67-1.307-1.132-.67-1.655-1.22-1.655-1.801 0-.32.145-.64.348-.814.697-.61 3.137-1.074 5.519-1.074 1.714 0 2.963.842 2.963 1.975 0 .61-.494 1.075-1.685 1.51-.204.087-.378.174-.465.26a.9.9 0 0 0-.233.466c0 .058 0 .204-.03.378l-.29 3.747v.29c0 .843.234 1.133.843 1.133h.059c.436 0 .9-.03 1.395-.058 1.336-.116 2.179-.145 2.585-.174h1.08l1.394-.087c.523-.058.842-.087.988-.116.377-.087.465-.232.493-1.104l.232-3.69c.029-.261.029-.464.029-.551 0-.407-.117-.582-.552-.813-.901-.436-.988-.493-1.308-.9-.291-.378-.407-.697-.407-1.016s.116-.668.29-.872c.174-.175.435-.32.755-.407 1.162-.29 3.427-.551 4.85-.551.93 0 1.424.203 1.83.784.32.436.495.93.495 1.365 0 .465-.291.814-.988 1.133M71.39 25.922c.552-.291.784-.61.784-1.016 0-.697-.465-1.366-1.017-1.54l-.814-.203c-.32-.117-.494-.262-.494-.494 0-.174.029-.407.029-.668l.058-.871.116-1.656c.029-.348.029-.668.029-1.016 0-4.066-2.062-6.39-5.635-6.39-1.743 0-3.486.638-5.548 2.12-1.366.958-1.889 1.655-1.889 2.498 0 .842.407 1.307 1.133 1.307.116 0 .29-.029.465-.058.697-.146 1.045-.32 1.975-.959C62.473 15.7 64.1 14.945 65 14.945c.958 0 1.51.552 1.51 1.452 0 .146-.029.378-.087.64-.059.32-.117.378-.494.406l-1.54.203c-2.556.35-5.694 1.656-7.291 3.05-.581.523-1.017 1.51-1.017 2.382 0 1.8 2.237 3.195 5.083 3.195 1.016 0 1.83-.087 2.992-.378l1.365-.32c.116-.028.203-.028.32-.028.203 0 .319.058.406.175l.232.377c.261.378 1.104.668 1.917.668s2.091-.35 2.992-.842m-5.779-4.735c.523 0 .726.174.726.58 0 .35-.435.669-1.249.93-1.046.349-2.062.523-2.876.523h-.668c-.581 0-.842-.058-.842-.232 0-.378 1.046-.872 3.05-1.482.639-.174 1.423-.319 1.859-.319m19.433-4.676c.087-.319.145-.697.145-.987 0-.987-.785-1.859-2.237-2.469-.407-.174-.755-.26-1.104-.26-.697 0-1.801.435-2.498.987-.145.116-.261.174-.349.174-.203 0-.32-.145-.464-.552-.233-.668-.988-.958-2.47-.958-1.8 0-3.137.581-3.137 1.365 0 .668.784 1.57 1.627 1.83.378.145.494.232.58.436.03.088.059.174.059.262v.407l.087 4.386v.145c0 1.395-.174 1.656-1.046 1.772-.755.117-1.336.64-1.336 1.25 0 .988 1.22 1.743 2.789 1.743 1.626 0 3.428-.232 4.473-.58.523-.176.93-.64.93-1.105 0-.552-.494-1.017-1.656-1.51-.32-.116-.436-.232-.494-.377a1.114 1.114 0 0 1-.058-.378c-.03-.203-.03-.377-.03-.464 0-.9.349-2.614.872-4.21.319-1.018 1.016-1.918 1.452-1.918.203 0 .32.117.32.35 0 .086-.03.231-.03.405a5.87 5.87 0 0 0-.116 1.104c0 1.278.639 2.12 1.568 2.12.813 0 1.743-1.278 2.12-2.962m12.81 0c.087-.319.145-.697.145-.987 0-.988-.785-1.859-2.237-2.469-.407-.175-.755-.262-1.104-.262-.697 0-1.801.436-2.498.988-.145.116-.262.174-.35.174-.202 0-.32-.145-.464-.552-.233-.668-.988-.958-2.47-.958-1.8 0-3.136.581-3.136 1.365 0 .668.784 1.568 1.627 1.83.377.145.493.232.58.435a.82.82 0 0 1 .059.261v.407l.087 4.386v.145c0 1.395-.174 1.656-1.046 1.772-.756.117-1.337.64-1.337 1.25 0 .986 1.22 1.742 2.789 1.742 1.626 0 3.427-.232 4.473-.58.523-.175.929-.64.929-1.105 0-.55-.494-1.016-1.656-1.51-.32-.116-.435-.232-.494-.377a1.138 1.138 0 0 1-.058-.378c-.03-.203-.03-.377-.03-.464 0-.9.349-2.614.872-4.212.319-1.017 1.016-1.917 1.452-1.917.203 0 .319.117.319.35 0 .086-.03.232-.03.406a5.94 5.94 0 0 0-.115 1.104c0 1.278.639 2.12 1.569 2.12.814 0 1.743-1.278 2.12-2.963m5.52 9.295c2.643-.029 3.253-.29 3.253-1.278 0-.639-.494-1.307-1.25-1.656-.261-.116-.406-.203-.493-.232a.747.747 0 0 1-.29-.32 1.426 1.426 0 0 1-.06-.377c0-.61.03-1.394.088-2.382.057-.9.087-1.743.116-2.498.029-.987.058-1.336.116-1.714 0-.174.029-.29.029-.348 0-.929-.988-1.51-2.585-1.51-2.092 0-3.776.726-3.776 1.626 0 .581.639 1.307 1.423 1.598l.61.233c.348.117.494.407.494 1.017v.378l-.06 2.962c-.03 1.133-.232 1.453-.987 1.627-.727.174-1.133.552-1.133 1.104 0 .581.522 1.307 1.104 1.57.377.144.842.231 1.684.231h.174l1.54-.029m1.48-15.743a2.07 2.07 0 0 0 .176-.842c0-.58-.203-1.133-.61-1.539a2.456 2.456 0 0 0-1.104-.639c-.29-.087-.523-.146-.61-.146-1.133 0-1.975 1.046-1.975 2.47 0 .61.203.987.842 1.451.552.436 1.162.67 1.685.67.58 0 1.22-.582 1.597-1.424m14.32 9.062c1.22 0 2.006-1.684 2.006-4.356 0-1.394-.901-2.614-1.917-2.614a1.12 1.12 0 0 0-.668.262l-.262.262a.539.539 0 0 1-.378.116c-.203 0-.523-.087-.93-.203-.493-.174-.784-.26-.93-.29a4.166 4.166 0 0 0-1.248-.175c-1.54 0-3.137.668-4.822 2.004-1.307 1.046-2.091 2.18-2.091 2.992 0 .262.087.61.29 1.046.26.581.523 1.016.784 1.25.494.493 1.133.812 3.399 1.683l2.207.9c.784.291 1.19.552 1.19.755 0 .175-.26.291-.61.291-.784 0-2.061-.116-3.02-.29a28.82 28.82 0 0 1-1.685-.378c-1.278-.32-1.86-.436-2.208-.436-.698 0-1.22.464-1.22 1.074 0 .755.58 1.25 2.265 1.86 2.353.842 4.125 1.19 6.013 1.19 2.643 0 4.328-.726 5.402-2.323.26-.378.378-.697.378-.987 0-.813-.727-1.51-2.441-2.353-1.801-.9-3.311-1.54-4.705-1.975-1.191-.378-1.831-.755-1.831-1.075 0-.582 1.714-1.656 3.573-2.237.349-.116.726-.174.929-.174.697 0 .93.32.93 1.278v.145c0 .116 0 .261.029.406.029.407.029.697.057.872.058.233.174.465.32.697.319.465.813.785 1.19.785m28.04-11.042c0-1.336-.843-2.062-2.412-2.062-.232 0-.697.03-1.336.058l-10.428.61-1.017.028c-1.22.058-1.772.493-2.033 1.51-.261 1.075-.465 2.846-.465 4.183 0 1.046.785 1.888 1.714 1.888.814 0 1.48-.9 1.656-2.265l.12-.815c.087-.784.348-1.045 1.133-1.19.407-.058.842-.117 1.075-.117.58 0 .959.203 1.017.552 0 .087.03.261.03.581v.522l-.378 9.527c0 .145-.03.35-.03.61 0 .668-.057.93-.145 1.075-.145.175-.523.35-1.161.494-1.016.262-1.365.523-1.365 1.104 0 1.278 1.278 2.033 3.399 2.033 1.423 0 3.137-.174 5.229-.523.493-.087.842-.233.987-.407.087-.088.174-.407.174-.697 0-.988-.638-1.714-1.858-2.033-.727-.233-1.017-.407-1.104-.755-.058-.146-.058-.349-.058-.756v-.116l.29-6.535c.087-1.917.203-3.166.378-3.747.232-.726.87-1.22 1.597-1.22.668 0 .959.232 1.075.9l.116.494.116.668c.175.93.407 1.336 1.017 1.801.407.29.814.435 1.249.435.349 0 .668-.087.843-.232.262-.233.435-.523.465-.843.029-.29.058-1.19.087-2.672l.029-2.092zm12 10.776c.116-.726.203-1.51.203-2.033 0-1.423-.291-2.062-1.424-3.108-1.394-1.249-2.324-1.655-3.776-1.655-2.382 0-4.938 1.191-6.826 3.108-1.744 1.801-2.382 3.253-2.382 5.402 0 3.08 1.568 5.113 4.56 5.984a7.287 7.287 0 0 0 2.033.291c1.452 0 3.776-.523 5.519-1.278.784-.348 1.394-.784 1.743-1.307.144-.203.26-.668.26-.958 0-.755-.493-1.335-1.161-1.335-.175 0-.494.086-.756.174l-1.887.755c-1.28.523-3.138.842-4.62.842-1.626 0-2.381-.436-2.381-1.423 0-.436.174-.61.726-.697l6.042-.814.813-.087c.493-.058.755-.087.813-.116h.668c1.162-.058 1.626-.494 1.83-1.743m-4.357-4.009c.668 0 .9.406.9 1.452 0 .61-.058.93-.232 1.104-.232.232-.814.464-1.337.522l-3.37.407c-.347.058-.58.058-.725.058-.174 0-.29-.058-.29-.204 0-.319.61-1.046 1.337-1.539 1.598-1.133 2.963-1.8 3.718-1.8m19.49 4.008c.118-.727.204-1.51.204-2.034 0-1.423-.29-2.062-1.423-3.108-1.394-1.249-2.323-1.656-3.776-1.656-2.381 0-4.938 1.191-6.826 3.108-1.743 1.8-2.382 3.253-2.382 5.402 0 3.08 1.569 5.112 4.56 5.983a7.298 7.298 0 0 0 2.035.291c1.453 0 3.777-.523 5.52-1.278.784-.348 1.394-.784 1.743-1.307.145-.203.26-.668.26-.958 0-.755-.493-1.336-1.161-1.336-.175 0-.494.086-.755.174l-1.888.755c-1.278.522-3.137.842-4.62.842-1.626 0-2.381-.436-2.381-1.424 0-.436.175-.61.726-.697l6.042-.814.814-.087c.494-.059.755-.087.813-.116h.668c1.163-.058 1.627-.494 1.83-1.743m-4.357-4.009c.669 0 .9.406.9 1.452 0 .61-.057.93-.231 1.104-.232.232-.814.464-1.336.522l-3.37.406c-.348.058-.58.058-.725.058-.174 0-.29-.058-.29-.203 0-.32.61-1.046 1.336-1.54 1.597-1.132 2.963-1.8 3.718-1.8m15.86 10.281c1.045-.697 1.655-1.51 1.655-2.207 0-.61-.581-1.133-1.25-1.133-.29 0-.522.116-1.131.494-.901.581-1.627.871-2.062.871-.784 0-1.133-.523-1.133-1.8 0-.437.029-.902.088-1.395l.26-2.44c.059-.697.146-.785.815-.9l.523-.087c.232-.029.494-.088.842-.116 1.772-.233 2.527-.639 2.527-1.366 0-.32-.261-.784-.64-1.22-.522-.523-.754-.61-1.916-.61h-.494c-.232.03-.406.03-.552.03-.552 0-.842-.234-.842-.699 0-.145.029-.435.087-.842.058-.378.087-.929.087-1.22 0-.958-1.075-1.714-2.5-1.714-1.044 0-1.364.785-1.51 3.66-.057.9-.32 1.278-.87 1.337l-.842.058c-1.162.087-1.888.523-1.888 1.162 0 .96.958 1.946 2.033 2.12.204.03.407.06.639.06.523.029.639.145.639.668 0 .26-.03.668-.058 1.162-.03.204-.03.378-.03.552 0 1.307.117 2.759.32 3.66.175.697.494 1.278.93 1.685.755.697 2.178 1.219 3.31 1.219.96 0 2.005-.348 2.964-.987m16.41-6.272c.117-.727.204-1.51.204-2.034 0-1.423-.29-2.062-1.423-3.108-1.395-1.25-2.324-1.655-3.777-1.655-2.382 0-4.938 1.19-6.826 3.108-1.743 1.8-2.382 3.253-2.382 5.402 0 3.079 1.568 5.112 4.56 5.984a7.288 7.288 0 0 0 2.034.29c1.452 0 3.776-.522 5.52-1.277.783-.348 1.393-.784 1.742-1.307.145-.203.261-.668.261-.958 0-.755-.494-1.336-1.162-1.336-.174 0-.494.086-.755.174l-1.888.755c-1.278.523-3.138.842-4.619.842-1.627 0-2.382-.436-2.382-1.423 0-.436.175-.61.726-.697l6.042-.814.814-.087c.494-.058.755-.087.813-.116h.668c1.162-.058 1.627-.494 1.83-1.743m-4.357-4.008c.668 0 .901.406.901 1.452 0 .61-.058.929-.232 1.104-.233.232-.814.464-1.337.523l-3.37.406c-.349.058-.58.058-.726.058-.175 0-.29-.058-.29-.203 0-.32.61-1.046 1.335-1.54 1.597-1.132 2.963-1.801 3.718-1.801m17.428 1.656c.087-.32.146-.697.146-.987 0-.988-.785-1.86-2.237-2.47-.407-.174-.755-.261-1.104-.261-.697 0-1.8.436-2.498.988-.145.116-.26.174-.348.174-.204 0-.32-.146-.466-.552-.232-.668-.987-.96-2.469-.96-1.8 0-3.137.582-3.137 1.366 0 .668.784 1.568 1.627 1.83.378.145.494.232.581.435a.85.85 0 0 1 .057.262v.406l.087 4.386v.145c0 1.394-.174 1.656-1.045 1.771-.755.117-1.336.64-1.336 1.25 0 .986 1.22 1.742 2.788 1.742 1.626 0 3.427-.232 4.473-.58.523-.175.93-.64.93-1.105 0-.55-.494-1.016-1.655-1.51-.32-.116-.436-.232-.494-.377a1.148 1.148 0 0 1-.058-.378c-.03-.204-.03-.378-.03-.465 0-.9.35-2.614.872-4.212.32-1.017 1.017-1.917 1.453-1.917.203 0 .32.116.32.35 0 .086-.03.231-.03.405a5.94 5.94 0 0 0-.115 1.104c0 1.278.639 2.12 1.569 2.12.813 0 1.742-1.277 2.12-2.962m-1.5 6.088c-.901 0-1.633.732-1.633 1.647 0 .93.732 1.655 1.633 1.655.908 0 1.626-.725 1.626-1.655 0-.916-.718-1.648-1.62-1.648h-.007zm.008.256c.73 0 1.318.622 1.318 1.398s-.587 1.4-1.318 1.391c-.733 0-1.326-.615-1.326-1.398 0-.769.593-1.39 1.318-1.39h.008zm-.316 1.56h.205c.234 0 .351.086.396.321.036.241.08.41.124.468h.307c-.028-.059-.072-.168-.117-.454-.036-.27-.146-.417-.307-.447v-.015c.198-.058.359-.205.359-.446 0-.175-.06-.3-.168-.38-.11-.081-.293-.14-.571-.14-.22 0-.367.023-.52.044v1.838h.293v-.791zm0-.85c.052-.009.117-.016.213-.016.329 0 .446.161.446.322 0 .227-.205.315-.447.315h-.213v-.622z" class="st2"/></svg>