<svg xmlns="http://www.w3.org/2000/svg" width="60.411" height="20.249" viewBox="0 0 15.984 5.358"><path d="M14.97 4.385a2.252 2.252 0 0 1-1.639.71H2.588a2.257 2.257 0 0 1-1.64-.71A2.474 2.474 0 0 1 .27 2.668C.27 1.33 1.31.24 2.588.24h10.743c.617 0 1.201.252 1.64.712.436.457.676 1.068.676 1.715 0 .65-.24 1.259-.677 1.717" fill="#fff"/><path d="M14.86 4.292a2.273 2.273 0 0 1-1.612.668H2.68c-.61 0-1.182-.238-1.613-.668A2.282 2.282 0 0 1 2.68.398h10.568a2.27 2.27 0 0 1 1.613.667c.43.431.669 1.004.669 1.613 0 .61-.24 1.182-.67 1.614m.19-3.415a2.529 2.529 0 0 0-1.802-.745H2.68A2.549 2.549 0 0 0 .132 2.678c0 .68.265 1.32.748 1.8.48.482 1.12.747 1.8.747h10.568c.681 0 1.32-.265 1.801-.747.481-.48.745-1.12.745-1.8 0-.681-.264-1.32-.745-1.801" fill="#ee2824"/><path d="M13.248.625H2.68A2.05 2.05 0 0 0 .63 2.678c0 1.133.917 2.053 2.05 2.053h10.57c1.132 0 2.05-.92 2.05-2.053A2.051 2.051 0 0 0 13.25.625" fill="#ee2824"/><path d="M15.581 5.178a.266.266 0 1 0 0-.532.265.265 0 1 0 0 .532m-.217-.267c0-.125.096-.223.217-.223.122 0 .217.098.217.223a.216.216 0 0 1-.217.223.216.216 0 0 1-.217-.223m.16.022h.054l.08.133h.053l-.085-.135c.044-.008.079-.031.079-.085 0-.06-.036-.088-.11-.088h-.117v.308h.046zm0-.041v-.095h.065c.032 0 .066.01.066.046 0 .048-.034.049-.074.049h-.057" fill="#ee2824" fill-rule="evenodd"/><path d="M2.265 1.539h1.163l-.031 1.046h.708l-.044-1.032h1.132L5.09 3.868h-.954l-.03-.807h-.721l-.014.793h-.987zm4.405.029h2.898l-.03.638H7.803V2.6h1.244l-.015.46H7.788v.394h1.69l-.015.43H6.776zM5.558 2.616h.713v.43h-.699zm4.352.444h.684v-.444h-.685zm1.195.838L11 1.568h2.187c.427 0 .753.254.753.665a.592.592 0 0 1-.49.617l.002.019c.214.047.346.158.346.441 0 .558-.529.59-.81.59l-1.883-.002" fill="#fff"/><path d="M12.145 3.478V3.05h.397c.12 0 .237.069.237.209 0 .135-.15.218-.312.218h-.322m.008-.821v-.49h.395c.16 0 .317.09.317.253 0 .136-.185.241-.349.237-.137-.003-.363 0-.363 0" fill="#ee2824"/></svg>