<svg xmlns="http://www.w3.org/2000/svg" width="573" height="390"><linearGradient id="a" gradientUnits="userSpaceOnUse" x1="15.163" y1="145.696" x2="481.962" y2="145.696"><stop offset="0" stop-color="#db2d28"/><stop offset="1" stop-color="#be292f"/></linearGradient><path fill="url(#a)" d="M404.236 76.276c48.085 4.688 50.722 19.423 55.33 39.513 4.611 20.094 22.396 162.75 22.396 162.75l-353.715-.672s15.808-4.688-18.443-6.695c-34.251-2.011-49.401-32.82-55.989-46.883C47.229 210.23 15.163 12.852 15.163 12.852s32.066 41.324 79.492 46.012c47.425 4.687 261.498 12.725 309.581 17.412z"/><linearGradient id="b" gradientUnits="userSpaceOnUse" x1="14.595" y1="145.365" x2="131.321" y2="145.365"><stop offset="0" stop-color="#db2d28"/><stop offset="1" stop-color="#be292f"/></linearGradient><path fill="url(#b)" d="M130.847 276.782l-3.168-.007s15.808-4.647-18.442-6.641c-34.25-1.993-49.402-32.545-55.988-46.493-6.587-13.945-38.654-209.692-38.654-209.692s2.005 2.562 5.754 6.476c0 0 9.6 20.942 12.891 39.586 3.29 18.644 18.644 119.542 24.127 141.476 5.484 21.935 13.162 47.157 35.096 54.836 21.933 7.675 33.997 3.633 38.384 20.459z"/><linearGradient id="c" gradientUnits="userSpaceOnUse" x1="101.341" y1="-73.324" x2="466.488" y2="291.822"><stop offset=".039" stop-color="#f69076"/><stop offset=".084" stop-color="#ec2227"/><stop offset=".264" stop-color="#f79b7d"/><stop offset=".663" stop-color="#eb2227"/><stop offset=".674" stop-color="#c61d21"/><stop offset=".689" stop-color="#9d171a"/><stop offset=".706" stop-color="#771114"/><stop offset=".724" stop-color="#570d0e"/><stop offset=".744" stop-color="#3b090a"/><stop offset=".767" stop-color="#250506"/><stop offset=".793" stop-color="#140303"/><stop offset=".826" stop-color="#090101"/><stop offset=".872" stop-color="#020000"/><stop offset="1"/></linearGradient><path fill="url(#c)" d="M470.839 276.325l11.123.021s-17.784-141.478-22.396-161.406c-4.608-19.926-7.245-34.539-55.33-39.189-48.083-4.647-262.156-12.618-309.581-17.267-47.426-4.649-79.492-45.632-79.492-45.632s-.568 6.58 7.109 15.354c0 0 15.021 33.067 65.803 36.192 71.286 4.386 261.854 16.429 289.532 18.644 27.42 2.192 61.415-3.291 70.19 25.224 8.772 28.515 23.042 168.059 23.042 168.059z"/><g fill-rule="evenodd" clip-rule="evenodd" fill="#83302E" stroke="#823434"><path d="M161.263 173.572c13.559 1.182 18.769-12.688 26.904-18.95 2.577-1.984 6.501-4.153 10.021-5.79 9.733-4.526 19.588-9.226 35.868-7.896-.817 3.748-2.11 7.02-2.638 11.056-15.538-.191-30.459 5.053-38.504 14.738-3.127 3.762-7.073 10.235-7.913 14.742-2.474 13.244 7 16.945 15.826 10.526 8.907-6.473 14.075-24.492 20.042-32.637 5.387-.86 7.777-1.317 13.187-1.58-4.844 12.539-13.63 21.141-14.242 37.902 8.804 8.767 20.247-3.675 27.957-7.368 5.777-15.472 11.7-32.239 24.264-41.588 3.062-2.278 7.678-3.675 12.66-3.158 5.385 9.764-4.083 19.961-11.079 28.953-2.377 3.055-4.965 7.169-7.912 9.998-3.53 3.397-8.68 5.04-9.494 8.427-1.28 5.346 2.456 12.248 6.332 13.161 10.326 2.432 17.739-9.975 25.318-11.581 8.938-16.175 18.647-31.581 29.54-45.8 4.862 1.818 8.327 5.024 12.13 7.896-17.742 26.333-37.358 50.803-47.473 84.755 3.042-.354 5.149-3.703 6.858-5.793 13.706-16.747 29.392-33.355 48.529-45.27 5.481-17.704 13.43-33.278 23.737-47.379 9.639-13.187 22.176-27.482 36.396-34.217 14.631-6.931 31.285-5.321 29.01 17.372-1.227 12.248-6.401 27.575-12.657 38.956-4.33 7.874-9.793 16.246-13.719 20.528-5.114 5.589-14.934 9.028-16.348-2.103-1.298-10.161 5.009-19.25 8.439-24.743 8.803 24.065 30.285-25.576 15.297-35.797-14.544-.792-20.167 9.066-27.432 18.425-6.756 8.706-11.309 17.373-16.875 28.427-5.419 10.75-11.162 28.389-11.609 42.642-.426 13.624 6.318 30.947 22.152 28.952 15.793-1.992 30.631-18.414 39.562-28.952 2.277-2.683 4.48-6.585 7.917-6.847-3.983 11.312-17.506 26.653-28.487 35.799-7.914 6.591-16.196 13.707-30.063 13.686-7.09-.013-14.713-3.64-18.993-7.366-10.159-8.861-11.535-25.662-11.602-44.22-7.514 2.518-13.393 8.453-19.521 13.686-14.109 12.057-25.508 28.158-36.394 44.217-3.838.319-5.583-1.445-8.44-2.104 1.497-20.092 8.66-34.526 14.241-50.539-7.801.141-17.461 9.967-26.372 5.265-5.428-2.861-6.26-9.819-7.387-17.897-6.237 2.753-21.714 19.155-34.812 13.686-3.449-1.433-3.514-5.916-7.386-7.896-7.017 4.174-15.131 11.811-24.792 8.95-9.112-2.699-10.68-14.228-8.966-25.795-14.917-3.839-18.276 5.825-24.265 16.845-7.399 13.621-17.128 34.334-25.846 44.75-4.104 4.9-14.253 13.429-22.682 7.895-2.807-4.336-2.545-13.439-.53-19.479 3.545-10.607 12.257-21.892 20.045-31.056 8.563-10.08 18.638-18.313 26.375-24.742 8.047-13.756 18.891-45.321 20.57-64.751.313-3.597-1.795-9.844-5.273-12.635-4.648-.765-7.994.795-11.077 3.686-6.631 6.213-16.675 22.03-20.571 34.217-3.533 11.047-5.503 22.727 5.802 24.744-1.83 7.123-8.594 9.321-15.298 11.578-7.347-1.088-11.163-5.707-14.241-11.053-2.047-9.444-.126-20.387 3.166-28.953 6.259-16.302 22.294-34.094 35.867-45.799 7.477-6.449 14.042-12.754 23.737-14.214 33.747-5.077 16.562 39.688 10.549 55.801-2.453 6.568-4.912 12.962-7.383 18.952-3.777 9.149-7.545 15.093-10.022 24.735z"/><path d="M171.289 148.833c2.471-5.989 4.93-12.384 7.383-18.952 6.013-16.113 23.198-60.878-10.549-55.801-9.695 1.459-16.261 7.765-23.737 14.214-13.573 11.705-29.607 29.497-35.867 45.799-3.292 8.566-5.213 19.509-3.166 28.953 3.078 5.346 6.894 9.965 14.241 11.053 6.704-2.257 13.468-4.455 15.298-11.578-11.306-2.017-9.335-13.697-5.802-24.744 3.896-12.187 13.94-28.003 20.571-34.217 3.083-2.891 6.428-4.45 11.077-3.686 3.478 2.791 5.586 9.038 5.273 12.635-1.679 19.43-12.522 50.995-20.57 64.751-7.736 6.429-17.812 14.662-26.375 24.742-7.788 9.164-16.5 20.448-20.045 31.056-2.015 6.04-2.277 15.144.53 19.479 8.428 5.534 18.578-2.994 22.682-7.895 8.718-10.415 18.447-31.128 25.846-44.75 5.989-11.021 9.348-20.685 24.265-16.845-1.714 11.567-.146 23.096 8.966 25.795 9.661 2.861 17.774-4.775 24.792-8.95 3.873 1.98 3.937 6.463 7.386 7.896 13.098 5.469 28.574-10.932 34.812-13.686 1.126 8.078 1.958 15.036 7.387 17.897 8.91 4.702 18.57-5.124 26.372-5.265-5.581 16.013-12.744 30.447-14.241 50.539 2.856.659 4.602 2.424 8.44 2.104 10.886-16.059 22.285-32.16 36.394-44.217 6.128-5.233 12.007-11.168 19.521-13.686.066 18.558 1.442 35.359 11.602 44.22 4.28 3.727 11.903 7.354 18.993 7.366 13.867.021 22.149-7.095 30.063-13.686 10.981-9.146 24.504-24.487 28.487-35.799-3.437.262-5.64 4.165-7.917 6.847-8.932 10.538-23.77 26.959-39.562 28.952-15.834 1.995-22.578-15.328-22.152-28.952.447-14.253 6.19-31.893 11.609-42.642 5.566-11.054 10.119-19.721 16.875-28.427 7.265-9.359 12.888-19.217 27.432-18.425 14.988 10.221-6.494 59.863-15.297 35.797-3.431 5.493-9.737 14.582-8.439 24.743 1.414 11.131 11.233 7.692 16.348 2.103 3.926-4.283 9.389-12.654 13.719-20.528 6.256-11.38 11.431-26.708 12.657-38.956 2.275-22.692-14.379-24.302-29.01-17.372-14.221 6.735-26.758 21.031-36.396 34.217-10.308 14.101-18.256 29.675-23.737 47.379-19.137 11.914-34.823 28.523-48.529 45.27-1.709 2.09-3.817 5.439-6.858 5.793 10.115-33.952 29.731-58.422 47.473-84.755-3.803-2.872-7.268-6.078-12.13-7.896-10.893 14.219-20.602 29.625-29.54 45.8-7.579 1.606-14.992 14.013-25.318 11.581-3.876-.913-7.612-7.814-6.332-13.161.814-3.387 5.964-5.029 9.494-8.427 2.947-2.829 5.535-6.943 7.912-9.998 6.996-8.992 16.464-19.189 11.079-28.953-4.982-.517-9.598.88-12.66 3.158-12.564 9.35-18.487 26.117-24.264 41.588-7.71 3.693-19.153 16.135-27.957 7.368.612-16.761 9.398-25.363 14.242-37.902-5.409.262-7.799.719-13.187 1.58-5.968 8.145-11.136 26.164-20.042 32.637-8.826 6.419-18.299 2.718-15.826-10.526.84-4.507 4.786-10.979 7.913-14.742 8.045-9.686 22.967-14.93 38.504-14.738.528-4.036 1.821-7.308 2.638-11.056-16.28-1.33-26.135 3.37-35.868 7.896-3.519 1.637-7.444 3.806-10.021 5.79-8.136 6.261-13.346 20.132-26.904 18.95 2.473-9.638 6.241-15.582 10.022-24.735z"/></g><path fill="#010101" stroke="#010101" d="M479.244 273.511s25.913 1.08 41.263 5.311c20.68 5.688 32.014 11.378 33.351 19.915 1.334 8.538 7.143 81.167 7.143 81.167s-15.595-16.958-30.947-23.536c-8.228-3.527-26.19-7.394-44.895-9.25-61.49-6.107-233.673-3.91-322.381-3.678-25.351-1.331-31.378-18.556-33.776-26.229-2.399-7.671-6.682-44.796-6.682-44.796s52.019.711 116.054.711c67.403 0 64.769 1.099 240.87.385z"/><path fill="#FFF" d="M480.583 279.802c28.026 1.6 28.62 1.316 43.63 5.006 20.214 4.966 23.295 10.521 24.6 17.973 1.305 7.452 6.705 62.379 6.705 62.379s-2.183-4.135-16.366-11.376c-13.383-6.827-39.199-9.419-57.501-10.838-73.439-5.704-254.568-5.704-315.155-3.518-24.521-.12-30.674-15.892-33.022-22.59-2.344-6.697-7.867-43.709-7.867-43.709s43.646 2.072 160.398 3.103c149.484 1.327 167.829 2.042 194.578 3.57z"/><g fill="#231F20"><path d="M153.786 330.756v-48.758l30.567.404-4.613 8.893-15.765-.206v8.952l15.765.209-4.612 8.832-11.152-.148v17.907l-10.19 3.915zM191.825 327.267l-5.298-4.721v-35.581l5.096-4.407 22.993.304 5.297 4.72v35.407l-5.297 4.581-22.791-.303zm5.095-8.887l12.869.17v-26.797l-12.869-.173v26.8zM232.839 327.789l-5.297-4.718V287.49l5.099-4.407 22.991.306 5.296 4.718v35.407l-5.296 4.582-22.793-.307zm5.096-8.883l12.872.171v-26.799l-12.872-.17v26.798zM268.765 328.25v-44.707l27.89.371 5.289 4.719v35.169l-5.494 4.817-27.685-.369zm10.185-8.817l12.602.169v-26.8l-12.602-.167v26.798zM329.384 329.037v-8.952l19.104.253v-8.953l-15.28-.205-3.824-4.527v-17.847l3.824-4.423 25.205.334v8.956l-19.099-.258v8.718l15.438.207 3.66 4.35v18.257l-3.811 4.426-25.217-.336zM371.87 329.603v-35.752l-9.993-.134v-8.955l30.57.408v8.78l-10.189-.137v35.928l-10.388-.138zM403.912 330.028l-5.301-4.722v-35.581l5.093-4.407 22.998.304 5.299 4.721v35.406l-5.299 4.58-22.79-.301zm5.09-8.886l12.872.17v-26.798l-12.872-.171v26.799zM438.106 330.48v-44.703l22.79.303 7.076 4.739v17.57c0 5.241-6.102 6.682-6.102 6.682l6.102 15.807-9.351-.125-5.86-12.836-5.484-1.167v13.854l-9.171-.124zm9.171-22.622l9.787.13c1.438.019 1.794-1.051 1.794-1.051v-10.624s-.641-1.317-1.692-1.331l-9.889-.13v13.006zM472.625 332.073l.814-44.698 21.888.658 2.955 2.113-.163 8.949-5.257-2.182-11.945-.359-.164 8.953 17.24.52-.161 8.889-17.24-.52-.164 8.954 17.24.519-4.779 8.813-20.264-.609zM501.544 334.716l.49-8.942 16.764 1.062.488-8.938-12.948-.823-3.569-4.712.974-17.823 4.062-4.225 18.23 2.441-.488 8.941-14.424-2.202-.476 8.707 13.105.834 3.425 4.524-.997 18.235-4.057 4.228-20.579-1.307z"/></g><g fill-rule="evenodd" clip-rule="evenodd" fill="#FFF"><path d="M156.877 171.379c13.559 1.182 18.768-12.689 26.903-18.951 2.578-1.984 6.501-4.153 10.021-5.789 9.734-4.525 19.589-9.225 35.868-7.897-.816 3.749-2.109 7.02-2.636 11.056-15.539-.189-30.46 5.053-38.505 14.74-3.127 3.761-7.073 10.234-7.914 14.741-2.473 13.243 7.001 16.947 15.826 10.528 8.907-6.475 14.076-24.494 20.043-32.64 5.388-.86 7.778-1.317 13.187-1.58-4.843 12.54-13.629 21.143-14.242 37.901 8.804 8.768 20.247-3.674 27.958-7.367 5.777-15.473 11.7-32.238 24.265-41.588 3.06-2.279 7.676-3.676 12.66-3.158 5.383 9.763-4.084 19.963-11.079 28.954-2.379 3.054-4.966 7.167-7.913 9.999-3.53 3.398-8.679 5.038-9.494 8.424-1.281 5.345 2.456 12.248 6.332 13.161 10.327 2.433 17.737-9.973 25.317-11.581 8.938-16.174 18.646-31.579 29.541-45.799 4.861 1.816 8.324 5.022 12.13 7.894-17.742 26.337-37.36 50.803-47.473 84.755 3.041-.351 5.148-3.701 6.857-5.792 13.706-16.747 29.391-33.357 48.53-45.27 5.479-17.703 13.429-33.278 23.736-47.38 9.641-13.186 22.174-27.482 36.397-34.217 14.631-6.93 31.282-5.321 29.01 17.372-1.229 12.249-6.403 27.575-12.66 38.957-4.326 7.873-9.793 16.244-13.715 20.529-5.118 5.589-14.935 9.028-16.352-2.104-1.295-10.162 5.011-19.25 8.438-24.742 8.808 24.064 30.289-25.577 15.302-35.798-14.545-.793-20.168 9.065-27.434 18.424-6.756 8.708-11.309 17.374-16.874 28.429-5.419 10.748-11.165 28.387-11.609 42.641-.426 13.623 6.319 30.947 22.152 28.951 15.794-1.993 30.632-18.413 39.562-28.951 2.276-2.682 4.48-6.585 7.917-6.844-3.983 11.308-17.508 26.65-28.486 35.795-7.917 6.594-16.196 13.709-30.066 13.689-7.088-.014-14.711-3.644-18.992-7.37-10.157-8.862-11.536-25.663-11.603-44.221-7.511 2.519-13.393 8.453-19.518 13.689-14.108 12.054-25.509 28.156-36.394 44.214-3.84.321-5.585-1.442-8.44-2.103 1.496-20.094 8.659-34.525 14.241-50.539-7.803.141-17.463 9.964-26.373 5.265-5.429-2.861-6.26-9.821-7.386-17.899-6.238 2.753-21.714 19.155-34.813 13.688-3.448-1.436-3.512-5.918-7.385-7.896-7.018 4.172-15.131 11.812-24.792 8.951-9.112-2.699-10.68-14.228-8.966-25.799-14.918-3.838-18.276 5.825-24.265 16.848-7.399 13.618-17.128 34.331-25.847 44.747-4.104 4.9-14.252 13.433-22.682 7.895-2.806-4.336-2.545-13.44-.529-19.479 3.545-10.607 12.257-21.893 20.045-31.054 8.563-10.083 18.638-18.313 26.375-24.744 8.048-13.757 18.891-45.32 20.57-64.751.312-3.596-1.795-9.843-5.274-12.633-4.648-.765-7.995.794-11.077 3.684-6.631 6.214-16.676 22.031-20.572 34.219-3.532 11.048-5.502 22.726 5.803 24.742-1.829 7.124-8.593 9.321-15.298 11.579-7.348-1.088-11.163-5.707-14.241-11.051-2.048-9.444-.126-20.388 3.166-28.955 6.259-16.302 22.294-34.093 35.867-45.798 7.477-6.449 14.043-12.755 23.737-14.213 33.748-5.078 16.563 39.686 10.549 55.8-2.452 6.567-4.911 12.962-7.383 18.951-3.779 9.155-7.546 15.098-10.023 24.741z"/><path d="M166.901 146.639c2.472-5.989 4.931-12.384 7.383-18.951 6.014-16.114 23.199-60.878-10.549-55.8-9.694 1.458-16.26 7.764-23.737 14.213-13.572 11.705-29.607 29.496-35.867 45.798-3.292 8.566-5.214 19.511-3.166 28.955 3.078 5.344 6.893 9.963 14.241 11.051 6.705-2.258 13.469-4.455 15.298-11.579-11.305-2.016-9.334-13.694-5.803-24.742 3.896-12.188 13.941-28.004 20.572-34.219 3.082-2.89 6.429-4.449 11.077-3.684 3.479 2.791 5.586 9.037 5.274 12.633-1.679 19.431-12.522 50.995-20.57 64.751-7.737 6.431-17.811 14.661-26.375 24.744-7.788 9.161-16.5 20.447-20.045 31.054-2.016 6.038-2.277 15.143.529 19.479 8.43 5.538 18.578-2.994 22.682-7.895 8.718-10.416 18.447-31.129 25.847-44.747 5.988-11.023 9.347-20.686 24.265-16.848-1.714 11.571-.146 23.1 8.966 25.799 9.661 2.861 17.774-4.779 24.792-8.951 3.873 1.978 3.937 6.46 7.385 7.896 13.099 5.467 28.575-10.935 34.813-13.688 1.126 8.078 1.957 15.038 7.386 17.899 8.91 4.699 18.57-5.124 26.373-5.265-5.583 16.013-12.746 30.445-14.241 50.539 2.855.66 4.601 2.424 8.44 2.103 10.885-16.058 22.286-32.16 36.394-44.214 6.125-5.237 12.007-11.171 19.518-13.689.066 18.558 1.445 35.358 11.603 44.221 4.281 3.727 11.904 7.356 18.992 7.37 13.87.02 22.149-7.096 30.066-13.689 10.979-9.146 24.503-24.487 28.486-35.795-3.437.259-5.641 4.163-7.917 6.844-8.93 10.539-23.768 26.958-39.562 28.951-15.833 1.996-22.578-15.328-22.152-28.951.444-14.254 6.19-31.893 11.609-42.641 5.565-11.055 10.118-19.72 16.874-28.429 7.266-9.358 12.889-19.217 27.434-18.424 14.987 10.221-6.494 59.862-15.302 35.798-3.428 5.492-9.733 14.581-8.438 24.742 1.417 11.132 11.233 7.693 16.352 2.104 3.922-4.285 9.389-12.656 13.715-20.529 6.257-11.382 11.431-26.708 12.66-38.957 2.272-22.692-14.379-24.302-29.01-17.372-14.224 6.735-26.757 21.031-36.397 34.217-10.308 14.102-18.258 29.677-23.736 47.38-19.14 11.912-34.824 28.522-48.53 45.27-1.709 2.091-3.816 5.441-6.857 5.792 10.113-33.952 29.731-58.418 47.473-84.755-3.806-2.872-7.269-6.078-12.13-7.894-10.896 14.22-20.604 29.625-29.541 45.799-7.58 1.608-14.99 14.013-25.317 11.581-3.876-.913-7.613-7.815-6.332-13.161.814-3.387 5.963-5.026 9.494-8.424 2.947-2.832 5.534-6.945 7.913-9.999 6.995-8.991 16.462-19.19 11.079-28.954-4.984-.518-9.6.879-12.66 3.158-12.565 9.35-18.488 26.115-24.265 41.588-7.711 3.693-19.154 16.134-27.958 7.367.613-16.759 9.399-25.362 14.242-37.901-5.408.262-7.799.719-13.187 1.58-5.967 8.146-11.136 26.165-20.043 32.64-8.825 6.419-18.298 2.715-15.826-10.528.841-4.507 4.786-10.98 7.914-14.741 8.045-9.687 22.966-14.929 38.505-14.74.527-4.036 1.82-7.307 2.636-11.056-16.279-1.328-26.134 3.372-35.868 7.897-3.519 1.636-7.443 3.805-10.021 5.789-8.135 6.262-13.344 20.133-26.903 18.951 2.476-9.644 6.243-15.587 10.023-24.741z"/></g></svg>