<svg xmlns="http://www.w3.org/2000/svg" width="41.408" height="27.676" viewBox="0 0 10.956 7.323"><g fill="#e31837" stroke-width=".353"><path d="M4.258.242c1.784-.293 3.297.02 4.663.694 1.033.51 1.83 1.702 1.894 2.575.091 1.232-.563 2.18-1.83 2.873-.911.499-1.774.745-3.238.806-.8-.01-1.33-.02-1.791-.094-.836-.134-1.251-.362-1.251-.362s1.188.314 2.98.204c2.443-.151 4.526-1.372 4.523-3.1-.002-1.031-.677-2.138-1.542-2.665C7.834.666 7.181.488 6.578.354 5.828.188 4.581.19 4.258.242"/><path d="M8.723 6.02c-.965.406-2.176.874-3.639.875-1.542 0-2.594-.295-3.31-.715C.862 5.644.229 4.63.148 3.832.032 2.707.61 1.822 1.76 1.156c.826-.48 1.7-.768 3.046-.862 1.964-.143 3.687.83 3.687.83S7.334.686 6.696.605C6.26.548 5.606.429 4.678.509 2.43.703.645 2.005.69 3.587c.027.944.624 1.877 1.434 2.338.779.443 2.059.723 2.972.735 1.75.024 3.35-.524 3.626-.64"/><path d="M3.527 1.547s-.235 1.033-.358 1.531a.753.753 0 0 1-.51.43c-.13.044-1.078.039-1.078.039l.107-.48s.45 0 .677-.008c.081-.013.116-.1.136-.175.123-.438.328-1.338.328-1.338zM3.75 2.97c-.024.075-.04.151-.004.223.059.113.172.141.28.123.108-.02.21-.084.244-.156h.358c-.12.269-.492.45-.739.45a.59.59 0 0 1-.343-.104.464.464 0 0 1-.18-.33c-.001-.024 0-.085.01-.17a1.48 1.48 0 0 1 .077-.297c.208-.543.595-.568.756-.568.276 0 .418.136.476.274.084.202.043.389 0 .555zm.61-.24c.022-.106.024-.28-.192-.29a.354.354 0 0 0-.366.29zM5.305 2.164l.008.973.416-.973h.376l-.005.973.429-.973h.376l-.691 1.388H5.84l-.01-.976-.434.976H5.02l-.093-1.388zM7.163 2.97c-.024.075-.04.151-.004.223.059.113.173.141.28.123.108-.02.21-.084.244-.156h.358c-.12.269-.491.45-.738.45a.591.591 0 0 1-.344-.104.465.465 0 0 1-.18-.33c-.001-.024 0-.085.01-.17a1.48 1.48 0 0 1 .077-.297c.208-.543.595-.568.756-.568.276 0 .418.136.477.274.083.202.043.389 0 .555zm.61-.24c.023-.106.024-.28-.192-.29a.355.355 0 0 0-.366.29zM8.97 1.685l-.402 1.867h-.364l.402-1.867zM3.28 3.741c.26 0 .918.105.723.968-.196.863-.901.968-1.161.968-.259 0-.918-.105-.722-.968.195-.863.901-.968 1.16-.968m-.364 1.61c.22 0 .56-.127.677-.642.117-.515-.165-.642-.386-.642s-.562.127-.678.642c-.116.515.165.643.387.643M5.1 4.681c.005-.087-.008-.18-.215-.18-.208 0-.252.075-.265.134-.049.215.896.059.782.561-.09.397-.516.468-.742.468-.33 0-.663-.107-.592-.47h.393c-.026.115.03.2.271.2.197 0 .263-.09.275-.142.052-.227-.888-.056-.773-.565.046-.2.237-.456.69-.456.284 0 .608.066.55.45zM6.917 5.132a.8.8 0 0 1-.783.533c-.546 0-.583-.393-.518-.679.1-.44.375-.755.867-.755.23 0 .583.097.523.522h-.387c.004-.09-.025-.231-.205-.22-.24 0-.353.225-.392.394-.033.149-.094.443.195.443.193 0 .299-.174.313-.238zM7.694 5.665c-.39 0-.69-.226-.58-.717.112-.492.515-.717.906-.717.39 0 .69.225.58.717-.112.49-.515.717-.906.717m.257-1.132c-.294 0-.404.24-.443.415-.04.174-.04.414.255.414s.404-.24.444-.414c.039-.175.039-.415-.256-.415M8.908 5.585c-.137 0-.264-.096-.264-.243 0-.15.127-.245.264-.245.14 0 .266.096.266.245 0 .147-.125.243-.266.243m0-.439c-.112 0-.2.087-.2.196 0 .107.088.195.2.195a.198.198 0 0 0 .203-.195.197.197 0 0 0-.203-.196m.061.331l-.07-.116H8.86v.116h-.055v-.272h.11c.073 0 .113.021.113.081 0 .049-.032.068-.076.072l.077.119zm-.055-.232H8.86v.075h.057c.03 0 .056-.004.056-.04 0-.03-.033-.035-.06-.035"/></g></svg>