<svg xmlns="http://www.w3.org/2000/svg" width="574.429" height="352.101" viewBox="0 0 151.984 93.16"><path fill="#fff" d="M0 0h151.984v93.16H0z"/><path fill="#fff" stroke="#fff" stroke-width="1.5874799999999998" d="M1.487 1.265H150.63v90.676H1.487z"/><path fill="#e31f26" d="M1.487 18.087H150.63v6.652H1.487zM1.487 9.665H150.63v6.652H1.487zM1.487 1.243H150.63v6.652H1.487zM1.487 26.49H150.63v6.652H1.487zM1.487 34.892H150.63v6.652H1.487zM1.487 43.295H150.63v6.652H1.487zM1.487 51.697H150.63v6.652H1.487zM1.487 60.1H150.63v6.651H1.487zM1.487 68.501H150.63v6.652H1.487zM1.487 76.904H150.63v6.652H1.487zM1.487 85.306H150.63v6.652H1.487z"/><path d="M121.396 73.902l12.428-13.13h7.352l-4.2 14.18c-2.101 3.85-4.727 3.902-4.727 3.902h-5.077l.066-4.209-4.289 4.277-6.404-.044c-4.9-.262-2.8-4.901-2.8-4.901l3.887-7.953h-1.575l-9.015 12.954H96.364c-6.214 0-4.902-7.177-4.902-7.177h-1.75c-4.726 8.228-10.328 8.052-10.328 8.052l-3.5-2.625-4.202 11.378H66.08L72.514 71.8h-2.007c-1.75 3.939-4.726 7.527-9.802 8.052-5.076.526-6.27-4.496-6.477-5.251-.137-.502-.176-1.527-.005-2.813l-1.971.012c-1.838 3.939-4.727 7.527-9.803 8.052-5.077.526-6.27-4.496-6.477-5.251-.525-1.925.382-11.718 9.103-13.304 7.702-1.4 8.052 6.302 8.052 6.302l2.287-.003c1.277-2.807 3.671-5.527 7.917-6.3 7.702-1.4 8.052 5.953 8.052 5.953h2.925l4.726-11.379h5.228l-2.602 6.652 3.326-1.4c4.989-1.838 5.602 6.127 5.602 6.127h2.275c.175-.176 2.976-7.178 9.278-7.178 7.002 0 5.602 6.04 5.602 6.04l-2.451 5.514H98.64c-1.75 0-1.4 2.625.174 2.625h6.302l6.127-8.577c-2.976-.875-1.4-3.851-1.4-3.851l1.925-4.201h5.252c-1.4 3.326.35 3.15.35 3.15h7.877l-5.427 11.729c-.875 1.575.525 2.188 1.576 1.4z" stroke-miterlimit="10" fill="#fff" stroke="#e31f26" stroke-width="1.40333232"/><g stroke-miterlimit="10" fill="#fff" stroke="#e31f26" stroke-width="6"><path d="M46.973 33.29v13.122s-12.954.087-12.954 0v-6.82c0-3.545-6.301-3.545-6.301-.088v6.925H14.414v-34.99h13.391v10.385l7.716-10.378H49.35l-10.517 14.58c3.616-.482 8.14 2.319 8.14 7.264zM51.612 11.456h13.041v34.956H51.612zM90.56 46.361h12.078V11.41H88.81v9.277l-7.352-9.267H69.729v35h13.304V35.74zM111.697 46.385h20.394c3.834 0 6.083-2.286 6.083-5.568V27.864H125.57v5.339c0 2.8-5.077 2.713-5.077-.044v-9.803c0-.656.596-1.269 1.252-1.269h12.674V11.41h-21.978c-3.255 0-5.427 2.45-5.427 5.251v24.42c0 2.8 2.118 5.305 4.683 5.305z" stroke-width="1.5874799999999998"/></g><path d="M30.645 48.145c12.9-1.474 10.228 7.726 10.228 7.726l-2.976 7.002H32.12l2.626-6.652c1.75-4.726-5.076-4.026-9.978.175-1.733 1.486-6.652 6.302-1.05 8.403 4.026 1.4 5.777 2.45 7.527 3.5 4.726 4.727-.7 10.854-5.076 10.854h-15.58l2.373-5.427h12.706c1.551 0 1.225-1.4.525-1.75-.7-.35-2.125-1.05-4.926-2.276-8.153-3.171-6.301-8.577-6.301-8.577 2.8-7.878 9.552-12.278 15.679-12.978z" stroke-miterlimit="10" fill="#fff" stroke="#e31f26" stroke-width="1.40333232"/><path d="M30.645 48.155c12.9-1.474 10.228 7.727 10.228 7.727l-2.976 7.002H32.12l2.626-6.652c1.75-4.726-5.076-4.026-9.978.175-1.733 1.485-6.652 6.302-1.05 8.402 4.026 1.4 5.777 2.451 7.527 3.501 4.726 4.727-.7 10.853-5.076 10.853h-15.58l2.373-5.426h12.706c1.551 0 1.225-1.4.525-1.75-.7-.35-2.125-1.051-4.926-2.276-8.153-3.171-6.301-8.578-6.301-8.578 2.8-7.877 9.552-12.277 15.679-12.978z" fill="#fff200"/><path d="M121.396 73.912l12.428-13.128h7.352l-4.2 14.179c-2.101 3.85-4.727 3.902-4.727 3.902h-5.077l.066-4.21-4.289 4.278-6.404-.044c-4.9-.263-2.8-4.901-2.8-4.901l3.887-7.953h-1.575l-9.015 12.954H96.364c-6.214 0-4.902-7.177-4.902-7.177h-1.75c-4.726 8.227-10.328 8.052-10.328 8.052l-3.5-2.626-4.202 11.379H66.08l6.434-16.805h-2.007c-1.75 3.938-4.726 7.526-9.802 8.052-5.076.525-6.27-4.496-6.477-5.251-.137-.502-.176-1.527-.005-2.814l-1.971.013c-1.838 3.938-4.727 7.526-9.803 8.052-5.077.525-6.27-4.496-6.477-5.251-.525-1.926.382-11.719 9.103-13.304 7.702-1.4 8.052 6.302 8.052 6.302l2.287-.003c1.277-2.808 3.671-5.528 7.917-6.3 7.702-1.4 8.052 5.952 8.052 5.952h2.925l4.726-11.378h5.228l-2.602 6.652 3.326-1.4c4.989-1.838 5.602 6.126 5.602 6.126h2.275c.175-.175 2.976-7.177 9.278-7.177 7.002 0 5.602 6.04 5.602 6.04l-2.451 5.513H98.64c-1.75 0-1.4 2.626.174 2.626h6.302l6.127-8.577c-2.976-.876-1.4-3.851-1.4-3.851l1.925-4.201h5.252c-1.4 3.325.35 3.15.35 3.15h7.877l-5.427 11.728c-.875 1.576.525 2.189 1.576 1.401z" fill="#fff200"/><path d="M47.977 67.61s-1.502-5.426-5.879.175c0 0-3.063 5.34-.525 7.177 0 0 2.889 1.226 5.152-3.15H44.2l1.4-4.202zM66.234 67.61s-1.204-5.426-5.88.175c0 0-3.063 5.34-.525 7.177 0 0 2.889 1.226 5.152-3.15h-2.526l1.4-4.202zM81.66 67.435c-3.59 3.151-4.64 7.702-4.64 7.702s5.239-1.627 7.265-5.426c1.4-2.626-.612-3.938-2.626-2.276zM99.252 67.26h3.063s1.138-1.29 0-2.276c-1.312-1.137-3.326 2.276-3.063 2.276zM130.323 73.562c2.8-.7 3.851-6.652 3.851-6.652l-5.776 6.476s-.876.876 1.925.176z" fill="none" stroke="#fff200" stroke-width=".52916"/><g fill="#e31f26"><path d="M47.977 67.6s-1.502-5.427-5.879.175c0 0-3.063 5.339-.525 7.177 0 0 2.889 1.225 5.152-3.151H44.2l1.4-4.201zM66.234 67.6s-1.204-5.427-5.88.175c0 0-3.063 5.339-.525 7.177 0 0 2.889 1.225 5.152-3.151h-2.526l1.4-4.201zM84.285 69.7c-2.026 3.8-7.264 5.427-7.264 5.427s1.05-4.551 4.638-7.702c2.014-1.663 4.027-.35 2.626 2.275zM99.252 67.25h3.063s1.138-1.29 0-2.277c-1.312-1.137-3.326 2.277-3.063 2.277zM128.398 73.376l5.776-6.477s-1.05 5.952-3.85 6.652c-2.802.7-1.926-.175-1.926-.175z"/></g><g fill="#fff"><path d="M46.973 33.36v13.122s-12.954.088-12.954 0v-6.82c0-3.545-6.301-3.545-6.301-.088V46.5H14.414v-34.99h13.391v10.386l7.716-10.379H49.35l-10.517 14.58c3.616-.482 8.14 2.32 8.14 7.264zM51.612 11.526h13.041v34.956H51.612zM90.56 46.431h12.078V11.48H88.81v9.278l-7.352-9.268H69.729v35h13.304V35.81zM111.697 46.455h20.394c3.834 0 6.083-2.286 6.083-5.568V27.934H125.57v5.339c0 2.8-5.077 2.713-5.077-.044v-9.803c0-.656.596-1.269 1.252-1.269h12.674V11.48h-21.978c-3.255 0-5.427 2.45-5.427 5.251v24.42c0 2.8 2.118 5.305 4.683 5.305z"/></g><path fill="#e31f26" d="M127.194 74.755l-.065 3.982-3.589-.35zM113.869 69.35l2.188-3.239h1.444l-1.793 3.24zM107.698 66.55l-1.05 2.362 1.905.046 2.077-2.715z"/></svg>