<?xml version="1.0" encoding="UTF-8" standalone="no"?>
<!-- Created with Inkscape (http://www.inkscape.org/) -->

<svg
   xmlns:dc="http://purl.org/dc/elements/1.1/"
   xmlns:cc="http://creativecommons.org/ns#"
   xmlns:rdf="http://www.w3.org/1999/02/22-rdf-syntax-ns#"
   xmlns:svg="http://www.w3.org/2000/svg"
   xmlns="http://www.w3.org/2000/svg"
   xmlns:sodipodi="http://sodipodi.sourceforge.net/DTD/sodipodi-0.dtd"
   xmlns:inkscape="http://www.inkscape.org/namespaces/inkscape"
   width="151.98434mm"
   height="93.160057mm"
   viewBox="0 0 151.98434 93.160057"
   version="1.1"
   id="svg48888"
   inkscape:version="0.92.0 r15299"
   sodipodi:docname="king sooperd.svg">
  <defs
     id="defs48882" />
  <sodipodi:namedview
     id="base"
     pagecolor="#ffffff"
     bordercolor="#666666"
     borderopacity="1.0"
     inkscape:pageopacity="0.0"
     inkscape:pageshadow="2"
     inkscape:zoom="1.396169"
     inkscape:cx="287.2145"
     inkscape:cy="176.0505"
     inkscape:document-units="mm"
     inkscape:current-layer="layer1"
     showgrid="false"
     fit-margin-top="0"
     fit-margin-left="0"
     fit-margin-right="0"
     fit-margin-bottom="0"
     inkscape:window-width="1280"
     inkscape:window-height="744"
     inkscape:window-x="-4"
     inkscape:window-y="-4"
     inkscape:window-maximized="1" />
  <metadata
     id="metadata48885">
    <rdf:RDF>
      <cc:Work
         rdf:about="">
        <dc:format>image/svg+xml</dc:format>
        <dc:type
           rdf:resource="http://purl.org/dc/dcmitype/StillImage" />
        <dc:title></dc:title>
      </cc:Work>
    </rdf:RDF>
  </metadata>
  <g
     inkscape:label="Layer 1"
     inkscape:groupmode="layer"
     id="layer1"
     transform="translate(99.426697,-102.2533)">
    <g
       id="g49298"
       transform="matrix(0.26458333,0,0,0.26458333,-101.19967,100.38058)">
      <rect
         id="rect49123"
         height="352.10101"
         width="574.42902"
         y="7.0780001"
         x="6.7010002"
         style="fill:#ffffff" />
      <g
         id="g49129">
	<g
   id="g49127">
		<rect
   id="rect49125"
   height="342.711"
   width="563.68597"
   y="11.86"
   x="12.322"
   style="fill:#ffffff;stroke:#ffffff;stroke-width:6" />

	</g>

</g>
      <g
         id="g49133">
	<path
   id="path49131"
   d="M 294.164,183.282"
   inkscape:connector-curvature="0"
   style="fill:#ffffff" />

</g>
      <g
         id="g49137">
	<rect
   id="rect49135"
   height="25.141001"
   width="563.68597"
   y="75.440002"
   x="12.322"
   style="fill:#e31f26" />

</g>
      <g
         id="g49141">
	<rect
   id="rect49139"
   height="25.141001"
   width="563.68597"
   y="43.609001"
   x="12.322"
   style="fill:#e31f26" />

</g>
      <g
         id="g49145">
	<rect
   id="rect49143"
   height="25.141001"
   width="563.68597"
   y="11.777"
   x="12.322"
   style="fill:#e31f26" />

</g>
      <g
         id="g49149">
	<rect
   id="rect49147"
   height="25.141001"
   width="563.68597"
   y="107.197"
   x="12.322"
   style="fill:#e31f26" />

</g>
      <g
         id="g49153">
	<rect
   id="rect49151"
   height="25.139999"
   width="563.68597"
   y="138.955"
   x="12.322"
   style="fill:#e31f26" />

</g>
      <g
         id="g49157">
	<rect
   id="rect49155"
   height="25.142"
   width="563.68597"
   y="170.711"
   x="12.322"
   style="fill:#e31f26" />

</g>
      <g
         id="g49161">
	<rect
   id="rect49159"
   height="25.141001"
   width="563.68597"
   y="202.468"
   x="12.322"
   style="fill:#e31f26" />

</g>
      <g
         id="g49165">
	<rect
   id="rect49163"
   height="25.141001"
   width="563.68597"
   y="234.226"
   x="12.322"
   style="fill:#e31f26" />

</g>
      <g
         id="g49169">
	<rect
   id="rect49167"
   height="25.141001"
   width="563.68597"
   y="265.98099"
   x="12.322"
   style="fill:#e31f26" />

</g>
      <g
         id="g49173">
	<rect
   id="rect49171"
   height="25.141001"
   width="563.68597"
   y="297.73901"
   x="12.322"
   style="fill:#e31f26" />

</g>
      <rect
         id="rect49175"
         height="25.141001"
         width="563.68597"
         y="329.496"
         x="12.322"
         style="fill:#e31f26" />
      <path
         id="path49177"
         d="m 465.519,286.391 46.974,-49.621 h 27.788 l -15.879,53.591 c -7.939,14.554 -17.863,14.748 -17.863,14.748 h -19.187 l 0.248,-15.907 -16.209,16.164 -24.204,-0.166 c -18.524,-0.992 -10.585,-18.524 -10.585,-18.524 l 14.693,-30.058 h -5.955 l -34.072,48.96 h -40.357 c -23.487,0 -18.525,-27.126 -18.525,-27.126 h -6.616 c -17.863,31.096 -39.034,30.434 -39.034,30.434 l -13.232,-9.924 -15.878,43.004 h -21.172 l 24.314,-63.514 h -7.582 c -6.616,14.886 -17.863,28.448 -37.049,30.434 -19.186,1.985 -23.701,-16.994 -24.479,-19.849 -0.518,-1.896 -0.667,-5.769 -0.021,-10.632 l -7.45,0.047 c -6.946,14.886 -17.863,28.448 -37.049,30.434 -19.187,1.985 -23.701,-16.994 -24.479,-19.849 -1.984,-7.276 1.442,-44.288 34.403,-50.281 29.11,-5.293 30.434,23.818 30.434,23.818 l 8.642,-0.011 c 4.83,-10.611 13.877,-20.891 29.924,-23.808 29.11,-5.293 30.434,22.495 30.434,22.495 h 11.054 l 17.863,-43.005 h 19.757 l -9.832,25.141 12.57,-5.292 c 18.855,-6.947 21.172,23.156 21.172,23.156 h 8.601 c 0.661,-0.663 11.247,-27.127 35.064,-27.127 26.464,0 21.172,22.825 21.172,22.825 l -9.263,20.841 h -25.141 c -6.616,0 -5.293,9.924 0.66,9.924 h 23.818 l 23.156,-32.418 c -11.247,-3.309 -5.293,-14.557 -5.293,-14.557 l 7.278,-15.877 h 19.848 c -5.293,12.57 1.323,11.908 1.323,11.908 h 29.772 l -20.51,44.328 c -3.309,5.955 1.985,8.27 5.954,5.294 z"
         stroke-miterlimit="10"
         inkscape:connector-curvature="0"
         style="fill:#ffffff;stroke:#e31f26;stroke-width:5.3039999;stroke-miterlimit:10" />
      <g
         id="g49187">
	<path
   id="path49179"
   d="m 184.237,132.898 v 49.595 c 0,0 -48.959,0.331 -48.959,0 0,-19.893 0,-25.777 0,-25.777 0,-13.399 -23.817,-13.399 -23.817,-0.331 v 26.171 H 61.179 V 50.312 h 50.613 v 39.251 l 29.161,-39.226 h 52.267 l -39.748,55.104 c 13.665,-1.819 30.765,8.767 30.765,27.457 z"
   stroke-miterlimit="10"
   inkscape:connector-curvature="0"
   style="fill:#ffffff;stroke:#e31f26;stroke-width:6;stroke-miterlimit:10" />

	
		<rect
   id="rect49181"
   height="132.117"
   width="49.290001"
   stroke-miterlimit="10"
   y="50.375999"
   x="201.769"
   style="fill:#ffffff;stroke:#e31f26;stroke-width:6;stroke-miterlimit:10" />

	<polygon
   id="polygon49183"
   points="348.975,182.302 394.626,182.302 394.626,50.198 342.36,50.198 342.36,85.263 314.572,50.236 270.245,50.236 270.245,182.519 320.526,182.519 320.526,142.16 "
   stroke-miterlimit="10"
   style="fill:#ffffff;stroke:#e31f26;stroke-width:6;stroke-miterlimit:10" />

	<path
   id="path49185"
   d="m 428.864,182.392 h 77.077 c 14.491,0 22.991,-8.639 22.991,-21.044 V 112.39 h -47.636 v 20.179 c 0,10.586 -19.187,10.255 -19.187,-0.165 v -37.05 c 0,-2.481 2.252,-4.797 4.732,-4.797 h 47.901 V 50.198 h -83.068 c -12.303,0 -20.51,9.263 -20.51,19.848 v 92.293 c 0.002,10.586 8.005,20.053 17.7,20.053 z"
   stroke-miterlimit="10"
   inkscape:connector-curvature="0"
   style="fill:#ffffff;stroke:#e31f26;stroke-width:6;stroke-miterlimit:10" />

</g>
      <path
         id="path49189"
         d="m 122.524,189.042 c 48.753,-5.571 38.658,29.203 38.658,29.203 l -11.248,26.464 h -21.833 l 9.924,-25.141 c 6.616,-17.863 -19.186,-15.218 -37.711,0.661 -6.55,5.614 -25.142,23.817 -3.97,31.757 15.216,5.294 21.833,9.264 28.449,13.233 17.863,17.862 -2.646,41.019 -19.187,41.019 H 46.725 l 8.968,-20.51 h 48.021 c 5.863,0 4.631,-5.293 1.985,-6.615 -2.647,-1.324 -8.031,-3.971 -18.617,-8.602 C 56.264,258.526 63.264,238.093 63.264,238.093 73.85,208.32 99.368,191.689 122.524,189.042 Z"
         stroke-miterlimit="10"
         inkscape:connector-curvature="0"
         style="fill:#ffffff;stroke:#e31f26;stroke-width:5.3039999;stroke-miterlimit:10" />
      <g
         id="g49205">
	<path
   id="path49191"
   d="m 122.524,189.083 c 48.753,-5.572 38.658,29.202 38.658,29.202 l -11.248,26.465 h -21.833 l 9.924,-25.142 c 6.616,-17.863 -19.186,-15.216 -37.711,0.661 -6.55,5.614 -25.142,23.818 -3.97,31.757 15.216,5.294 21.833,9.264 28.449,13.233 17.863,17.863 -2.646,41.019 -19.187,41.019 H 46.725 l 8.968,-20.509 h 48.021 c 5.863,0 4.631,-5.294 1.985,-6.617 -2.647,-1.322 -8.031,-3.97 -18.617,-8.601 -30.818,-11.985 -23.818,-32.418 -23.818,-32.418 10.586,-29.771 36.104,-46.404 59.26,-49.05 z"
   inkscape:connector-curvature="0"
   style="fill:#fff200" />

	<path
   id="path49193"
   d="m 465.519,286.431 46.974,-49.62 h 27.788 l -15.879,53.59 c -7.939,14.555 -17.863,14.748 -17.863,14.748 h -19.187 l 0.248,-15.907 -16.209,16.165 -24.204,-0.166 c -18.524,-0.992 -10.585,-18.524 -10.585,-18.524 l 14.693,-30.059 h -5.955 l -34.072,48.96 h -40.357 c -23.487,0 -18.525,-27.126 -18.525,-27.126 h -6.616 c -17.863,31.096 -39.034,30.434 -39.034,30.434 l -13.232,-9.924 -15.878,43.005 h -21.172 l 24.314,-63.515 h -7.582 c -6.616,14.886 -17.863,28.448 -37.049,30.434 -19.186,1.984 -23.701,-16.994 -24.479,-19.847 -0.518,-1.898 -0.667,-5.771 -0.021,-10.633 l -7.45,0.046 c -6.946,14.886 -17.863,28.448 -37.049,30.434 -19.187,1.984 -23.701,-16.994 -24.479,-19.847 -1.984,-7.279 1.442,-44.29 34.403,-50.283 29.11,-5.293 30.434,23.818 30.434,23.818 l 8.642,-0.01 c 4.83,-10.612 13.877,-20.892 29.924,-23.809 29.11,-5.293 30.434,22.495 30.434,22.495 h 11.054 l 17.863,-43.005 h 19.757 l -9.832,25.141 12.57,-5.292 c 18.855,-6.946 21.172,23.156 21.172,23.156 h 8.601 c 0.661,-0.663 11.247,-27.126 35.064,-27.126 26.464,0 21.172,22.825 21.172,22.825 l -9.263,20.841 h -25.141 c -6.616,0 -5.293,9.923 0.66,9.923 h 23.818 l 23.156,-32.418 C 415.9,252.026 421.854,240.78 421.854,240.78 l 7.278,-15.878 h 19.848 c -5.293,12.569 1.323,11.908 1.323,11.908 h 29.772 l -20.51,44.327 c -3.309,5.955 1.985,8.27 5.954,5.294 z"
   inkscape:connector-curvature="0"
   style="fill:#fff200" />

	<path
   id="path49195"
   d="m 188.032,262.613 c 0,0 -5.679,-20.51 -22.219,0.661 0,0 -11.578,20.179 -1.985,27.126 0,0 10.917,4.631 19.472,-11.909 h -9.547 l 5.293,-15.878 z"
   inkscape:connector-curvature="0"
   style="fill:none;stroke:#fff200;stroke-width:2" />

	<path
   id="path49197"
   d="m 257.033,262.613 c 0,0 -4.549,-20.51 -22.22,0.661 0,0 -11.578,20.179 -1.985,27.126 0,0 10.917,4.631 19.472,-11.909 h -9.548 l 5.293,-15.878 z"
   inkscape:connector-curvature="0"
   style="fill:none;stroke:#fff200;stroke-width:2" />

	<path
   id="path49199"
   d="m 315.335,261.951 c -13.563,11.909 -17.532,29.11 -17.532,29.11 0,0 19.798,-6.151 27.456,-20.51 5.293,-9.924 -2.315,-14.884 -9.924,-8.6 z"
   inkscape:connector-curvature="0"
   style="fill:none;stroke:#fff200;stroke-width:2" />

	<path
   id="path49201"
   d="m 381.826,261.29 h 11.579 c 0,0 4.301,-4.874 0,-8.603 -4.962,-4.299 -12.571,8.603 -11.579,8.603 z"
   inkscape:connector-curvature="0"
   style="fill:none;stroke:#fff200;stroke-width:2" />

	<path
   id="path49203"
   d="m 499.261,285.107 c 10.585,-2.646 14.556,-25.142 14.556,-25.142 l -21.834,24.479 c 0,10e-4 -3.309,3.309 7.278,0.663 z"
   inkscape:connector-curvature="0"
   style="fill:none;stroke:#fff200;stroke-width:2" />

</g>
      <g
         id="g49217">
	<path
   id="path49207"
   d="m 188.032,262.573 c 0,0 -5.679,-20.511 -22.219,0.661 0,0 -11.578,20.18 -1.985,27.126 0,0 10.917,4.631 19.472,-11.909 h -9.547 l 5.293,-15.878 z"
   inkscape:connector-curvature="0"
   style="fill:#e31f26" />

	<path
   id="path49209"
   d="m 257.033,262.573 c 0,0 -4.549,-20.511 -22.22,0.661 0,0 -11.578,20.18 -1.985,27.126 0,0 10.917,4.631 19.472,-11.909 h -9.548 l 5.293,-15.878 z"
   inkscape:connector-curvature="0"
   style="fill:#e31f26" />

	<path
   id="path49211"
   d="m 325.259,270.512 c -7.658,14.358 -27.456,20.51 -27.456,20.51 0,0 3.969,-17.201 17.532,-29.11 7.609,-6.286 15.217,-1.325 9.924,8.6 z"
   inkscape:connector-curvature="0"
   style="fill:#e31f26" />

	<path
   id="path49213"
   d="m 381.826,261.25 h 11.579 c 0,0 4.301,-4.874 0,-8.603 -4.962,-4.299 -12.571,8.603 -11.579,8.603 z"
   inkscape:connector-curvature="0"
   style="fill:#e31f26" />

	<path
   id="path49215"
   d="m 491.983,284.405 21.834,-24.479 c 0,0 -3.971,22.495 -14.556,25.141 -10.587,2.646 -7.278,-0.662 -7.278,-0.662 z"
   inkscape:connector-curvature="0"
   style="fill:#e31f26" />

</g>
      <g
         id="g49227">
	<path
   id="path49219"
   d="m 184.237,133.163 v 49.595 c 0,0 -48.959,0.331 -48.959,0 0,-19.893 0,-25.777 0,-25.777 0,-13.398 -23.817,-13.398 -23.817,-0.331 v 26.171 H 61.179 V 50.578 h 50.613 v 39.251 l 29.161,-39.226 h 52.267 l -39.748,55.104 c 13.665,-1.819 30.765,8.767 30.765,27.456 z"
   inkscape:connector-curvature="0"
   style="fill:#ffffff" />

	<rect
   id="rect49221"
   height="132.117"
   width="49.290001"
   y="50.640999"
   x="201.769"
   style="fill:#ffffff" />

	<polygon
   id="polygon49223"
   points="348.975,182.567 394.626,182.567 394.626,50.463 342.36,50.463 342.36,85.528 314.572,50.501 270.245,50.501 270.245,182.784 320.526,182.784 320.526,142.426 "
   style="fill:#ffffff" />

	<path
   id="path49225"
   d="m 428.864,182.656 h 77.077 c 14.491,0 22.991,-8.639 22.991,-21.043 v -48.959 h -47.636 v 20.179 c 0,10.586 -19.187,10.255 -19.187,-0.165 v -37.05 c 0,-2.48 2.252,-4.796 4.732,-4.796 h 47.901 V 50.463 h -83.068 c -12.303,0 -20.51,9.262 -20.51,19.848 v 92.293 c 0.002,10.586 8.005,20.052 17.7,20.052 z"
   inkscape:connector-curvature="0"
   style="fill:#ffffff" />

</g>
      <polygon
         id="polygon49229"
         points="487.435,289.615 487.187,304.667 473.624,303.344 "
         style="fill:#e31f26" />
      <polygon
         id="polygon49231"
         points="437.071,269.188 445.34,256.948 450.798,256.948 444.023,269.194 "
         style="fill:#e31f26" />
      <polygon
         id="polygon49233"
         points="413.749,258.603 409.78,267.534 416.98,267.706 424.832,257.445 "
         style="fill:#e31f26" />
    </g>
  </g>
</svg>
