<svg id="Layer_1" data-name="Layer 1" xmlns="http://www.w3.org/2000/svg" viewBox="0 0 1552.07 617.2"><defs><style>.cls-1{fill:#678339;}.cls-2{fill:#62423d;}</style></defs><title>MetroMarket_Logo_RGB</title><path class="cls-1" d="M2232.53,351.06s-115.22,37.48-113.33,160.48c-42.39,33.82-64.24,62.22-65.1,63.34-20.65,22.63-3.82,37.33-4.33,36.81,8.53,7.85,13.27,2.59,14.28,1.77a792.64,792.64,0,0,1,71.6-70.9c27.63,17.83,90.27,48.16,166.51,20.34.68,0,88.49-11.85,179.16-167.7C2481.32,395.19,2335.25,314.74,2232.53,351.06Zm28.67,30.17c62.1-19.5,130.65,5.58,155.59,16.39-111.51,7.08-197.7,45.77-258,85.28C2172.6,407.88,2261.2,381.23,2261.2,381.23Zm38.21,140.87c-57.53,27.1-109.29,6.27-131.21-6.14C2282.34,428.29,2381.86,409.8,2424.46,406,2373.73,501.06,2298.74,522.14,2299.41,522.1Z" transform="translate(-929.25 -288.41)"/><path class="cls-2" d="M929.25,352.59h51l-1,36.35c14.13-26.76,35.85-40.9,63.11-40.9,30.8,0,51,14.64,62.1,40.39,16.66-25.25,41.91-40.39,72.7-40.39,50,0,79.77,33.33,79.77,87.34V564.64h-51V440.44c0-29.28-10.6-45.44-39.89-45.44-29.78,0-47.46,18.18-47.46,53.52V564.64h-51V440.44c0-29.28-10.1-45.44-39.38-45.44-30.29,0-48,18.18-48,53.52V564.64h-51Z" transform="translate(-929.25 -288.41)"/><path class="cls-2" d="M1402.06,526.27c27.77,0,48-11.11,60.08-22.72l29.79,31.3c-19.69,19.69-47,34.33-89.36,34.33-72.71,0-119.66-47-119.66-110.57,0-63.11,49.48-110.57,113.09-110.57,72.2,0,113.09,53.52,109.56,127.73H1334.91C1341,506.58,1363.18,526.27,1402.06,526.27Zm52-85.83c-4.55-28.78-22.21-50-57.56-50-32.82,0-55.54,18.17-61.59,50Z" transform="translate(-929.25 -288.41)"/><path class="cls-2" d="M1689.81,352.59h51l-.51,39.89c14.14-33.33,38.37-43.92,61.59-43.92,15.15,0,25.75,3.53,34.84,9.09l-17.17,45.95c-8.08-4-16.15-7.07-27.77-7.07-30.29,0-51,17.67-51,65.13v103h-51Z" transform="translate(-929.25 -288.41)"/><path class="cls-2" d="M1828.64,458.61c0-63.11,50.49-110.57,114.61-110.57,64.62,0,114.11,47.46,114.11,110.57s-49.49,110.57-114.11,110.57C1879.13,569.19,1828.64,521.73,1828.64,458.61Zm176.2,0c0-38.87-23.73-66.13-61.59-66.13s-62.09,27.26-62.09,66.13,24.23,66.65,62.09,66.65S2004.84,497.49,2004.84,458.61Z" transform="translate(-929.25 -288.41)"/><path class="cls-2" d="M929.25,688.51h51l-1,36.35c14.13-26.76,35.85-40.89,63.11-40.89,30.8,0,51,14.64,62.1,40.39,16.66-25.25,41.91-40.39,72.7-40.39,50,0,79.77,33.33,79.77,87.34V900.55h-51V776.36c0-29.29-10.6-45.44-39.89-45.44-29.78,0-47.46,18.17-47.46,53.52V900.55h-51V776.36c0-29.29-10.1-45.44-39.38-45.44-30.29,0-48,18.17-48,53.52V900.55h-51Z" transform="translate(-929.25 -288.41)"/><path class="cls-2" d="M1379.34,726.37c-27.76,0-43.92,12.11-55.53,25.24l-29.28-29.79c18.68-22.21,43.92-37.86,88.86-37.86,51,0,89.36,28.78,89.36,91.38V900.55h-51l1.51-30.29c-15.15,22.72-35.34,34.84-66.65,34.84-41.9,0-76.24-19.7-76.24-67.15,0-43.93,35.34-63.11,83.3-63.61h58.07C1421.75,740.51,1406.6,726.37,1379.34,726.37Zm-12.11,83.3c-22.22,0-36.86,8.08-36.86,26.76,0,18.17,14.13,27.76,40.39,27.76,29.79,0,51-14.64,51-37.86V809.67Z" transform="translate(-929.25 -288.41)"/><path class="cls-2" d="M1505,688.51h51l-.51,39.89c14.14-33.33,38.38-43.92,61.6-43.92,15.15,0,25.75,3.53,34.83,9.08l-17.16,46c-8.08-4-16.15-7.07-27.77-7.07-30.3,0-51,17.66-51,65.12v103h-51Z" transform="translate(-929.25 -288.41)"/><path class="cls-2" d="M1724.15,900.55h-51V623h51V746.57c0,13.13-1.52,26.26-2.53,37.36l84.81-95.42h58.07l-78.26,88.35,88.87,123.69H1815l-64.13-90.37-26.75,27.77Z" transform="translate(-929.25 -288.41)"/><path class="cls-2" d="M1982.64,862.18c27.77,0,48-11.11,60.08-22.72l29.79,31.31c-19.69,19.69-47,34.33-89.37,34.33-72.7,0-119.65-47-119.65-110.57,0-63.11,49.47-110.57,113.09-110.57,72.2,0,113.09,53.52,109.56,127.73H1915.49C1921.55,842.49,1943.76,862.18,1982.64,862.18Zm52-85.83c-4.54-28.78-22.21-50-57.55-50-32.82,0-55.53,18.17-61.59,50Z" transform="translate(-929.25 -288.41)"/><path class="cls-2" d="M2126,828.86V731.42h-31.8V688.51H2126V624.32h51v64.19h56.55v42.91H2177v98.45c0,24.23,8.08,31.3,21.21,31.3,12.12,0,19.7-5.55,25.25-10.1l24.23,34.33c-10.6,10.1-27.27,20.2-54.52,20.2C2153.27,905.6,2126,885.41,2126,828.86Z" transform="translate(-929.25 -288.41)"/><path class="cls-2" d="M1543.94,493V395.51h-31.8V352.59h31.8V288.41h51v64.19h56.55v42.91h-56.55V494c0,24.24,8.07,31.31,21.2,31.31,12.12,0,19.7-5.55,25.25-10.1l24.23,34.33c-10.6,10.1-27.26,20.2-54.52,20.2C1571.21,569.69,1543.94,549.49,1543.94,493Z" transform="translate(-929.25 -288.41)"/><path class="cls-2" d="M2271.34,624.32V629h-9.07v23.65h-5.63V629h-9v-4.7ZM2302,652.67l-1-16.67c-.1-2.19-.1-4.8-.21-7.92h-.31c-.74,2.5-1.56,5.83-2.4,8.44l-5.11,15.74h-5.83l-5-16.16c-.52-2.08-1.46-5.52-2.09-8h-.31c0,2.6-.1,5.42-.2,7.92l-1,16.67H2273l2.09-28.35h8.54l4.8,13.86a66.13,66.13,0,0,1,1.87,7.2h.21c.62-2.51,1.36-5,1.87-7l4.9-14.07h8.23l2.09,28.35Z" transform="translate(-929.25 -288.41)"/></svg>