<svg xmlns="http://www.w3.org/2000/svg" width="383.327" height="85.19"><path fill="#231F20" d="M249.973 69.014c-16.087 0-26.111-17.768-26.111-34.374 0-16.617 10.024-34.379 26.111-34.379 16.076 0 26.12 17.762 26.12 34.379 0 16.606-10.044 34.374-26.12 34.374m0-65.823c-10.345 0-14.836 18.593-14.836 31.448 0 12.845 4.491 31.433 14.836 31.433 10.344 0 14.826-18.588 14.826-31.433 0-12.855-4.483-31.448-14.826-31.448"/><path fill="#231F20" d="M318.911 49.266V7.729c0-1.626-.211-3.227-3.902-3.227-.37 0-1.04-.215-1.04-1.271 0-1.021.67-1.266 1.04-1.266h11.896c.36 0 1.03.245 1.03 1.266 0 1.056-.67 1.271-1.03 1.271-3.712 0-3.912 1.876-3.912 3.227v57.834c0 2.631-2.641 6.412-5.922.92-3.252-5.492-30.633-50.996-30.633-50.996V61.13c0 2.621 2.161 3.352 5.862 3.352.37 0 1.03.21 1.03 1.271 0 1.021-.66 1.271-1.03 1.271h-15.326c-.36 0-1.011-.25-1.011-1.271 0-1.061.65-1.271 1.011-1.271 3.731 0 5.872-.96 5.872-3.352V7.863c0-2.386-2.141-3.361-5.872-3.361-.36 0-1.011-.215-1.011-1.271 0-1.021.65-1.266 1.011-1.266h12.225c1.061 0 1.791-.145 2.752 1.266.959 1.406 26.96 46.035 26.96 46.035M222.231 67.032c.359 0 1.03-.25 1.03-1.28 0-1.061-.671-1.261-1.03-1.261-3.712 0-5.873-.98-5.873-3.361V7.868c0-2.396 2.161-3.361 5.873-3.361.359 0 1.03-.215 1.03-1.28 0-1.016-.671-1.271-1.03-1.271h-21.789c-.36 0-1.011.255-1.011 1.271 0 1.065.65 1.28 1.011 1.28 3.731 0 5.872.966 5.872 3.361V61.13c0 2.381-2.141 3.361-5.872 3.361-.36 0-1.011.2-1.011 1.261 0 1.03.65 1.28 1.011 1.28h21.789zM174.481 55.868v-48c0-2.396 2.151-3.361 5.862-3.361.36 0 1.021-.215 1.021-1.28 0-1.011-.66-1.261-1.021-1.261h-21.799c-.36 0-1.011.25-1.011 1.261 0 1.065.65 1.28 1.011 1.28 3.731 0 5.872.966 5.872 3.361V61.13c0 2.381-2.141 3.361-5.872 3.361-.36 0-1.011.2-1.011 1.261 0 1.03.65 1.28 1.011 1.28h37.295c.351 0 1.021-.25 1.021-1.28V51.387c0-1.541-1.87-1.541-1.87 0 0 1.521-1.861 13.325-13.646 13.325-5.472 0-6.863-2.301-6.863-8.844M152.232 67.032c.37 0 1.011-.25 1.011-1.28 0-1.061-.641-1.261-1.011-1.261-3.712 0-5.862-.98-5.862-3.361V7.868c0-2.396 2.15-3.361 5.862-3.361.37 0 1.011-.215 1.011-1.28 0-1.016-.641-1.271-1.011-1.271h-21.789c-.36 0-1.021.255-1.021 1.271 0 1.065.66 1.28 1.021 1.28 3.722 0 5.862.966 5.862 3.361V61.13c0 2.381-2.141 3.361-5.862 3.361-.36 0-1.021.2-1.021 1.261 0 1.03.66 1.28 1.021 1.28h21.789z"/><path fill="#231F20" d="M111.966 63.401l17.237-55.533c.74-2.571 1.46-3.361 5.182-3.361.37 0 1.021-.215 1.021-1.28 0-1.016-.65-1.261-1.021-1.261h-15.756c-.381 0-1.021.245-1.021 1.261 0 1.065.64 1.28 1.021 1.28 3.711 0 5.862.976 5.862 3.361l-12.075 40.877-12.365-40.877c0-2.386 1.07-3.361 4.792-3.361.37 0 1.021-.215 1.021-1.28 0-1.016-.65-1.261-1.021-1.261H83.054c-.359 0-1.021.245-1.021 1.261 0 1.065.661 1.28 1.021 1.28 3.712 0 5.452.91 6.272 3.361l16.537 55.533c1.341 3.671 3.182 8.924 6.103 0M370.432 21.319c0 1.79-.64 2.551-2.051 2.551-2.421 0-2.161-3.321-5.763-12.14-2.29-5.628-4.722-8.299-10.594-8.299-6.643 0-11.114 5.232-11.114 13.15 0 7.543 2.801 9.214 15.596 18.532 9.834 7.163 18.138 13.551 18.138 25.315 0 12.266-9.204 24.53-27.341 24.53-6.393 0-17.388-2.561-17.388-7.283 0-19.168.771-20.068 2.941-20.068 2.812 0 1.4 2.821 4.972 12.025 3.082 7.793 7.434 11.755 14.066 11.755 7.673 0 13.285-5.753 13.285-14.186 0-22.62-34.244-19.818-34.244-45.884 0-10.095 8.554-20.449 22.239-20.449 9.193 0 15.727 1.791 16.617 3.062.64.9.64 2.051.64 3.707v13.682zM98.13 64.531c-3.701 0-5.441-.92-6.263-3.371L75.331 5.633c-1.341-3.667-3.172-8.919-6.103 0L51.981 61.16c-.721 2.581-1.451 3.371-5.172 3.371-.37 0-1.021.2-1.021 1.261 0 1.03.65 1.28 1.021 1.28h15.756c.381 0 1.021-.25 1.021-1.28 0-1.061-.64-1.261-1.021-1.261-3.711 0-5.853-.98-5.853-3.371l4.872-16.507H76.16l4.992 16.507c0 2.391-1.08 3.371-4.802 3.371-.37 0-1.021.2-1.021 1.261 0 1.03.65 1.28 1.021 1.28h21.78c.37 0 1.031-.25 1.031-1.28 0-1.061-.661-1.261-1.031-1.261M62.556 41.357l6.232-21.074 6.373 21.074H62.556zM54.832 23.37c0 12.649-7.803 23.004-20.578 23.004-5.192 0-9.454-.61-11.895-1.615v32.498c0 2.381 4.821 3.361 8.543 3.361.351 0 1.011.21 1.011 1.28 0 1.011-.66 1.261-1.011 1.261H3.111c-.36 0-1.021-.25-1.021-1.261 0-1.07.66-1.28 1.021-1.28 3.711 0 6.963-.98 6.963-3.361V6.607c0-2.386-3.251-3.361-6.963-3.361-.36 0-1.021-.215-1.021-1.271C2.09.954 2.75.704 3.111.704h27.791c11.566.001 23.93 9.636 23.93 22.666M22.619 39.031c0 3.102 1.591 3.791 5.412 3.791 7.903 0 14.096-8.338 14.096-20.388 0-12.445-6.052-19.073-11.994-19.073-5.803 0-7.514 1.856-7.514 5.298v30.372zM249.332 69.134c-16.187 0-26.271-17.857-26.271-34.569C223.062 17.857 233.146 0 249.332 0c16.177 0 26.261 17.857 26.261 34.564 0 16.712-10.084 34.57-26.261 34.57m0-66.193c-10.414 0-14.926 18.708-14.926 31.623 0 12.931 4.512 31.638 14.926 31.638 10.404 0 14.927-18.707 14.927-31.638 0-12.915-4.523-31.623-14.927-31.623"/><path fill="#231F20" d="M318.661 49.285V7.514c0-1.651-.181-3.247-3.922-3.247-.37 0-1.041-.22-1.041-1.29 0-1.025.671-1.271 1.041-1.271h11.975c.37 0 1.021.245 1.021 1.271 0 1.07-.65 1.29-1.021 1.29-3.741 0-3.932 1.871-3.932 3.247v58.158c0 2.651-2.671 6.453-5.942.931-3.291-5.522-30.833-51.306-30.833-51.306V61.21c0 2.661 2.161 3.382 5.893 3.382.37 0 1.041.22 1.041 1.28 0 1.021-.671 1.28-1.041 1.28h-15.406c-.36 0-1.021-.26-1.021-1.28 0-1.061.66-1.28 1.021-1.28 3.742 0 5.902-.98 5.902-3.382V7.644c0-2.406-2.16-3.377-5.902-3.377-.36 0-1.021-.22-1.021-1.29 0-1.025.66-1.271 1.021-1.271h12.295c1.061 0 1.791-.136 2.751 1.271.98 1.419 27.121 46.308 27.121 46.308M221.431 67.152c.37 0 1.021-.25 1.021-1.28 0-1.07-.65-1.28-1.021-1.28-3.741 0-5.902-.98-5.902-3.382V7.639c0-2.406 2.161-3.377 5.902-3.377.37 0 1.021-.205 1.021-1.28 0-1.025-.65-1.28-1.021-1.28h-21.909c-.37 0-1.03.255-1.03 1.28 0 1.075.66 1.28 1.03 1.28 3.731 0 5.883.971 5.883 3.377V61.21c0 2.401-2.151 3.382-5.883 3.382-.37 0-1.03.21-1.03 1.28 0 1.03.66 1.28 1.03 1.28h21.909zM173.391 55.918V7.648c0-2.411 2.171-3.392 5.903-3.392.359 0 1.03-.205 1.03-1.28 0-1.025-.671-1.271-1.03-1.271h-21.92c-.37 0-1.02.245-1.02 1.271 0 1.075.649 1.28 1.02 1.28 3.742 0 5.903.98 5.903 3.392V61.21c0 2.401-2.161 3.382-5.903 3.382-.37 0-1.02.22-1.02 1.28 0 1.021.649 1.271 1.02 1.271h37.506c.36 0 1.011-.25 1.011-1.271V51.406c0-1.541-1.861-1.541-1.861 0s-1.86 13.405-13.735 13.405c-5.493.001-6.904-2.3-6.904-8.893M151.012 67.152c.37 0 1.03-.25 1.03-1.28 0-1.07-.66-1.28-1.03-1.28-3.731 0-5.893-.98-5.893-3.382V7.639c0-2.406 2.161-3.377 5.893-3.377.37 0 1.03-.205 1.03-1.28 0-1.025-.66-1.28-1.03-1.28h-21.909c-.37 0-1.021.255-1.021 1.28 0 1.075.65 1.28 1.021 1.28 3.742 0 5.902.971 5.902 3.377V61.21c0 2.401-2.16 3.382-5.902 3.382-.37 0-1.021.21-1.021 1.28 0 1.03.65 1.28 1.021 1.28h21.909z"/><path fill="#231F20" d="M110.525 63.501l17.337-55.862c.721-2.581 1.471-3.382 5.202-3.382.38 0 1.03-.2 1.03-1.28 0-1.021-.65-1.28-1.03-1.28h-15.847c-.38 0-1.04.26-1.04 1.28 0 1.08.66 1.28 1.04 1.28 3.722 0 5.893.985 5.893 3.382l-12.145 41.127L98.521 7.639c0-2.396 1.09-3.382 4.832-3.382.36 0 1.03-.2 1.03-1.28 0-1.021-.67-1.28-1.03-1.28h-21.91c-.37 0-1.03.26-1.03 1.28 0 1.08.66 1.28 1.03 1.28 3.731 0 5.482.926 6.303 3.382l16.637 55.862c1.35 3.691 3.181 8.974 6.142 0M370.481 21.169c0 1.806-.64 2.571-2.051 2.571-2.44 0-2.19-3.347-5.782-12.21-2.32-5.652-4.762-8.358-10.664-8.358-6.703 0-11.185 5.276-11.185 13.245 0 7.578 2.821 9.249 15.666 18.633 9.914 7.203 18.258 13.625 18.258 25.46 0 12.325-9.244 24.67-27.501 24.67-6.423 0-17.478-2.561-17.478-7.322 0-19.288.771-20.179 2.941-20.179 2.831 0 1.431 2.831 5.021 12.075 3.092 7.854 7.464 11.824 14.146 11.824 7.713 0 13.365-5.782 13.365-14.266 0-22.744-34.454-19.918-34.454-46.144C330.763 11.019 339.376.6 353.142.6c9.234 0 15.807 1.801 16.697 3.091.64.891.64 2.051.64 3.731v13.747zM96.609 64.632c-3.741 0-5.472-.921-6.303-3.382L73.67 5.388c-1.351-3.687-3.191-8.974-6.143 0L50.19 61.25c-.73 2.592-1.471 3.382-5.202 3.382-.38 0-1.03.22-1.03 1.29 0 1.021.65 1.271 1.03 1.271h15.847c.37 0 1.03-.25 1.03-1.271 0-1.07-.66-1.29-1.03-1.29-3.741 0-5.902-.98-5.902-3.382l4.912-16.606h14.656l5.021 16.606c0 2.401-1.09 3.382-4.822 3.382-.37 0-1.03.22-1.03 1.29 0 1.021.66 1.271 1.03 1.271h21.909c.37 0 1.021-.25 1.021-1.271 0-1.07-.651-1.29-1.021-1.29m-35.784-23.31l6.263-21.193L73.5 41.322H60.825zM53.042 23.234c0 12.721-7.844 23.14-20.688 23.14-5.223 0-9.504-.625-11.965-1.626v32.688c0 2.401 4.852 3.382 8.583 3.382.37 0 1.03.2 1.03 1.28 0 1.021-.66 1.28-1.03 1.28H1.021c-.36 0-1.021-.26-1.021-1.28 0-1.08.66-1.28 1.021-1.28 3.741 0 7.003-.98 7.003-3.382V6.383c0-2.406-3.262-3.392-7.003-3.392C.66 2.991 0 2.786 0 1.721 0 .686.66.431 1.021.431h27.951c11.644 0 24.07 9.688 24.07 22.803M20.648 38.991c0 3.111 1.591 3.812 5.442 3.812 7.953 0 14.186-8.394 14.186-20.514 0-12.515-6.103-19.183-12.064-19.183-5.833 0-7.563 1.871-7.563 5.332v30.553zM374.794 80.908c0-2.351 1.9-4.252 4.281-4.252a4.248 4.248 0 0 1 4.252 4.252c0 2.371-1.9 4.282-4.252 4.282a4.267 4.267 0 0 1-4.281-4.282m8.033 0c0-2.07-1.691-3.731-3.752-3.731-2.081 0-3.762 1.661-3.762 3.731a3.76 3.76 0 0 0 3.762 3.771c2.061.001 3.752-1.68 3.752-3.771m-1.631 2.402h-.69l-1.37-2.211h-1.07v2.211h-.581v-4.772h2.081c.4 0 .801.021 1.171.23.34.19.53.63.53 1.03 0 .94-.671 1.28-1.521 1.301l1.45 2.211zm-2.241-2.671c.681 0 1.711.119 1.711-.86 0-.73-.65-.82-1.24-.82h-1.36v1.681h.889z"/></svg>