<svg id="Layer_1" data-name="Layer 1" xmlns="http://www.w3.org/2000/svg" viewBox="0 0 2694.16 466.73"><defs><style>.cls-1{fill:#243443}</style></defs><path class="cls-1" d="M965.47 650.52h101.45c47.8 0 69.37-28.57 69.37-61.21s-21.57-61.21-69.37-61.21H965.47zm-67.61 0V464h174.3c81.61 0 131.75 53.64 131.75 125.34s-50.14 125.34-131.75 125.34H965.47v113.43h-67.61V714.65h-18.73a32.06 32.06 0 1 1 0-64.13zm358.42-194.65a33.22 33.22 0 1 1-33.22 33.22 33.24 33.24 0 0 1 33.22-33.22zm-29.78 89.91h59.55v277.14h-59.55zm307.5 90.47c-16-24.63-38.36-41.8-72.15-41.8-52.1 0-89.89 40.07-89.89 89.89s37.79 89.91 89.89 89.91c32.65 0 56.12-16.63 72.15-41.81l52.12 30.92c-24.62 38.94-71.58 67-124.26 67-96.76 0-152.89-72.74-152.89-146s56.12-146 152.89-146c59 0 97.35 28.05 124.26 67zm72.92 14.89V463.33h59.55v187.81h8l95.08-105.34h72.15l-119.11 130.42 123.69 146.7h-70.44l-95.65-115.68h-13.71v115.68h-59.55V651.14zm369.8-105.36h59.55v34.93h1.15c16.61-25.77 46.95-42.37 84.75-42.37 58.41 0 107.64 48.67 107.64 117.38v167.2h-59.55v-154c0-50.39-26.34-71-65.86-71-38.36 0-68.14 24.62-68.14 69.86v155.14h-59.55zm407.84 172.91c26.9 28.64 64.71 48.68 106.5 48.68 50.39-.57 85.9-19.47 85.9-53.83 0-80.16-231.9-2.85-231.9-149.44 0-64.13 67-108.23 148.87-108.23 59.55 0 107.65 18.9 143.16 55l-49.26 44.08c-32.63-32.08-62.41-42.95-97.33-42.95-55 0-75.59 26.92-75.59 48.69 0 80.73 231.91 0 231.91 149.44 0 75-76.16 120.26-158.61 120.26a213.13 213.13 0 0 1-154-66.42zm516.11 70.45h-1.13c-18.92 25.19-53.27 41.23-91.06 41.23-91 0-143.73-74.45-143.73-146 0-68.14 56.7-146 146.59-146 41.24 0 72.72 17.75 88.2 41.23h1.13v-33.82h59.55v277.14h-59.55zm-84.74-14.88c47 0 87-40.09 87-89.91s-40.07-89.89-87-89.89c-48.11 0-88.18 40.07-88.18 89.89s40.07 89.91 88.18 89.91zm163.32-228.48h66.43l61.19 171.68.54-1.07 61.95-170.6h66.43l-101.7 277.9-59.79-.53zm517.32 217.01c-33.21 41.81-79 67-128.83 67.57-96.77 0-152.89-72.74-152.89-146s56.12-146 152.89-146c57.83 0 143.72 47.53 143.72 155.74V705h-230.2c3.45 42.37 42.94 72.72 84.75 72.72 32.07 0 59.55-15.46 80.16-42.94zm-55-107.07c-12.6-42.38-44.1-64.71-81.89-64.71s-68.71 23.47-78.45 64.71z" transform="translate(-847 -363.64)"/><path d="M1946.36 570.8c.6-3.29-5-7.69-8-22.55-3.45-17.45-4.07-27.63 7.56-27.26 19.31.61 45.5-12.31 65.09-39.7 23.88-33.39 19.65-70.12 18.57-85.61-.62-9-3.41-18-6.75-26.36-4.19-10.45-8.78-4.3-14.4 1.07-17.09 16.31-38.19 13.42-71.44 26.63-30.14 12-56.1 37.93-51.59 72.52 2.39 18.35 11.68 34.81 23.57 45.46 8.72 7.8 4.55 20.27 5.49 37.38.77 13.92 6.12 25.94 9.24 27.07 2.67.95 22.09-5.52 22.66-8.65z" transform="translate(-847 -363.64)" fill="#68944f"/><path class="cls-1" d="M3494 549.68a23 23 0 0 1 1.89-9.34 23.7 23.7 0 0 1 43.43-.13 22.49 22.49 0 0 1 1.88 9.22 23.08 23.08 0 0 1-1.88 9.34 23.81 23.81 0 0 1-30.84 12.4 23.92 23.92 0 0 1-7.49-4.91 23.37 23.37 0 0 1-5.1-7.36 22.43 22.43 0 0 1-1.89-9.22zm3.77 0a19.75 19.75 0 0 0 1.55 7.84 19.47 19.47 0 0 0 4.25 6.29 20.2 20.2 0 0 0 6.29 4.22 20.21 20.21 0 0 0 15.48 0 19.88 19.88 0 0 0 6.29-4.25 19.64 19.64 0 0 0 4.25-6.39 20.38 20.38 0 0 0 1.54-8 20 20 0 0 0-1.54-7.87 19.4 19.4 0 0 0-4.25-6.33 19.71 19.71 0 0 0-14-5.7 19.41 19.41 0 0 0-7.74 1.54 20.2 20.2 0 0 0-6.29 4.22 19.25 19.25 0 0 0-4.25 6.36 20.53 20.53 0 0 0-1.61 8.07zm11.08-13.53h9.95q4.91 0 7.24 1.86t2.33 5.95q0 3.65-2.07 5.35a9.39 9.39 0 0 1-5.1 2l7.8 12h-4.09l-7.43-11.64h-4.85v11.64h-3.77zm3.77 12.09h4.66q1.38 0 2.7-.09a7.3 7.3 0 0 0 2.36-.54 3.63 3.63 0 0 0 1.63-1.32 4.45 4.45 0 0 0 .6-2.52 4.17 4.17 0 0 0-.53-2.23 3.49 3.49 0 0 0-1.42-1.29 5.92 5.92 0 0 0-2-.57 19 19 0 0 0-2.17-.13h-5.85z" transform="translate(-847 -363.64)"/></svg>