<svg xmlns="http://www.w3.org/2000/svg" width="250" height="196.37"><path fill="#FFDF1B" d="M247.3 193.78l-.07-146.66c-136.56-100.85-244.54.03-244.54.03l.08 146.52 244.53.11"/><path fill="#006BB6" d="M249.5 195.98L.58 195.86.5 46.19l.7-.65c1.09-1.02 110.9-100.96 247.34-.18l.89.66.07 149.96zm-244.53-4.5l240.14.11-.07-143.35c-127.41-93.36-230.7-8.35-240.15-.11l.08 143.35zM67.52 40.21c-1.62 0-2.94-1.31-2.94-2.94s1.32-2.94 2.94-2.94c1.62 0 2.94 1.31 2.94 2.94a2.945 2.945 0 0 1-2.94 2.94M79.6 41.6c1.62 0 2.94-1.32 2.94-2.94 0-1.62-1.32-2.94-2.94-2.94-1.62 0-2.94 1.32-2.94 2.94 0 1.62 1.32 2.94 2.94 2.94m11.91 3.77c1.62 0 2.94-1.31 2.94-2.94 0-1.62-1.32-2.94-2.94-2.94-1.62 0-2.94 1.32-2.94 2.94 0 1.63 1.32 2.94 2.94 2.94m10.91 5.46c1.62 0 2.94-1.32 2.94-2.94 0-1.62-1.32-2.94-2.94-2.94-1.62 0-2.94 1.32-2.94 2.94.01 1.62 1.32 2.94 2.94 2.94M55.39 41.6c1.63 0 2.94-1.32 2.94-2.94 0-1.62-1.31-2.94-2.94-2.94-1.62 0-2.94 1.32-2.94 2.94 0 1.62 1.32 2.94 2.94 2.94m-11.91 3.77c1.62 0 2.94-1.31 2.94-2.94 0-1.62-1.32-2.94-2.94-2.94-1.62 0-2.94 1.32-2.94 2.94a2.945 2.945 0 0 0 2.94 2.94m-10.91 5.46c1.62 0 2.94-1.32 2.94-2.94 0-1.62-1.32-2.94-2.94-2.94-1.62 0-2.94 1.32-2.94 2.94 0 1.62 1.32 2.94 2.94 2.94M67.4 40.08l-1.05-.17c.3 7.94-9.52 8.51-9.56.96l-2.32-.13c2.58 7.51-7.29 11.02-9.5 3.81l-2.1.13c3.23 7.26-5.69 11.43-8.52 4.43l-1.71.89s6.87 12.58 9.44 17.19c6.93-5.36 16.04-7.96 25.32-7.8h.1c9.28-.16 18.38 2.44 25.32 7.8C95.4 62.58 102.27 50 102.27 50l-1.72-.89c-2.83 6.99-11.74 2.83-8.52-4.43l-2.1-.13c-2.22 7.22-12.08 3.71-9.5-3.81l-2.33.13c-.04 7.55-9.85 6.98-9.55-.96l-1.05.17h-.1m150.69 80.24l-.64 1.94c-2.81 8.86-13.15 12.88-18.48 12.02-11.17-1.81-14.44-9.94-14.44-23.77 0-11.67 2.37-20.87 12.79-22.3 1.71-.23 4.36.81 4.36.81.21 0 4.03 1.4 7.27 7.01.65 1.3 3.67 5.4 4.75 8.64l.86.44h5.62l.65-.44V86.32l-.65-.43h-5.4l-.43.43s-3.67 4.11-6.05 4.11c-1.09 0-1.09 0-5.84-3.02-9.5-6.05-32.59.43-32.84 23.33-.23 21.73 14.25 26.26 24.2 27 9.49.71 23.63-4.24 26-17.42l-1.08-.22h.43l-1.08.22M28.81 102.51c0 40.43 39.2 38.79 39.2 38.79l5.74-.21c.42 0 6.98 12.93 16.63 12.93 18.47 0 16.01-22.16 16.01-22.16s-6.15 6.77-11.29 6.77c-2.88 0-5.74-2.25-5.74-2.25s17.44-8 17.44-33.87c0-51.31-77.99-51.31-77.99 0zm58.29 0c0 17.44-8.62 27.7-8.62 27.7s-3.89-1.03-7.39-1.03c-5.13 0-12.52 2.67-12.52 2.67s-9.24-7.39-9.24-29.35c.01-46.38 37.77-46.38 37.77.01zm-25.86 32.01s2.25-.82 4.31-.82c3.28 0 6.16 3.28 6.16 3.28s-1.44 1.64-4.11 1.64c-2.87.01-6.36-4.1-6.36-4.1zM27.65 150.1h50.94s-1.08-1.08-2.15-2.17c-1.09-1.08-2.17-2.37-2.17-2.37H27.65v4.54zm78.89-4.54s-.65 1.29-1.51 2.37c-.65.86-1.51 2.17-1.51 2.17h119.42v-4.54h-116.4zm4.33-59.67v1.73s7.13 0 7.99.64c.86.65.65 3.89.65 3.89v38.02c0 2.16-1.94 5.18-4.54 5.18h-4.1v1.73h33.05v-1.73h-3.02c-3.24 0-4.75-3.24-4.75-5.62v-18.36l.44-.43s1.72-.21 3.45-.21c4.54 0 8 9.29 8 9.29l.86.43h5.18l.65-.43V99.07l-.65-.44h-5.18l-.86.44s-3.68 9.94-8 9.94c-1.29 0-3.45-.21-3.45-.21l-.44-.44v-16.2s0-2.81.65-3.89c.21-.64 2.59-.64 2.59-.64h9.51c3.89 0 11.23 16.85 11.23 16.85l.65.43h4.97l.64-.43V86.54l-.64-.65h-54.88m-81.58 87.23c1.08 1.7 2.27 2.29 3.83 2.8.17.06.45.06.45.38a.8.8 0 0 1-.04.24c-.02.22-.04.38-.04.6 0 1.43.92 2.61 1.79 3.21 1 .64 2.13.92 3.26.92.53 0 3.25-.21 3.25-1.26 0-.3-.15-.41-.35-.41-.31 0-.72.22-1.12.22-1.25 0-1.66-.6-2.37-1.86-.37-.7-.69-1.14-1.14-1.7-.04-.03-.12-.13-.12-.21 0-.13.24-.24.33-.27 2.83-1.05 4.87-4.37 4.87-8.47 0-5.59-3.38-9.01-7.22-9.01-1.96 0-3.57.78-4.98 2.7-1.28 1.75-1.96 3.96-1.96 6.47-.01 2.06.55 4.11 1.56 5.65m8.59-.78c-.47 1.43-1.36 2.83-2.57 2.83-1.47 0-2.53-1.46-3.18-3.13-.65-1.65-.95-3.75-.95-5.64 0-2.78.78-7.15 3.34-7.15 2.88 0 3.96 5.64 3.96 8.79 0 1.36-.21 3.09-.6 4.3m14.85.38v-8.6c0-.38.09-.92-.26-.92-.61 0-1.21.05-1.82.05-.61 0-1.22-.05-1.83-.05-.25 0-.59-.03-.59.45 0 .35.23.49.45.54.37.08.76.16.98.59.21.46.16 1.53.16 2.05v4.42c0 .65.06 1.16-.3 1.65-.35.49-.96.92-1.47.92-.45 0-.92-.3-1.16-.83-.24-.54-.3-1.48-.3-2.11v-7.26c0-.37-.06-.42-.32-.42-.61 0-1.19.05-1.81.05-.61 0-1.19-.05-1.81-.05-.25 0-.59-.03-.59.42 0 .39.23.52.45.57.38.11.77.13.98.59.21.46.18 1.53.18 2.02v4.32c0 1.16.08 2.4.62 3.35.51.86 1.43 1.29 2.22 1.29 1.12 0 1.99-.7 2.88-1.6.08-.08.25-.27.37-.27.25 0 .18.81.18.97 0 .3-.12 1 .23 1 .21 0 .62-.25.82-.32l2.05-.81c.23-.05.9-.19.9-.64 0-.33-.18-.4-.37-.44-.51-.07-.86-.23-.84-.93m10.08-.92v-5.88c0-.89-.04-1.73-.66-2.27-.69-.57-1.71-.76-2.51-.76-1.28 0-2.61.4-3.67 1.43-.47.43-1.33 1.64-1.33 2.51 0 .46.32.62.61.62.47 0 1.19-.3 1.61-.59.52-.3.64-.68.84-1.32.25-.81.71-1.7 1.41-1.7 1.02 0 .88 1.89.88 2.8v.89c0 .08-.08.11-.21.27-.47.49-1.18.97-1.87 1.24-.66.27-1.72.92-2.25 1.46-.69.68-1.06 1.46-1.06 2.62 0 1.59.88 2.64 2.04 2.64 1.94 0 3.16-2.16 3.4-2.16.18 0 .29.54.33.62.31.92.69 1.29 1.45 1.29.82 0 1.55-.54 2.16-1.24.2-.21.51-.64.51-1.02 0-.19-.09-.38-.25-.38s-.35.25-.47.32c-.18.16-.27.27-.49.27-.57.01-.47-1.26-.47-1.66m-2.83-1.78v1.29c0 .46-.08.92-.2 1.22-.26.59-.9 1.02-1.41 1.02-.67 0-1.06-.73-1.06-1.57 0-.97.47-1.56 1.04-2.05.2-.16 1.21-1.05 1.41-1.05.26.01.22 1.06.22 1.14m9.2 3.29v-15.54c0-.37.09-1.29-.33-1.29-.21 0-.53.18-.73.3-.86.43-1.69.81-2.59.97-.28.05-.85.11-.85.62 0 .3.23.37.39.4 1.1.21 1.04.48 1.04 1.96v12.57c0 .08 0 1-1.2 1.19-.23.05-.53.13-.53.62 0 .41.2.46.47.46.94 0 1.89-.05 2.83-.05.9 0 1.81.05 2.75.05.25 0 .45-.05.45-.46 0-.49-.37-.57-.62-.62-1.08-.18-1.08-1.09-1.08-1.18m6.18-1.43v-8.34c0-.27.04-.97-.27-.97-.42 0-.59.3-.71.48-.61.9-1.69 1.54-2.54 1.84-.21.08-.84.16-.84.65 0 .45.32.43.59.45.92.16.86.78.86 1.91v3.97c0 .62 0 1.59-.14 2.16-.09.37-.7.4-.98.45-.23.06-.47.21-.47.57 0 .46.34.51.59.51.82 0 1.61-.05 2.43-.05.83 0 1.65.05 2.47.05.25 0 .61-.05.61-.51 0-.35-.26-.51-.47-.57-.36-.08-.97-.05-1.07-.45-.12-.56-.06-1.53-.06-2.15m-3.22-12.3c0 1.35.77 2.18 1.71 2.18s1.76-.83 1.76-2.21c0-1.33-.84-2.05-1.72-2.05-.87 0-1.75.79-1.75 2.08m8.95 10.47v-4.48c0-1.09 0-1.05.64-1.05h.97c.52 0 .67.03.67-.73 0-.68-.3-.54-.71-.54h-1.02c-.51 0-.63.03-.63-.73v-1.86c0-.38.08-1-.33-1-.33 0-.53.54-.66.89a5.979 5.979 0 0 1-2.61 2.94c-.21.11-.62.32-.62.73 0 .43.62.3.88.3.2 0 .43.08.47.35.04.22.06.92.06 1.14v5.64c0 1 .12 2.16.57 2.99.39.73 1.16 1.14 1.81 1.14.9 0 1.88-.52 2.55-1.38.16-.22.55-.76.55-1.1 0-.22-.1-.38-.23-.38-.3 0-.73.78-1.38.78-1.07-.01-.98-2.65-.98-3.65m10.73-3.89l-1.29 4.05c-.04.19-.22.86-.42.86-.16 0-.35-.7-.41-.84l-1.45-4.15c-.09-.27-.32-.86-.32-1.19 0-.54.51-.57.77-.64.23-.08.51-.19.51-.59 0-.46-.45-.46-.7-.46-.77 0-1.55.05-2.3.05-.86 0-1.77-.05-2.63-.05-.29 0-.66 0-.66.46 0 .45.33.54.57.59.37.08.55.08.8.51.32.51.63 1.4.86 1.99l2.9 8.06c.14.41.37 1.05.37 1.49 0 .4-.23.99-.41 1.29-.41.67-.88.51-1.47.49-.41-.03-.86-.11-1.16.43-.18.35-.25.89-.25 1.32 0 1.43.86 1.51 1.72 1.51 1.3 0 1.22-.41 1.61-2l1.06-3.5 2.97-8.63c.21-.65.59-1.81.92-2.35.33-.57.49-.51.98-.62.27-.06.55-.16.55-.62 0-.43-.25-.43-.51-.43-.57 0-1.12.05-1.69.05-.57 0-1.12-.05-1.69-.05-.23 0-.62 0-.62.43 0 .57.45.59.74.62.37.03.88.21.88.83 0 .39-.14.77-.23 1.09m13.27-1.19v-3.86c0-.3 0-.75.2-.95.23-.21.86-.16 1.1-.16.62 0 1.34-.03 1.91.35.53.35.68.75.98 1.43.18.37.39 1.02.76 1.02.3 0 .39-.38.39-.73v-2.59c0-.76-.13-.78-.64-.78-1.26 0-2.55.11-3.81.11-1.81 0-3.65-.11-5.45-.11-.28 0-.47.11-.47.54 0 .46.37.46.63.51 1.25.27 1.17 1 1.17 2.62v9.6c0 1.75.06 2.21-1.24 2.51-.23.06-.52.19-.52.62 0 .4.2.5.47.5.94 0 1.88-.1 2.82-.1 1.02 0 2.01.1 3.02.1.25 0 .47-.1.47-.5 0-.49-.37-.57-.62-.62-1.24-.27-1.16-.92-1.16-2.51v-3.45c0-.73-.04-1.1.61-1.16l.85-.06c2.08 0 1.4 2.59 2.34 2.59.33 0 .41-.4.41-.76-.04-.75-.08-1.57-.08-2.32.04-.76.04-1.57.08-2.32 0-.37-.08-.7-.39-.7-.35 0-.49.54-.57.89-.16.7-.39 1.29-.94 1.43-.38.11-1.24.11-1.65.11-.71.02-.67-.44-.67-1.25m6.12 4.38c0 4.04 2.57 6.42 5.39 6.42 2.85 0 5.61-2.56 5.61-6.63 0-1.84-.72-3.56-1.8-4.66a4.952 4.952 0 0 0-3.65-1.57c-2.71-.01-5.55 2.5-5.55 6.44m7.86.43c0 1.78-.39 5.07-2.12 5.07-1.96 0-2.59-4.23-2.59-6.22 0-1.81.51-4.8 2.2-4.8.86 0 1.55 1.05 1.91 2.03.41 1.08.6 2.67.6 3.92m3.91-.43c0 4.04 2.58 6.42 5.4 6.42 2.85 0 5.61-2.56 5.61-6.63 0-1.84-.73-3.56-1.81-4.66a4.952 4.952 0 0 0-3.65-1.57c-2.71-.01-5.55 2.5-5.55 6.44m7.87.43c0 1.78-.39 5.07-2.12 5.07-1.96 0-2.59-4.23-2.59-6.22 0-1.81.51-4.8 2.2-4.8.86 0 1.55 1.05 1.91 2.03.4 1.08.6 2.67.6 3.92m13.91 2.59v-14.76c0-.37-.02-1.13-.42-1.13a.55.55 0 0 0-.33.13c-.83.57-1.73 1-2.65 1.19-.28.08-1.1.08-1.1.68 0 .49.45.54.71.54.9 0 .73.86.73 1.89v2.4c-.21 0-.55-.14-.65-.19-.37-.16-.76-.22-1.16-.22-2.78 0-5.14 2.76-5.14 6.7 0 3.37 1.67 6.17 4.2 6.17 1.69 0 2.61-1.53 2.82-1.53.1 0 .12.24.12.32l.04.57c.04.35.1.64.39.64.2 0 .61-.21.79-.3l2.64-1.24c.57-.27.47-.21.53-1.11 0-.27.03-.67-.27-.67-.38 0-.65.99-1.02.99-.33 0-.23-.81-.23-1.07m-3.06-4.94v5.85c-.3.35-.83.43-1.14.43-1.82 0-2.67-2.67-2.67-4.85 0-1.99.55-4.9 2.35-4.9.51 0 .96.4 1.24.99s.22 1.77.22 2.48m22.41 5.53l.06-1.14c.03-.4.04-1.02-.39-1.02-.25 0-.39.27-.49.57-.35.92-.71 1.81-1.3 2.48-.59.65-1.29 1.03-2.06 1.03-1.41 0-2.59-1.11-3.33-2.7-.69-1.48-.98-3.42-.98-5.18 0-1.78.32-3.76 1.08-5.23.74-1.43 1.94-2.43 3.24-2.43 2.65 0 2.71 3.21 3.61 3.21.21 0 .37-.16.37-.46 0-.27-.04-.51-.08-.78l-.16-1.38c-.1-.75-.1-.86-.62-1.08-.91-.35-2.03-.56-2.95-.56-1.88 0-3.98.73-5.51 2.27-1.55 1.59-2.53 4.01-2.53 6.68 0 2.59 1 5.15 2.49 6.69 1.41 1.46 3.43 1.99 5.16 1.99 1.28 0 2.67-.32 3.77-1.24.6-.48.59-.83.62-1.72m4.67-4.94h4.59c.67 0 1.1-.02 1.1-1.02 0-1.16-.56-2.16-1.22-2.83a4.17 4.17 0 0 0-2.97-1.28c-2.68 0-5.33 2.41-5.33 6.26 0 3.83 2.37 6.61 5.14 6.61 1.17 0 2.29-.46 3.25-1.35.3-.24 1.02-.97 1.02-1.51 0-.24-.14-.4-.3-.4-.47 0-1.09 1.4-2.59 1.4-2.11 0-3.4-2.59-3.4-5.2.03-.75.23-.68.71-.68m2.22-1.15c-.49.16-1.53.16-2.06.16-.3 0-.64.05-.64-.44 0-.57.29-1.38.54-1.81.39-.59 1.02-.97 1.61-.97.74 0 1.28.7 1.28 1.7 0 .68-.2 1.19-.73 1.36m8.75-2.14v-1.19c0-.27.04-.97-.27-.97-.41 0-.59.3-.71.49-.61.89-1.69 1.53-2.53 1.84-.21.08-.85.16-.85.64 0 .46.32.43.59.46.92.16.86.78.86 1.91v3.96c0 .65.08 1.65-.2 2.16-.2.35-.62.38-.92.46-.21.05-.47.21-.47.59 0 .45.35.49.61.49.71 0 1.37-.06 2.08-.06.9 0 1.8.06 2.7.06.22 0 .45-.08.45-.49 0-.35-.18-.51-.39-.59-.3-.11-.63-.19-.83-.59-.2-.4-.14-1.51-.14-2.03v-4.39c0-.92-.08-1.48.45-2.1.39-.46.96-.79 1.47-.79.53 0 1.06.35 1.33.97s.33 1.65.33 2.35v3.96c0 .51.06 1.62-.14 2.03-.2.4-.53.48-.82.59-.21.08-.39.24-.39.59 0 .4.23.49.45.49.9 0 1.81-.06 2.71-.06.71 0 1.38.06 2.08.06.26 0 .61-.03.61-.49 0-.38-.25-.54-.46-.59-.3-.08-.73-.11-.92-.46-.28-.51-.2-1.51-.2-2.16v-4.5c0-1.32.02-2.46-.8-3.37-.71-.78-1.59-1.11-2.47-1.11-1.91.01-2.9 1.84-3.21 1.84m12.37 5.32v-4.48c0-1.09 0-1.05.64-1.05h.96c.53 0 .67.03.67-.73 0-.68-.29-.54-.71-.54h-1.02c-.51 0-.62.03-.62-.73v-1.86c0-.38.08-1-.33-1-.33 0-.52.54-.66.89a5.979 5.979 0 0 1-2.61 2.94c-.21.11-.62.32-.62.73 0 .43.62.3.88.3.2 0 .43.08.47.35.03.22.06.92.06 1.14v5.64c0 1 .12 2.16.57 2.99.39.73 1.16 1.14 1.81 1.14.9 0 1.88-.52 2.55-1.38.16-.22.55-.76.55-1.1 0-.22-.1-.38-.23-.38-.3 0-.73.78-1.38.78-1.07-.01-.98-2.65-.98-3.65m6.48-2.03h4.59c.67 0 1.1-.02 1.1-1.02 0-1.16-.55-2.16-1.22-2.83a4.148 4.148 0 0 0-2.96-1.28c-2.69 0-5.33 2.41-5.33 6.26 0 3.83 2.37 6.61 5.14 6.61 1.17 0 2.3-.46 3.26-1.35.3-.24 1.02-.97 1.02-1.51 0-.24-.14-.4-.3-.4-.47 0-1.1 1.4-2.59 1.4-2.12 0-3.4-2.59-3.4-5.2.01-.75.2-.68.69-.68m2.22-1.15c-.49.16-1.53.16-2.06.16-.3 0-.65.05-.65-.44 0-.57.3-1.38.55-1.81.39-.59 1.02-.97 1.61-.97.74 0 1.28.7 1.28 1.7 0 .68-.2 1.19-.73 1.36m8.61-1.92v-1.4c0-.27.04-.97-.27-.97-.42 0-.59.3-.71.49-.61.89-1.69 1.53-2.53 1.84-.22.08-.85.16-.85.64 0 .46.32.43.59.46.92.16.86.78.86 1.91v3.96c0 .62 0 1.59-.14 2.16-.09.38-.71.4-.98.46-.24.05-.47.21-.47.56 0 .46.33.52.59.52.83 0 1.61-.06 2.44-.06.82 0 1.65.06 2.47.06.25 0 .61-.06.61-.52 0-.35-.25-.51-.47-.56-.35-.08-.96-.06-1.06-.46-.13-.57-.08-1.54-.08-2.16v-2.67c0-.83-.16-3.64.83-3.64.59 0 .72 1.57 1.98 1.57.88 0 1.63-.98 1.63-2.19 0-1.22-.85-2.05-1.67-2.05-1.61 0-2.44 2.05-2.77 2.05m4.79 7.47l-.04 1.14c-.02.73.02 1.05.5 1.43.76.59 1.91.78 2.76.78 1.06 0 2.24-.27 3.1-1.1.88-.84 1.48-2.1 1.48-3.59 0-2.26-1.4-3.21-2.81-3.8l-1.07-.46c-.56-.21-1.44-.59-1.44-1.53 0-1.14.92-1.46 1.59-1.46 1.16 0 1.41.7 2.05 1.84.13.24.39.64.66.64.41 0 .37-.83.43-1.21v-.65c0-.75-.04-.89-.57-1.05-.78-.27-1.92-.49-2.71-.49-1.74 0-3.94 1.38-3.94 4.08 0 2.56 2.45 3.5 3.93 4.12.72.33 1.6.81 1.6 2.03 0 1.22-1.17 1.7-1.93 1.7-2.55 0-2.31-3.34-3.18-3.34-.41-.02-.39.49-.41.92"/></svg>