<?xml version="1.0" encoding="UTF-8" standalone="no"?>
<!-- Created with Inkscape (http://www.inkscape.org/) -->

<svg
   xmlns:dc="http://purl.org/dc/elements/1.1/"
   xmlns:cc="http://creativecommons.org/ns#"
   xmlns:rdf="http://www.w3.org/1999/02/22-rdf-syntax-ns#"
   xmlns:svg="http://www.w3.org/2000/svg"
   xmlns="http://www.w3.org/2000/svg"
   xmlns:sodipodi="http://sodipodi.sourceforge.net/DTD/sodipodi-0.dtd"
   xmlns:inkscape="http://www.inkscape.org/namespaces/inkscape"
   width="136.80428mm"
   height="43.027309mm"
   viewBox="0 0 136.80428 43.027309"
   version="1.1"
   id="svg52656"
   inkscape:version="0.92.0 r15299"
   sodipodi:docname="smiths.svg">
  <defs
     id="defs52650" />
  <sodipodi:namedview
     id="base"
     pagecolor="#ffffff"
     bordercolor="#666666"
     borderopacity="1.0"
     inkscape:pageopacity="0.0"
     inkscape:pageshadow="2"
     inkscape:zoom="1.5625122"
     inkscape:cx="256.638"
     inkscape:cy="79.421686"
     inkscape:document-units="mm"
     inkscape:current-layer="layer1"
     showgrid="false"
     fit-margin-top="0"
     fit-margin-left="0"
     fit-margin-right="0"
     fit-margin-bottom="0"
     inkscape:window-width="1280"
     inkscape:window-height="744"
     inkscape:window-x="-4"
     inkscape:window-y="-4"
     inkscape:window-maximized="1" />
  <metadata
     id="metadata52653">
    <rdf:RDF>
      <cc:Work
         rdf:about="">
        <dc:format>image/svg+xml</dc:format>
        <dc:type
           rdf:resource="http://purl.org/dc/dcmitype/StillImage" />
        <dc:title></dc:title>
      </cc:Work>
    </rdf:RDF>
  </metadata>
  <g
     inkscape:label="Layer 1"
     inkscape:groupmode="layer"
     id="layer1"
     transform="translate(200.1938,-242.4804)">
    <g
       id="g52911"
       transform="matrix(0.26458333,0,0,0.26458333,-202.46161,240.79377)">
	<g
   id="g52909">
		<path
   id="path52891"
   d="m 191.259,72.849 c 22.574,-21.964 54.668,-3.807 54.668,18.274 v 61.223 c 0,5.705 1.46,9.305 4.755,12.608 h -37.808 c 3.411,-2.553 4.324,-6.903 4.324,-12.608 V 91.11 c 0,-16.83 -23.135,-16.884 -23.135,0 v 61.237 c 0,5.708 2.52,9.833 5.834,12.608 h -38.865 c 3.239,-2.498 5.398,-6.9 5.398,-12.608 V 91.11 c 0,-16.884 -22.682,-16.877 -22.682,0 v 61.237 c 0,5.705 0.782,10.056 3.24,12.608 h -37.433 c 4.449,-4.352 5.397,-6.903 5.397,-12.608 V 97.418 c 0,-11.198 -2.454,-17.191 -8.853,-21.312 l 37.588,-11.516 0.061,8.809 c 11.123,-12.608 34.27,-15.16 47.511,-0.55 z"
   inkscape:connector-curvature="0"
   style="fill:#d31245" />

		<path
   id="path52893"
   d="m 257.637,42.979 c 0,-9.452 6.612,-17.11 14.772,-17.11 8.145,0 14.761,7.659 14.761,17.11 0,9.448 -6.616,17.108 -14.761,17.108 -8.159,-0.001 -14.772,-7.66 -14.772,-17.108 z"
   inkscape:connector-curvature="0"
   style="fill:#d31245" />

		<path
   id="path52895"
   d="m 348.981,151.923 c -4.747,3.754 -16.409,1.749 -16.409,-8.757 V 74.709 h 14.257 l 4.75,-10.006 H 331.925 V 40.174 l -35.004,34.787 h 4.666 c 2.45,0.023 3.543,1.466 3.543,5.647 v 63.059 c 0,12.262 11.243,23.272 25.276,23.272 14.046,0 17.721,-5.754 21.173,-10.008 1.292,-2.005 2.377,-4.509 2.377,-4.509 l -2.809,-2.247 c 0,10e-4 -0.645,0.491 -2.166,1.748 z"
   inkscape:connector-curvature="0"
   style="fill:#d31245" />

		<path
   id="path52897"
   d="M 387.196,71.97 V 22.29 l -36.729,15.015 c 6.482,2.506 7.992,6.261 7.992,15.022 v 100.019 c 0,5.705 -1.328,8.857 -5.393,12.608 h 37.37 c -2.795,-2.851 -3.24,-6.9 -3.24,-12.608 V 91.11 c 0,-16.843 22.677,-16.833 22.677,0 v 61.237 c 0,5.705 -1.868,9.613 -5.396,12.608 h 37.342 c -2.983,-2.851 -5.588,-6.9 -5.588,-12.608 V 91.11 c 0,-23.202 -29.427,-39.326 -49.035,-19.14 z"
   inkscape:connector-curvature="0"
   style="fill:#d31245" />

		<path
   id="path52899"
   d="m 438.698,63.724 c -6.982,-1.651 -11.42,-6.063 -11.42,-14.333 0,-8.268 5.706,-14.885 12.843,-14.885 7.14,0 12.853,6.617 12.853,14.885 -0.788,11.028 -4.285,19.298 -12.052,26.096 -1.115,1.104 -2.38,-0.366 -0.319,-3.122 1.9,-2.758 1.9,-5.145 1.579,-6.8 -0.311,-1.102 -1.424,-1.47 -3.484,-1.841 z"
   inkscape:connector-curvature="0"
   style="fill:#d31245" />

		<path
   id="path52901"
   d="m 510.768,159.748 c 0,-4.153 2.98,-7.225 6.507,-7.225 3.484,0 6.462,3.071 6.462,7.225 0,4.194 -2.978,7.263 -6.462,7.263 -3.527,0 -6.507,-3.069 -6.507,-7.263 z m 6.506,6.05 c 2.897,0 5.178,-2.563 5.178,-6.05 0,-3.426 -2.28,-6.014 -5.178,-6.014 -2.927,0 -5.223,2.588 -5.223,6.014 10e-4,3.486 2.297,6.05 5.223,6.05 z m -1.36,-1.856 h -1.112 v -8.348 h 2.803 c 1.744,0 2.615,0.728 2.615,2.379 0,1.483 -0.838,2.129 -1.918,2.297 l 2.104,3.672 h -1.254 l -1.949,-3.618 h -1.288 v 3.618 z m 1.337,-4.689 c 0.954,0 1.795,-0.078 1.795,-1.365 0,-1.028 -0.822,-1.227 -1.607,-1.227 h -1.524 v 2.592 z"
   inkscape:connector-curvature="0"
   style="fill:#d31245" />

		<path
   id="path52903"
   d="M 74.042,131.505 C 74.042,95.902 19.206,87.422 12.483,52.18 5.448,15.293 45.458,1.177 64.693,11.604 c 12.671,6.872 17.463,3.114 23.985,-0.499 l -0.004,47.594 c 0,2.052 -2.445,2.457 -3.135,0.438 C 80.804,45.316 75.51,31.536 64.326,23.458 41.719,7.13 25.83,33.188 54.345,56.062 c 15.286,12.264 47.677,31.046 50.351,59.408 0.126,1.324 4.473,29.757 -19.08,45.189 -7.665,5.027 -21.076,7.771 -34.499,5.814 -17.396,-2.532 -17.889,-8.256 -26.375,-9.354 -7.171,-0.922 -12.817,6.884 -14.281,7.809 0.141,-0.327 0,-33.72 0,-50.292 0.107,-0.256 2.231,-0.823 3.338,0.867 4.054,17.432 14.58,28.391 21.796,33.648 8.299,6.06 38.447,9.987 38.447,-17.646 z"
   inkscape:connector-curvature="0"
   style="fill:#d31245" />

		<path
   id="path52905"
   d="m 489.448,143.616 c -1.66,-23.463 -37.911,-28.729 -41.472,-52.081 -3.978,-26.22 26.008,-33.495 39.646,-26.646 8.989,4.513 12.38,2.044 17.011,-0.331 l -0.002,31.252 c 0,1.347 -1.731,1.611 -2.222,0.289 -3.359,-9.076 -6.862,-18.517 -15.038,-23.428 -14.438,-8.665 -26.254,7.81 -6.027,20.388 17.042,10.598 31.351,23.596 32.908,40.028 0.075,0.873 3.16,19.54 -13.537,29.669 -5.433,3.294 -14.947,5.103 -24.459,3.823 -12.345,-1.664 -12.687,-5.419 -18.707,-6.14 -5.086,-0.613 -9.086,3.95 -10.125,4.545 0.097,-0.216 0,-21.57 0,-32.444 0.08,-0.169 1.579,-0.538 2.364,0.573 2.872,11.442 10.34,18.636 15.456,22.092 5.89,3.979 25.489,6.516 24.204,-11.589 z"
   inkscape:connector-curvature="0"
   style="fill:#d31245" />

		<path
   id="path52907"
   d="m 290.901,64.591 -37.585,11.516 c 6.464,4.197 8.858,10.2 8.858,21.312 v 54.929 c 0,5.705 -1.337,8.93 -5.399,12.608 h 40.61 c -4.642,-2.395 -6.483,-6.903 -6.483,-12.765 v -87.6 z"
   inkscape:connector-curvature="0"
   style="fill:#d31245" />

	</g>

</g>
  </g>
</svg>
