<svg xmlns="http://www.w3.org/2000/svg" width="71.287" height="17.372" viewBox="0 0 18.861 4.596"><g stroke-width=".353"><path d="M.132 3.867v.528c0 .04.03.069.067.069h18.464c.035 0 .066-.03.066-.07v-.527z" fill="#e41e26"/><path d="M17.684 2.783a.208.208 0 1 1 .417 0 .209.209 0 0 1-.417 0m.392 0c0-.1-.081-.183-.182-.183a.184.184 0 0 0-.185.183c0 .102.083.183.185.183.1 0 .182-.081.182-.183m-.08.117h-.033l-.066-.107h-.053V2.9h-.029v-.233h.102c.02 0 .04 0 .058.011.017.01.025.03.025.05 0 .047-.032.063-.073.065zm-.108-.13c.032 0 .083.006.083-.042 0-.036-.032-.041-.06-.041h-.067v.084zM3.499 1.053s-1.043 2.1-1.143 2.318c-.1.218-.15.345-.26.236-.311-.308-.23-.49-.19-.563.04-.073 1.002-1.956 1.002-1.956-1.096.072-1.557.17-1.71.148C.748 1.172.418.656.728.7c1.13.172 4.535-.394 4.924.118.2.263.076.377-.01.317C5.432.989 4.503 1 3.5 1.053" fill="#223e92"/><path d="M3.699 2.27c-.091.155-.123.32-.07.369.053.048.17-.039.262-.194.091-.155.122-.32.07-.369-.053-.048-.17.04-.262.195m.431-.647c.101.007.314.073.392.228.398-.187.744-.393.876.002.363-.325.527-.314.631.144.563-.552.735-.534.841.397.038.322.165.3.236.25.046-.034.263-.091.139.128-.212.373-.527.47-.799-.165-.068-.16-.074-.287-.18-.051-.24.527-.38.788-.607.1-.1-.303-.08-.345-.193-.148-.114.196-.291.562-.427.562-.068 0-.324-.075-.235-.363.148-.482.325-.836-.197-.468l-.1.073c-.01.03-.02.059-.034.09-.184.404-.636.712-1.01.687-.374-.024-.527-.373-.344-.778.185-.404.637-.713 1.011-.688M10.547.991c.418-.02.731-.008.849.059.09.051.205-.065-.016-.302-.093-.1-.326-.144-.642-.15.053-.102.102-.187.145-.243.214-.278-.029-.22-.2-.213-.171.006-.24.045-.304.213a6.743 6.743 0 0 1-.11.245c-.39.002-.834.036-2.156.197-.118.017-.268.064-.55-.03-.43-.171-.306.105-.05.343.32.295.384.188.753.103.101-.023.301-.06.83-.102 0 0-.92 1.86-.961 1.933-.04.072-.121.255.19.562.11.11.16-.018.26-.236S9.69 1.067 9.69 1.067c.294-.018.136-.022.378-.04-.232.488-.524 1.093-.648 1.36-.2.354-.16.363-.05.586.11.223.231.062.424-.278.193-.34.796-.786.51-.158-.24.524.128.539.178.539.112 0 .46-.284.687-.49a.546.546 0 0 0 .143.386c.107.1.438.204.762-.085.19.252.51.383 1.142-.492-.024.073-.084.233-.11.317-.089.288.167.362.235.362.135 0 .313-.365.427-.562.114-.196.093-.154.193.148.228.69.367.427.605-.1.108-.235.114-.108.182.052.272.635.59.537.8.165.354.633 1.071.201 1.474-.578l.703.001c.154.006.365-.047.453-.3.018-.052-.082-.1-.14-.104-.303-.014-1.137-.021-1.358.002-.292.02-.254.108-.26.163-.01.1.138.167.021.312-.154.191-.543.566-.426.191.093-.32.573-1.584.823-1.765.064-.048.082-.2-.147-.417-.09-.086-.172-.016-.238.084-.439.661-.744 1.501-.945 1.903-.162.302-.319.261-.336.13-.106-.931-.278-.95-.84-.397-.105-.459-.27-.471-.633-.147-.27-.778-.974.668-1.17.668-.05 0-.049-.17.115-.467.036-.073.065-.135-.079-.345-.122-.181-.225-.067-.388.298-.168.38-.68.82-.552.51.14-.315.2-.437.215-.469.036-.072.062-.13-.081-.34-.14-.204-.263.009-.387.26-.291.275-.714.548-.528.22.033-.059.087-.125.089-.285 0-.193-.22-.427-.704-.153.07-.181.192-.48.318-.76" fill="#223e92"/></g></svg>