<svg xmlns="http://www.w3.org/2000/svg" width="504" height="181"><path d="M158.395 176.016c-6.452-1.996-11.223-9.777-9.991-16.294.75-3.967 3.905-9.244 6.292-10.524 1.642-.88 1.773-.53 1.46 3.889-.291 4.125.04 5.238 2.205 7.403 6.394 6.393 19.39.78 30.536-13.19 4.412-5.53 14.87-22.885 16.764-27.82.642-1.675.442-1.653-2.237.255-4.029 2.87-10.308 4.427-13.941 3.46-4.316-1.15-7.483-6.34-7.483-12.265v-4.812l-6.75 5.12c-17.73 13.45-36.27 15.831-41.078 5.277-3.772-8.278 1.51-22.401 11.89-31.795 16.534-14.963 39.6-18.078 39.238-5.3-.3 10.582-14.01 22.217-30.294 25.71-4.486.962-4.886 1.263-3.963 2.988 1.78 3.324 9.36 2.582 18.073-1.768 5.894-2.944 10.035-6.272 20.523-16.495 14.562-14.194 20.351-17.791 28.66-17.808 2.64-.005 6.208.718 7.928 1.608 2.893 1.496 3.22 1.493 4.342-.042.99-1.355 2.688-1.606 9.24-1.368l8.027.292-9.49 17.5a19082.61 19082.61 0 0 0-17.576 32.5c-11.661 21.629-17.967 30.936-27.153 40.083-9.785 9.743-16.69 13.481-25.862 14.002-3.44.195-7.652-.078-9.36-.606zm51.326-69.585c3.982-3.03 7.024-7.063 11.4-15.111 3.983-7.328 3.428-9.591-2.477-10.093-3.257-.277-4.227.265-8.946 5C204.044 91.9 199 100.767 199 105.034c0 5.564 4.477 6.148 10.721 1.397zm-52.547-11.937C162.612 92.64 169 87.074 169 84.188c0-6.263-10.179-3.092-15.129 4.713-2.859 4.509-3.613 7.136-2.05 7.136.453 0 2.861-.694 5.353-1.543zM32.357 124.099c-6.198-2.655-7.01-11.335-2.357-25.221 1.65-4.925 3-9.343 3-9.817 0-.474-1.683-.398-3.74.17-4.937 1.364-15.54.218-21.213-2.29-3.523-1.56-4.188-2.203-3.03-2.935.816-.516 3.076-.945 5.023-.953 4.911-.022 14.075-2.534 19.772-5.42 7.96-4.034 14.514-10.85 22.695-23.606l7.69-11.99h8.901c4.896 0 8.902.265 8.902.59 0 .323-3.122 6.06-6.939 12.75-17.17 30.095-25.277 50.49-20.757 52.224 2.54.974 8.305-2.407 15.236-8.936 5.919-5.576 7.712-8.378 19.922-31.128l13.418-25 9.182-.289c7.175-.226 9.072-.007 8.678 1-.277.71-6.856 13.214-14.62 27.79-11.46 21.515-14.116 27.261-14.118 30.55-.001 2.227.538 4.59 1.198 5.25 6.006 6.006 26.52-12.435 37.045-33.3 3.826-7.587 7.569-20.412 8.833-30.273 2.16-16.843-3.43-28.7-13.903-29.49-3.113-.234-2.71-1.069 1.72-3.558 7.862-4.419 16.807-3.826 23.18 1.537 10.797 9.085 11.875 31.753 2.535 53.305-13.221 30.509-46.226 59-68.774 59.37-5.804.094-7.006-.212-9.317-2.38-1.46-1.367-3.152-4.348-3.76-6.623l-1.106-4.136-4.71 3.383c-10.015 7.196-23.45 11.625-28.586 9.426zm300.898-1.263c-4.743-1.247-6.439-4.516-6.379-12.3l.05-6.585-7.63 6.537c-11.7 10.022-21.097 13.904-24.304 10.04-2.22-2.675-.403-9.006 6.48-22.585 7.656-15.103 7.564-16.827-.642-12.025-7.968 4.663-7.844 4.508-16.336 20.37l-7.896 14.75h-8.3c-4.746 0-8.298-.42-8.298-.98 0-.538 3.825-8.12 8.5-16.849 7.655-14.292 9.922-20.19 7.75-20.162-1.077.013-10.368 5.583-12.844 7.7-1.152.985-5.58 8.203-9.84 16.04l-7.745 14.25h-7.91c-4.351 0-7.911-.252-7.911-.561 0-.31 2.125-4.472 4.722-9.25 2.597-4.779 8.37-15.439 12.827-23.689l8.104-15 8.174-.29c4.495-.16 8.171.065 8.17.5-.003.435-.903 2.264-2 4.065-1.099 1.8-1.997 3.469-1.997 3.707 0 .239 3.566-1.42 7.924-3.685 10.013-5.205 18.18-6.34 20.08-2.79.658 1.23.938 3.533.622 5.116-.317 1.582-.369 2.877-.116 2.877s2.604-1.315 5.225-2.923c10.44-6.405 21.477-8.936 24.273-5.567 2.082 2.51.49 9.065-4.892 20.133-2.77 5.697-4.802 10.357-4.517 10.357.921 0 15.668-11.826 23.901-19.167 12.185-10.865 23.433-15.098 30.98-11.66 1.97.897 2.85.897 3.747 0 .696-.696 4.332-1.173 8.939-1.173h7.766l-7.518 14.438c-7.143 13.717-10.024 20.562-8.656 20.562.34 0 4.706-3.112 9.701-6.917 9.476-7.216 13.009-11.38 18.523-21.833l3.297-6.25h7.86c8.693 0 9.047.346 5.774 5.642l-2.088 3.377 9.265-4.51c10.91-5.31 16.883-6.007 19.337-2.259 2.15 3.282.62 8.736-6.182 22.049-3.148 6.16-5.893 11.583-6.1 12.048-.932 2.098 4.364-1.944 9.602-7.328 7.393-7.6 14.2-10.511 19.67-8.412 1.31.503 1.148.948-.946 2.595-2.926 2.301-6.471 8.77-6.471 11.808 0 5.692 7.099 11.962 11.694 10.328 5.703-2.027 6.596-6.238 3.306-15.597-2.64-7.51-2.64-16.565-.002-21.737 3.835-7.518 14.755-11.251 21.98-7.515 7.22 3.734 4.021 12.511-4.56 12.511-2.15 0-2.348-.262-1.453-1.934 2.368-4.425.083-8.85-3.915-7.582-3.994 1.268-3.652 5.087 1.315 14.675 3.88 7.49 4.635 9.849 4.635 14.493 0 9.25-3.97 14.434-13.718 17.911-5.675 2.025-17.934 1.779-22.86-.459-4.389-1.993-8.108-6.006-9.052-9.766-.323-1.286-.776-2.338-1.008-2.338-.231 0-2.77 1.866-5.641 4.147-9.3 7.385-17.625 9.806-21.252 6.18-2.605-2.605-1.275-7.356 6.07-21.687 3.624-7.073 6.357-13.47 6.07-14.214-.713-1.86-4.785-.33-10.76 4.045-3.897 2.853-5.923 5.765-12.5 17.966l-7.849 14.56-7.75.002c-5.088 0-7.75-.386-7.75-1.127 0-.62 1.383-3.546 3.073-6.5 1.69-2.955 2.766-5.372 2.39-5.372-.377 0-2.847 1.81-5.488 4.021-6.94 5.81-15.929 10.98-19.094 10.98-3.005 0-6.881-3.991-6.881-7.085 0-1.508-.97-1.153-5.75 2.107-6.487 4.424-12.213 6.033-16.995 4.776zm19.38-15.65c5.296-3.835 8.89-8.266 12.484-15.384 3.915-7.757 3.603-10.164-1.374-10.575-3.38-.28-4.276.217-9 5-8.173 8.273-13.595 21.494-9.495 23.148 2.393.965 3.474.645 7.386-2.189z"/></svg>