<?xml version="1.0" encoding="UTF-8" standalone="no"?>
<!-- Created with Inkscape (http://www.inkscape.org/) -->

<svg
   xmlns:dc="http://purl.org/dc/elements/1.1/"
   xmlns:cc="http://creativecommons.org/ns#"
   xmlns:rdf="http://www.w3.org/1999/02/22-rdf-syntax-ns#"
   xmlns:svg="http://www.w3.org/2000/svg"
   xmlns="http://www.w3.org/2000/svg"
   xmlns:sodipodi="http://sodipodi.sourceforge.net/DTD/sodipodi-0.dtd"
   xmlns:inkscape="http://www.inkscape.org/namespaces/inkscape"
   id="svg3073"
   version="1.1"
   inkscape:version="0.48.2 r9819"
   width="504"
   height="181"
   sodipodi:docname="wegmanslogo.svg">
  <metadata
     id="metadata3079">
    <rdf:RDF>
      <cc:Work
         rdf:about="">
        <dc:format>image/svg+xml</dc:format>
        <dc:type
           rdf:resource="http://purl.org/dc/dcmitype/StillImage" />
        <dc:title />
      </cc:Work>
    </rdf:RDF>
  </metadata>
  <defs
     id="defs3077" />
  <sodipodi:namedview
     pagecolor="#ffffff"
     bordercolor="#666666"
     borderopacity="1"
     objecttolerance="10"
     gridtolerance="10"
     guidetolerance="10"
     inkscape:pageopacity="0"
     inkscape:pageshadow="2"
     inkscape:window-width="1280"
     inkscape:window-height="711"
     id="namedview3075"
     showgrid="false"
     inkscape:zoom="0.98770471"
     inkscape:cx="252"
     inkscape:cy="57.385469"
     inkscape:window-x="0"
     inkscape:window-y="0"
     inkscape:window-maximized="1"
     inkscape:current-layer="svg3073" />
  <path
     style="fill:#000000"
     d="m 158.39547,176.0161 c -6.45237,-1.99636 -11.22344,-9.77683 -9.99162,-16.29393 0.74991,-3.96751 3.90505,-9.24414 6.29264,-10.52376 1.6413,-0.87964 1.77263,-0.52991 1.46022,3.88835 -0.2917,4.1254 0.0396,5.23778 2.20455,7.40276 6.3938,6.3938 19.38954,0.78055 30.53532,-13.18915 4.41284,-5.53087 14.87005,-22.88534 16.76412,-27.82121 0.6426,-1.67458 0.44279,-1.65169 -2.2367,0.25627 -4.02887,2.86882 -10.30789,4.42674 -13.94105,3.45901 C 185.1668,122.04478 182,116.85425 182,110.92955 l 0,-4.81203 -6.75,5.12054 c -17.72932,13.44944 -36.26945,15.83105 -41.07829,5.2768 -3.77187,-8.27835 1.50935,-22.401288 11.88957,-31.794848 16.53462,-14.96297 39.60143,-18.07836 39.2392,-5.29962 -0.29994,10.58146 -14.01066,22.216828 -30.29477,25.709158 -4.48601,0.96207 -4.88568,1.26356 -3.96231,2.9889 1.77888,3.32386 9.36047,2.58181 18.07224,-1.76883 5.89424,-2.94357 10.03573,-6.27209 20.52331,-16.494558 14.5625,-14.19439 20.35106,-17.79103 28.66071,-17.80795 2.63981,-0.005 6.20719,0.7181 7.92751,1.60771 2.89277,1.49591 3.21907,1.49274 4.34145,-0.0422 0.99058,-1.35471 2.68851,-1.60598 9.24032,-1.36747 l 8.02673,0.2922 -9.48896,17.5 c -5.21893,9.625 -13.12841,24.249998 -17.57663,32.499998 -11.6615,21.62831 -17.96676,30.93609 -27.15266,40.08262 -9.78507,9.74312 -16.68976,13.48132 -25.86205,14.00175 -3.44045,0.1952 -7.65241,-0.0773 -9.3599,-0.60562 z m 51.32566,-69.58548 c 3.98175,-3.02978 7.0238,-7.062348 11.399,-15.110628 3.98379,-7.32828 3.42867,-9.59121 -2.47599,-10.09328 -3.25714,-0.27696 -4.22722,0.26524 -8.94593,5 C 204.04417,91.899982 199,100.76741 199,105.03369 c 0,5.56449 4.47741,6.14788 10.72113,1.39693 z M 157.17411,94.493692 C 162.61156,92.640962 169,87.073562 169,84.187662 c 0,-6.26267 -10.17899,-3.09121 -15.12867,4.71363 -2.85905,4.50826 -3.61375,7.13606 -2.04947,7.13606 0.45202,0 2.86054,-0.69465 5.35225,-1.54366 z M 32.356999,124.09875 C 26.158786,121.44422 25.347617,112.76439 30,98.877952 c 1.65,-4.92492 3,-9.34252 3,-9.81689 0,-0.47438 -1.683279,-0.39772 -3.740621,0.17034 -4.936782,1.36311 -15.539952,0.21777 -21.2121246,-2.2913 -3.5231459,-1.55846 -4.1880897,-2.20232 -3.0303907,-2.93434 0.815725,-0.51578 3.0760919,-0.94468 5.0230373,-0.9531 4.911293,-0.0213 14.075588,-2.53341 19.771997,-5.42 7.960988,-4.03413 14.513941,-10.85013 22.694849,-23.60583 l 7.689486,-11.98948 8.901884,0 c 4.896036,0 8.901883,0.26506 8.901883,0.58903 0,0.32397 -3.12237,6.06147 -6.9386,12.75 -17.171231,30.09523 -25.277203,50.489718 -20.757005,52.224278 2.539989,0.97469 8.30474,-2.40637 15.235442,-8.935678 5.918769,-5.57597 7.712348,-8.37835 19.922318,-31.12763 l 13.417971,-25 9.181944,-0.28914 c 7.17522,-0.22595 9.07187,-0.007 8.67827,1 -0.27702,0.70902 -6.85589,13.21414 -14.61972,27.78914 -11.460817,21.51532 -14.116488,27.2618 -14.118339,30.549998 -0.0013,2.2275 0.537719,4.59 1.197719,5.25 6.006482,6.00648 26.52076,-12.433948 37.04498,-33.299998 3.82652,-7.58671 7.56865,-20.41133 8.83329,-30.27243 2.15999,-16.84276 -3.43068,-28.70047 -13.90366,-29.48938 -3.11292,-0.23448 -2.70946,-1.06931 1.71984,-3.55872 7.86209,-4.4187396 16.80721,-3.8257196 23.18012,1.53672 10.79697,9.08505 11.87528,31.75317 2.53571,53.30497 -13.22145,30.5095 -46.22599,59.000908 -68.774211,59.369808 -5.804559,0.095 -7.006118,-0.21177 -9.317394,-2.3786 -1.459405,-1.36819 -3.151257,-4.34882 -3.759671,-6.62361 l -1.106209,-4.13599 -4.709079,3.38313 c -10.015501,7.19543 -23.450572,11.62518 -28.586717,9.4255 z m 300.898201,-1.263 c -4.74356,-1.24683 -6.43897,-4.51559 -6.37923,-12.29915 l 0.0505,-6.58537 -7.63096,6.53718 c -11.69863,10.02182 -21.09627,13.90383 -24.30349,10.03937 -2.21969,-2.67456 -0.40291,-9.00616 6.48044,-22.584818 7.65596,-15.10276 7.56389,-16.82723 -0.64197,-12.02504 -7.96867,4.66338 -7.84443,4.50848 -16.33602,20.369428 l -7.8968,14.75 -8.29886,0 c -4.74692,0 -8.29881,-0.41899 -8.29881,-0.97895 0,-0.53843 3.825,-8.12049 8.5,-16.84903 7.6551,-14.292588 9.92184,-20.189808 7.75,-20.162638 -1.07728,0.0135 -10.36754,5.58317 -12.84423,7.70037 -1.15183,0.98463 -5.57957,8.20275 -9.83944,16.040248 l -7.74521,14.25 -7.91056,0 c -4.35081,0 -7.91056,-0.25282 -7.91056,-0.56181 0,-0.309 2.12496,-4.4715 4.72213,-9.25 2.59717,-4.77851 8.36916,-15.438188 12.82665,-23.688188 l 8.10453,-15 8.17334,-0.29045 c 4.49534,-0.15974 8.17167,0.0653 8.16961,0.5 -0.002,0.43475 -0.90205,2.26382 -2,4.06462 -1.09794,1.80079 -1.99626,3.4693 -1.99626,3.70779 0,0.2385 3.56576,-1.42002 7.92391,-3.68558 10.01291,-5.20518 18.17965,-6.33992 20.07951,-2.78999 0.65874,1.23087 0.93871,3.53297 0.62215,5.11577 -0.31657,1.58281 -0.36858,2.87784 -0.11559,2.87784 0.25298,0 2.60423,-1.31549 5.225,-2.9233 10.4397,-6.40467 21.47695,-8.93612 24.27296,-5.56714 2.08255,2.50932 0.48982,9.0648 -4.89157,20.13318 -2.7696,5.69649 -4.80224,10.357258 -4.51697,10.357258 0.9207,0 15.66776,-11.826848 23.9006,-19.167818 12.18458,-10.8646 23.43307,-15.09795 30.98007,-11.65931 1.96907,0.89717 2.84989,0.89717 3.74706,0 0.69579,-0.6958 4.33176,-1.17287 8.93887,-1.17287 l 7.76601,0 -7.51806,14.43811 c -7.14252,13.716888 -10.02404,20.561888 -8.6559,20.561888 0.34013,0 4.70565,-3.1127 9.70115,-6.91712 9.47567,-7.216378 13.00859,-11.380728 18.5224,-21.832878 l 3.29705,-6.25 7.86068,0 c 8.69273,0 9.04633,0.3455 5.77342,5.64117 l -2.08725,3.37725 9.26467,-4.50921 c 10.90958,-5.30981 16.88243,-6.00763 19.33721,-2.25921 2.14899,3.28147 0.61962,8.73539 -6.18275,22.04837 -3.14796,6.160888 -5.89287,11.582828 -6.0998,12.048738 -0.93178,2.09793 4.36439,-1.94412 9.60195,-7.32823 7.39372,-7.600588 14.20021,-10.511398 19.67066,-8.412188 1.30992,0.50266 1.14769,0.94753 -0.94612,2.59452 C 460.54497,97.540442 457,104.00915 457,107.04717 c 0,5.69216 7.09898,11.96199 11.6941,10.32825 5.70327,-2.02773 6.59561,-6.23794 3.3059,-15.59775 -2.63969,-7.510388 -2.64039,-16.564728 -0.002,-21.737018 3.83514,-7.51749 14.75517,-11.25062 21.98048,-7.51427 7.22044,3.73367 4.02057,12.51097 -4.56072,12.51097 -2.15006,0 -2.34748,-0.26282 -1.45294,-1.93426 2.36798,-4.42462 0.0829,-8.85044 -3.91451,-7.58171 -3.99433,1.26775 -3.65218,5.08647 1.31476,14.67412 3.88075,7.49098 4.63493,9.849278 4.63493,14.493188 0,9.24982 -3.97037,14.43405 -13.71759,17.91146 -5.67527,2.02471 -17.93423,1.7785 -22.86101,-0.45913 -4.38838,-1.9931 -8.10786,-6.00624 -9.05154,-9.76615 -0.32267,-1.28564 -0.77613,-2.33752 -1.00769,-2.33752 -0.23155,0 -2.77027,1.86583 -5.64159,4.14629 -9.29863,7.38517 -17.62507,9.80637 -21.25175,6.17968 -2.60462,-2.60462 -1.27503,-7.3552 6.06956,-21.686398 3.62496,-7.07324 6.35714,-13.46943 6.07151,-14.21377 -0.71393,-1.86049 -4.78553,-0.33006 -10.76102,4.04484 -3.89722,2.85331 -5.92336,5.76547 -12.5,17.966108 l -7.84888,14.56083 -7.75,10e-4 c -5.08811,7.9e-4 -7.75,-0.38632 -7.75,-1.12706 0,-0.62055 1.38303,-3.54555 3.07339,-6.5 1.69037,-2.95445 2.76532,-5.37173 2.38878,-5.37173 -0.37653,0 -2.84596,1.80959 -5.48762,4.02131 -6.93887,5.80976 -15.92857,10.9789 -19.09314,10.9789 -3.005,0 -6.88141,-3.9907 -6.88141,-7.08431 0,-1.50853 -0.96984,-1.15319 -5.75,2.10674 -6.48705,4.42397 -12.21253,6.03298 -16.9948,4.77597 z m 19.38062,-15.64955 c 5.29489,-3.8356 8.88969,-8.265918 12.48319,-15.384608 3.91528,-7.75613 3.60263,-10.16317 -1.37359,-10.57488 -3.38134,-0.27976 -4.27607,0.21728 -9.00058,5 -8.17248,8.27317 -13.59523,21.493808 -9.49484,23.148358 2.39259,0.96543 3.47376,0.64502 7.38582,-2.18887 z"
     id="path3083"
     inkscape:connector-curvature="0" />
</svg>
