<svg xmlns="http://www.w3.org/2000/svg" width="302" height="94.607" viewBox="0 0 79.904 25.031"><path d="M21.17 20.896c.617.996 2.229 3.77 3.565 3.77 1.507 0 3.015-2.949 3.6-4.045l4.385-8.602c1.542-2.878 3.635-1.507 3.635-3.428 0-1.713-3.019-1.713-4.18-1.713-1.132 0-4.185.033-4.185 1.747 0 1.132.96 1.337.96 2.193 0 .24-1.301 3.36-2.328 3.36-.755 0-2.057-2.674-2.057-3.36 0-.786 1.096-.89 1.096-2.123 0-1.887-3.669-1.817-4.97-1.817-6.719 0-6.89 1.372-6.89 2.057 0 1.267 2.124 1.267 2.124 2.914 0 .477-.957 2.263-1.573 2.263-.86 0-2.433-3.053-2.433-3.635 0-.445.65-.755.65-1.542 0-2.022-4.149-2.057-5.485-2.057-1.577 0-6.82.17-6.82 2.363 0 1.748 1.678.687 2.779 2.503l6.509 10.59c.585.96 1.336 2.331 2.607 2.331 1.062 0 1.643-1.026 2.123-1.817l2.503-4.35c.306-.55.787-1.543 1.507-1.543.516 0 .891.752 1.132 1.132zm28.687-4.49c1.096 0 2.123-.307 2.123-2.57 0-2.572-2.569-7.059-8.396-7.059-5.141 0-9.632 3.836-9.632 9.117 0 4.42 3.19 8.872 9.357 8.872 3.084 0 7.92-1.918 7.92-4.556 0-.651-.62-1.713-1.337-1.713-.72 0-1.988 1.543-4.56 1.543-1.612 0-3.84-1.442-3.84-3.154 0-.581.55-.48.926-.48zm-6.478-3.29c-.891 0-2.057.274-2.057-.961 0-1.096.926-2.263 2.057-2.263 1.267 0 2.022.961 2.022 2.197 0 1.232-1.096 1.027-2.022 1.027m18.849-4.73c0-.721-.035-1.508-1.062-1.508-.344 0-9.046 1.027-9.046 3.464 0 1.542 1.747 1.162 2.053 2.363.38 1.267.31 6.238-.136 7.435-.41 1.066-1.817 1.132-1.817 2.368 0 .821.24 2.158 6.137 2.158 1.542 0 5.893 0 5.893-2.333 0-1.813-2.022-.34-2.022-4.386zm-.17-5.963c0-1.713-1.953-2.158-3.325-2.158-1.747 0-6.272.925-6.272 3.188 0 1.678 1.542 2.329 2.983 2.329 1.953 0 6.614-.686 6.614-3.36m9.046 4.355c-3.53 0-6.338 2.159-6.338 5.583 0 5.657 6.718 5.897 6.718 7.92 0 .751-.651 1.096-1.34 1.096-1.918 0-3.29-3.394-4.797-3.394-.992 0-1.302.72-1.302 1.612 0 1.301.856 3.254 1.713 4.215.48.546.825.651 1.51.651.442 0 .857-.135 1.337-.135.411 0 2.945.442 4.351.442 3.565 0 6.684-2.224 6.684-5.448 0-5.311-7.54-5.722-7.54-7.915 0-.651.616-1.166 1.232-1.166 1.507 0 2.604 2.708 4.56 2.708.891 0 1.678-.685 1.678-1.612 0-1.406-1.577-4.556-3.154-4.556-.65 0-1.197.446-1.848.446-.515 0-2.127-.446-3.464-.446" fill="#ee2d2e"/></svg>